{
.appVersion = "1271";
copyright = "Copyright © 2019 by Gumpita Rahayu. All rights reserved.";
customParameters = (
{
name = vendorID;
value = TOKO;
},
{
name = fsType;
value = (
);
},
{
name = Axes;
value = (
{
Name = Weight;
Tag = wght;
},
{
Name = Italic;
Tag = ital;
}
);
}
);
date = "2019-12-29 19:23:56 +0000";
designer = "Gumpita Rahayu";
designerURL = "http://www.tokotypefaces.com";
familyName = "+Jakarta Sans";
featurePrefixes = (
{
automatic = 1;
code = "languagesystem DFLT dflt;\012";
name = Languagesystems;
}
);
features = (
{
automatic = 1;
code = "feature salt;\012feature ss01;\012feature ss02;\012feature ss03;\012feature calt;\012";
name = aalt;
},
{
automatic = 1;
code = "sub U by U.ss01;\012sub a by a.ss01;\012sub f by f.ss01;\012sub h by h.ss01;\012sub j by j.ss01;\012sub k by k.ss01;\012sub l by l.ss01;\012sub n by n.ss01;\012sub r by r.ss01;\012sub t by t.ss01;\012sub u by u.ss01;\012sub y by y.ss01;\012sub one by one.ss01;\012";
name = salt;
},
{
automatic = 1;
code = "sub U by U.ss01;\012sub a by a.ss01;\012sub f by f.ss01;\012sub h by h.ss01;\012sub j by j.ss01;\012sub k by k.ss01;\012sub l by l.ss01;\012sub n by n.ss01;\012sub r by r.ss01;\012sub t by t.ss01;\012sub u by u.ss01;\012sub y by y.ss01;\012sub one by one.ss01;\012";
name = ss01;
notes = "Name: Lancip Alternates";
},
{
automatic = 1;
code = "sub A by A.ss02;\012sub E by E.ss02;\012sub F by F.ss02;\012sub G by G.ss02;\012sub I by I.ss02;\012sub a by a.ss02;\012sub i by i.ss02;\012sub m by m.ss02;\012sub p by p.ss02;\012sub q by q.ss02;\012sub r by r.ss02;\012sub y by y.ss02;\012";
name = ss02;
notes = "Name: Lurus Alternates";
},
{
automatic = 1;
code = "sub G by G.ss03;\012sub J by J.ss03;\012sub K by K.ss03;\012sub Q by Q.ss03;\012sub R by R.ss03;\012sub g by g.ss03;\012sub m by m.ss03;\012sub n by n.ss03;\012sub u by u.ss03;\012sub three by three.ss03;\012";
name = ss03;
notes = "Name: Lingkar Alternates";
},
{
code = "sub J' a k a r t a by J.calt;";
name = calt;
}
);

glyphs = (
{
glyphname = A;
lastChange = "2020-01-19 20:05:40 +0000";
layers = (
{
anchors = (
{
name = bottom;
position = "{582, 0}";
},
{
name = top;
position = "{320, 710}";
}
);
hints = (
{
horizontal = 1;
place = "{745, 76}";
type = TTStem;
},
{
horizontal = 1;
place = "{230, 57}";
type = TTStem;
},
{
horizontal = 1;
place = "{0, 0}";
type = Align;
},
{
horizontal = 1;
place = "{0, 0}";
type = Align;
}
);
layerId = "30C2FD74-1A74-41AC-9C29-B288AE1DBDD7";
paths = (
{
closed = 1;
nodes = (
"109 0 LINE",
"174 184 LINE",
"509 184 LINE",
"574 0 LINE",
"658 0 LINE",
"384 745 LINE",
"299 745 LINE",
"25 0 LINE"
);
},
{
closed = 1;
nodes = (
"351 681 LINE",
"333 681 LINE",
"484 254 LINE",
"199 254 LINE"
);
}
);
width = 683;
},
{
anchors = (
{
name = bottom;
position = "{604, 0}";
},
{
name = top;
position = "{371, 710}";
}
);
hints = (
{
horizontal = 1;
place = "{154, 130}";
type = TTStem;
},
{
horizontal = 1;
place = "{154, 0}";
type = Align;
},
{
horizontal = 1;
place = "{154, 0}";
type = Align;
},
{
horizontal = 1;
place = "{745, -461}";
type = TTStem;
}
);
layerId = "9398AC28-6BE1-4A79-9C94-3CBC2F226CE7";
paths = (
{
closed = 1;
nodes = (
"190 0 LINE",
"240 152 LINE",
"525 152 LINE",
"575 0 LINE",
"739 0 LINE",
"485 745 LINE",
"280 745 LINE",
"26 0 LINE"
);
},
{
closed = 1;
nodes = (
"405 656 LINE",
"361 656 LINE",
"481 287 LINE",
"284 287 LINE"
);
}
);
width = 765;
},
{
associatedMasterId = "30C2FD74-1A74-41AC-9C29-B288AE1DBDD7";
hints = (
{
horizontal = 1;
place = "{745, 76}";
type = TTStem;
},
{
horizontal = 1;
place = "{230, 57}";
type = TTStem;
},
{
horizontal = 1;
place = "{0, 0}";
type = Align;
},
{
horizontal = 1;
place = "{0, 0}";
type = Align;
}
);
layerId = "D77F40F5-1FBC-47A6-95AF-0ED986573004";
name = base;
paths = (
{
closed = 1;
nodes = (
"658 0 LINE",
"384 745 LINE",
"310 745 LINE",
"574 0 LINE"
);
},
{
closed = 1;
nodes = (
"540 184 LINE",
"540 254 LINE",
"139 254 LINE",
"139 184 LINE"
);
},
{
closed = 1;
nodes = (
"109 0 LINE",
"373 745 LINE",
"299 745 LINE",
"25 0 LINE"
);
}
);
width = 683;
},
{
anchors = (
{
name = bottom;
position = "{604, 0}";
},
{
name = top;
position = "{371, 710}";
}
);
associatedMasterId = "9398AC28-6BE1-4A79-9C94-3CBC2F226CE7";
hints = (
{
horizontal = 1;
origin = "{1, 3}";
target = "{1, 2}";
type = TTStem;
},
{
horizontal = 1;
origin = "{1, 3}";
target = "{1, 3}";
type = Align;
},
{
horizontal = 1;
origin = "{1, 0}";
target = "{1, 0}";
type = Align;
},
{
horizontal = 1;
place = "{745, -461}";
type = TTStem;
}
);
layerId = "92E5E7F9-8459-49EF-BDF4-1E8A04DB8877";
name = base;
paths = (
{
closed = 1;
nodes = (
"739 0 LINE",
"485 745 LINE",
"331 745 LINE",
"575 0 LINE"
);
},
{
closed = 1;
nodes = (
"541 152 LINE",
"541 287 LINE",
"200 287 LINE",
"200 152 LINE"
);
},
{
closed = 1;
nodes = (
"190 0 LINE",
"434 745 LINE",
"280 745 LINE",
"26 0 LINE"
);
}
);
width = 765;
}
);
leftKerningGroup = A;
rightKerningGroup = A;
unicode = 0041;
},
{
color = 0;
glyphname = A.ss02;
lastChange = "2020-01-19 20:09:28 +0000";
layers = (
{
anchors = (
{
name = bottom;
position = "{582, 0}";
},
{
name = top;
position = "{320, 710}";
}
);
hints = (
{
horizontal = 1;
place = "{745, 76}";
type = TTStem;
},
{
horizontal = 1;
place = "{230, 57}";
type = TTStem;
},
{
horizontal = 1;
place = "{0, 0}";
type = Align;
},
{
horizontal = 1;
place = "{0, 0}";
type = Align;
}
);
layerId = "30C2FD74-1A74-41AC-9C29-B288AE1DBDD7";
paths = (
{
closed = 1;
nodes = (
"658 0 LINE",
"384 745 LINE",
"310 745 LINE",
"574 0 LINE"
);
},
{
closed = 1;
nodes = (
"540 184 LINE",
"540 254 LINE",
"139 254 LINE",
"139 184 LINE"
);
},
{
closed = 1;
nodes = (
"109 0 LINE",
"373 745 LINE",
"299 745 LINE",
"25 0 LINE"
);
},
{
closed = 1;
nodes = (
"299 675 LINE",
"299 745 LINE",
"139 745 LINE",
"139 675 LINE"
);
}
);
width = 683;
},
{
anchors = (
{
name = bottom;
position = "{604, 0}";
},
{
name = top;
position = "{371, 710}";
}
);
hints = (
{
horizontal = 1;
origin = "{1, 3}";
target = "{1, 2}";
type = TTStem;
},
{
horizontal = 1;
origin = "{1, 3}";
target = "{1, 3}";
type = Align;
},
{
horizontal = 1;
origin = "{1, 0}";
target = "{1, 0}";
type = Align;
},
{
horizontal = 1;
place = "{745, -461}";
type = TTStem;
}
);
layerId = "9398AC28-6BE1-4A79-9C94-3CBC2F226CE7";
paths = (
{
closed = 1;
nodes = (
"739 0 LINE",
"485 745 LINE",
"331 745 LINE",
"575 0 LINE"
);
},
{
closed = 1;
nodes = (
"541 154 LINE",
"541 284 LINE",
"200 284 LINE",
"200 154 LINE"
);
},
{
closed = 1;
nodes = (
"190 0 LINE",
"434 745 LINE",
"280 745 LINE",
"26 0 LINE"
);
},
{
closed = 1;
nodes = (
"280 615 LINE",
"280 745 LINE",
"120 745 LINE",
"120 615 LINE"
);
}
);
width = 765;
}
);
leftKerningGroup = A;
rightKerningGroup = A;
},
{
glyphname = B;
lastChange = "2020-01-19 20:05:40 +0000";
layers = (
{
hints = (
{
horizontal = 1;
place = "{710, 57}";
type = TTStem;
},
{
horizontal = 1;
place = "{0, 57}";
type = TTStem;
},
{
horizontal = 1;
place = "{360, 57}";
type = TTStem;
},
{
horizontal = 1;
place = "{57, 150}";
other1 = "{0, 10}";
type = Interpolate;
},
{
horizontal = 1;
place = "{653, 150}";
other1 = "{1, 4}";
type = Interpolate;
}
);
layerId = "30C2FD74-1A74-41AC-9C29-B288AE1DBDD7";
paths = (
{
closed = 1;
nodes = (
"403 0 LINE SMOOTH",
"548 0 OFFCURVE",
"643 83 OFFCURVE",
"643 215 CURVE SMOOTH",
"643 305 OFFCURVE",
"590 380 OFFCURVE",
"502 412 CURVE",
"503 388 LINE",
"573 418 OFFCURVE",
"613 480 OFFCURVE",
"613 558 CURVE SMOOTH",
"613 670 OFFCURVE",
"529 745 OFFCURVE",
"403 745 CURVE SMOOTH",
"93 745 LINE",
"93 0 LINE"
);
},
{
closed = 1;
nodes = (
"173 360 LINE",
"403 360 LINE SMOOTH",
"497 360 OFFCURVE",
"559 302 OFFCURVE",
"559 215 CURVE SMOOTH",
"559 128 OFFCURVE",
"497 70 OFFCURVE",
"403 70 CURVE SMOOTH",
"173 70 LINE"
);
},
{
closed = 1;
nodes = (
"173 675 LINE",
"397 675 LINE SMOOTH",
"477 675 OFFCURVE",
"529 626 OFFCURVE",
"529 553 CURVE SMOOTH",
"529 479 OFFCURVE",
"477 430 OFFCURVE",
"397 430 CURVE SMOOTH",
"173 430 LINE"
);
}
);
width = 694;
},
{
hints = (
{
horizontal = 1;
place = "{710, 120}";
type = TTStem;
},
{
horizontal = 1;
place = "{0, 119}";
type = TTStem;
},
{
horizontal = 1;
place = "{324, 120}";
type = TTStem;
},
{
horizontal = 1;
place = "{590, 150}";
other1 = "{0, 6}";
type = Interpolate;
},
{
horizontal = 1;
place = "{119, 150}";
other1 = "{0, 6}";
type = Interpolate;
}
);
layerId = "9398AC28-6BE1-4A79-9C94-3CBC2F226CE7";
paths = (
{
closed = 1;
nodes = (
"408 0 LINE SMOOTH",
"581 0 OFFCURVE",
"684 85 OFFCURVE",
"684 232 CURVE SMOOTH",
"684 314 OFFCURVE",
"655 388 OFFCURVE",
"537 435 CURVE",
"537 359 LINE",
"620 399 OFFCURVE",
"653 461 OFFCURVE",
"653 527 CURVE SMOOTH",
"653 664 OFFCURVE",
"556 745 OFFCURVE",
"392 745 CURVE SMOOTH",
"93 745 LINE",
"93 0 LINE"
);
},
{
closed = 1;
nodes = (
"248 330 LINE",
"426 330 LINE SMOOTH",
"488 330 OFFCURVE",
"529 291 OFFCURVE",
"529 232 CURVE SMOOTH",
"529 174 OFFCURVE",
"488 135 OFFCURVE",
"426 135 CURVE SMOOTH",
"248 135 LINE"
);
},
{
closed = 1;
nodes = (
"248 615 LINE",
"419 615 LINE SMOOTH",
"467 615 OFFCURVE",
"498 585 OFFCURVE",
"498 540 CURVE SMOOTH",
"498 495 OFFCURVE",
"467 465 OFFCURVE",
"419 465 CURVE SMOOTH",
"248 465 LINE"
);
}
);
width = 735;
},
{
associatedMasterId = "30C2FD74-1A74-41AC-9C29-B288AE1DBDD7";
layerId = "35DADDFF-BDB4-49C9-8DF4-D786FF7F604C";
name = "Feb 20 18, 00:17";
paths = (
{
closed = 1;
nodes = (
"419 0 LINE SMOOTH",
"549 0 OFFCURVE",
"633 80 OFFCURVE",
"633 208 CURVE SMOOTH",
"633 294 OFFCURVE",
"599 362 OFFCURVE",
"528 398 CURVE",
"566 430 OFFCURVE",
"583 476 OFFCURVE",
"583 527 CURVE SMOOTH",
"583 637 OFFCURVE",
"509 710 OFFCURVE",
"399 710 CURVE SMOOTH",
"100 710 LINE",
"100 0 LINE"
);
},
{
closed = 1;
nodes = (
"174 351 LINE",
"403 351 LINE SMOOTH",
"495 351 OFFCURVE",
"557 293 OFFCURVE",
"557 206 CURVE SMOOTH",
"557 124 OFFCURVE",
"495 70 OFFCURVE",
"403 70 CURVE SMOOTH",
"174 70 LINE"
);
},
{
closed = 1;
nodes = (
"174 640 LINE",
"379 640 LINE SMOOTH",
"456 640 OFFCURVE",
"507 595 OFFCURVE",
"507 527 CURVE SMOOTH",
"507 463 OFFCURVE",
"456 421 OFFCURVE",
"379 421 CURVE SMOOTH",
"174 421 LINE"
);
},
{
closed = 1;
nodes = (
"459 928 OFFCURVE",
"507 976 OFFCURVE",
"507 1039 CURVE SMOOTH",
"507 1099 OFFCURVE",
"459 1147 OFFCURVE",
"399 1147 CURVE SMOOTH",
"337 1147 OFFCURVE",
"289 1099 OFFCURVE",
"289 1039 CURVE SMOOTH",
"289 976 OFFCURVE",
"337 928 OFFCURVE",
"399 928 CURVE SMOOTH"
);
},
{
closed = 1;
nodes = (
"180 928 LINE",
"399 928 LINE",
"399 1147 LINE",
"180 1147 LINE"
);
}
);
width = 687;
},
{
associatedMasterId = "9398AC28-6BE1-4A79-9C94-3CBC2F226CE7";
hints = (
{
horizontal = 1;
origin = "{0, 13}";
target = "{1, 0}";
type = TTStem;
},
{
horizontal = 1;
origin = "{0, 14}";
target = "{2, 8}";
type = TTStem;
},
{
horizontal = 1;
origin = "{2, 0}";
target = "{1, 8}";
type = TTStem;
},
{
horizontal = 1;
origin = "{1, 0}";
target = "{1, 8}";
other1 = "{1, 4}";
type = Interpolate;
},
{
horizontal = 1;
origin = "{2, 8}";
target = "{2, 0}";
other1 = "{2, 4}";
type = Interpolate;
}
);
layerId = "31EB483D-DA0E-4957-9303-B1D08FFFB596";
name = "Jul 14 19, 23:50";
paths = (
{
closed = 1;
nodes = (
"409 0 LINE SMOOTH",
"546 0 OFFCURVE",
"640 92 OFFCURVE",
"640 224 CURVE SMOOTH",
"640 297 OFFCURVE",
"609 357 OFFCURVE",
"552 396 CURVE",
"588 429 OFFCURVE",
"594 467 OFFCURVE",
"594 518 CURVE SMOOTH",
"594 628 OFFCURVE",
"512 710 OFFCURVE",
"394 710 CURVE SMOOTH",
"78 710 LINE",
"78 0 LINE"
);
},
{
closed = 1;
nodes = (
"213 590 LINE",
"380 590 LINE SMOOTH",
"427 590 OFFCURVE",
"459 561 OFFCURVE",
"459 517 CURVE SMOOTH",
"459 473 OFFCURVE",
"427 444 OFFCURVE",
"380 444 CURVE SMOOTH",
"213 444 LINE"
);
},
{
closed = 1;
nodes = (
"213 324 LINE",
"393 324 LINE SMOOTH",
"459 324 OFFCURVE",
"505 283 OFFCURVE",
"505 222 CURVE SMOOTH",
"505 159 OFFCURVE",
"459 119 OFFCURVE",
"393 119 CURVE SMOOTH",
"213 119 LINE"
);
}
);
width = 674;
},
{
associatedMasterId = "9398AC28-6BE1-4A79-9C94-3CBC2F226CE7";
hints = (
{
horizontal = 1;
place = "{710, 120}";
type = TTStem;
},
{
horizontal = 1;
place = "{0, 119}";
type = TTStem;
},
{
horizontal = 1;
place = "{324, 120}";
type = TTStem;
},
{
horizontal = 1;
place = "{590, 150}";
other1 = "{2, 7}";
type = Interpolate;
},
{
horizontal = 1;
place = "{119, 150}";
other1 = "{0, 3}";
type = Interpolate;
}
);
layerId = "A82FBD7F-8B38-43C6-AE7F-D360D1FBB5C2";
name = "Aug 7 19, 15:04";
paths = (
{
closed = 1;
nodes = (
"396 0 LINE SMOOTH",
"547 0 OFFCURVE",
"643 85 OFFCURVE",
"643 218 CURVE SMOOTH",
"643 297 OFFCURVE",
"621 362 OFFCURVE",
"551 393 CURVE",
"582 424 OFFCURVE",
"605 469 OFFCURVE",
"605 527 CURVE SMOOTH",
"605 667 OFFCURVE",
"510 745 OFFCURVE",
"365 745 CURVE SMOOTH",
"50 745 LINE",
"50 0 LINE"
);
},
{
closed = 1;
nodes = (
"210 310 LINE",
"407 310 LINE SMOOTH",
"463 310 OFFCURVE",
"501 274 OFFCURVE",
"501 218 CURVE SMOOTH",
"501 163 OFFCURVE",
"465 126 OFFCURVE",
"407 126 CURVE SMOOTH",
"210 126 LINE"
);
},
{
closed = 1;
nodes = (
"210 619 LINE",
"345 619 LINE SMOOTH",
"402 619 OFFCURVE",
"440 583 OFFCURVE",
"440 527 CURVE SMOOTH",
"440 472 OFFCURVE",
"402 436 OFFCURVE",
"345 436 CURVE SMOOTH",
"210 436 LINE"
);
}
);
width = 674;
},
{
associatedMasterId = "9398AC28-6BE1-4A79-9C94-3CBC2F226CE7";
hints = (
{
horizontal = 1;
place = "{710, 120}";
type = TTStem;
},
{
horizontal = 1;
place = "{0, 119}";
type = TTStem;
},
{
horizontal = 1;
place = "{324, 120}";
type = TTStem;
},
{
horizontal = 1;
place = "{590, 150}";
other1 = "{0, 9}";
type = Interpolate;
},
{
horizontal = 1;
place = "{119, 150}";
other1 = "{0, 7}";
type = Interpolate;
}
);
layerId = "9F3EA72F-FB6D-4D5E-A4B9-6902FEFBADCB";
name = "Aug 7 19, 15:10";
paths = (
{
closed = 1;
nodes = (
"58 0 LINE",
"372 0 LINE SMOOTH",
"539 0 OFFCURVE",
"637 85 OFFCURVE",
"637 230 CURVE SMOOTH",
"637 375 OFFCURVE",
"539 460 OFFCURVE",
"372 460 CURVE SMOOTH",
"218 460 LINE",
"218 745 LINE",
"58 745 LINE"
);
},
{
closed = 1;
nodes = (
"363 330 LINE SMOOTH",
"432 330 OFFCURVE",
"473 293 OFFCURVE",
"473 230 CURVE SMOOTH",
"473 167 OFFCURVE",
"432 130 OFFCURVE",
"363 130 CURVE SMOOTH",
"218 130 LINE",
"218 330 LINE"
);
},
{
closed = 1;
nodes = (
"175 615 LINE",
"348 615 LINE SMOOTH",
"396 615 OFFCURVE",
"428 584 OFFCURVE",
"428 538 CURVE SMOOTH",
"428 491 OFFCURVE",
"396 460 OFFCURVE",
"348 460 CURVE SMOOTH",
"239 460 LINE",
"239 330 LINE",
"338 330 LINE SMOOTH",
"498 330 OFFCURVE",
"593 411 OFFCURVE",
"593 538 CURVE SMOOTH",
"593 660 OFFCURVE",
"495 745 OFFCURVE",
"338 745 CURVE SMOOTH",
"175 745 LINE"
);
}
);
width = 674;
}
);
leftKerningGroup = I;
rightKerningGroup = B;
unicode = 0042;
},
{
glyphname = C;
lastChange = "2020-01-19 20:05:40 +0000";
layers = (
{
anchors = (
{
name = bottom;
position = "{464, 0}";
},
{
name = top;
position = "{472, 710}";
}
);
hints = (
{
horizontal = 1;
place = "{722, 57}";
type = TTStem;
},
{
horizontal = 1;
place = "{-12, 57}";
type = TTStem;
}
);
layerId = "30C2FD74-1A74-41AC-9C29-B288AE1DBDD7";
paths = (
{
closed = 1;
nodes = (
"565 -12 OFFCURVE",
"676 80 OFFCURVE",
"713 173 CURVE",
"641 208 LINE",
"604 117 OFFCURVE",
"523 58 OFFCURVE",
"414 58 CURVE SMOOTH",
"249 58 OFFCURVE",
"131 187 OFFCURVE",
"131 372 CURVE SMOOTH",
"131 557 OFFCURVE",
"249 687 OFFCURVE",
"414 687 CURVE SMOOTH",
"523 687 OFFCURVE",
"604 627 OFFCURVE",
"641 536 CURVE",
"713 571 LINE",
"676 664 OFFCURVE",
"565 757 OFFCURVE",
"414 757 CURVE SMOOTH",
"204 757 OFFCURVE",
"51 595 OFFCURVE",
"51 372 CURVE SMOOTH",
"51 149 OFFCURVE",
"204 -12 OFFCURVE",
"414 -12 CURVE SMOOTH"
);
}
);
width = 748;
},
{
anchors = (
{
name = bottom;
position = "{440, 0}";
},
{
name = top;
position = "{421, 745}";
}
);
hints = (
{
horizontal = 1;
place = "{722, 120}";
type = TTStem;
},
{
horizontal = 1;
place = "{-12, 120}";
type = TTStem;
}
);
layerId = "9398AC28-6BE1-4A79-9C94-3CBC2F226CE7";
paths = (
{
closed = 1;
nodes = (
"584 -12 OFFCURVE",
"703 77 OFFCURVE",
"742 187 CURVE",
"605 253 LINE",
"579 181 OFFCURVE",
"513 128 OFFCURVE",
"423 128 CURVE SMOOTH",
"291 128 OFFCURVE",
"202 227 OFFCURVE",
"202 373 CURVE SMOOTH",
"202 518 OFFCURVE",
"291 617 OFFCURVE",
"423 617 CURVE SMOOTH",
"513 617 OFFCURVE",
"579 564 OFFCURVE",
"605 492 CURVE",
"742 558 LINE",
"703 668 OFFCURVE",
"584 757 OFFCURVE",
"423 757 CURVE SMOOTH",
"207 757 OFFCURVE",
"47 595 OFFCURVE",
"47 373 CURVE SMOOTH",
"47 152 OFFCURVE",
"209 -12 OFFCURVE",
"423 -12 CURVE SMOOTH"
);
}
);
width = 776;
},
{
anchors = (
{
name = bottom;
position = "{408, 0}";
},
{
name = top;
position = "{415, 710}";
}
);
associatedMasterId = "30C2FD74-1A74-41AC-9C29-B288AE1DBDD7";
layerId = "84CA46AE-5C9C-4415-ABD5-905ED029B2D1";
name = "Feb 20 18, 00:31";
paths = (
{
closed = 1;
nodes = (
"496 -12 OFFCURVE",
"590 27 OFFCURVE",
"658 93 CURVE",
"610 146 LINE",
"558 91 OFFCURVE",
"482 59 OFFCURVE",
"405 59 CURVE SMOOTH",
"231 59 OFFCURVE",
"115 186 OFFCURVE",
"115 355 CURVE SMOOTH",
"115 524 OFFCURVE",
"231 651 OFFCURVE",
"405 651 CURVE SMOOTH",
"482 651 OFFCURVE",
"558 619 OFFCURVE",
"610 564 CURVE",
"658 617 LINE",
"590 683 OFFCURVE",
"496 722 OFFCURVE",
"405 722 CURVE SMOOTH",
"194 722 OFFCURVE",
"39 565 OFFCURVE",
"39 355 CURVE SMOOTH",
"39 145 OFFCURVE",
"193 -12 OFFCURVE",
"405 -12 CURVE SMOOTH"
);
}
);
width = 712;
}
);
leftKerningGroup = O;
rightKerningGroup = C;
unicode = 0043;
},
{
glyphname = D;
lastChange = "2020-01-19 20:05:40 +0000";
layers = (
{
hints = (
{
horizontal = 1;
place = "{745, 60}";
type = TTStem;
},
{
horizontal = 1;
place = "{0, 60}";
type = TTStem;
}
);
layerId = "30C2FD74-1A74-41AC-9C29-B288AE1DBDD7";
paths = (
{
closed = 1;
nodes = (
"338 0 LINE SMOOTH",
"559 0 OFFCURVE",
"703 147 OFFCURVE",
"703 373 CURVE SMOOTH",
"703 600 OFFCURVE",
"559 745 OFFCURVE",
"338 745 CURVE SMOOTH",
"93 745 LINE",
"93 0 LINE"
);
},
{
closed = 1;
nodes = (
"173 675 LINE",
"338 675 LINE SMOOTH",
"508 675 OFFCURVE",
"619 555 OFFCURVE",
"619 373 CURVE SMOOTH",
"619 190 OFFCURVE",
"509 70 OFFCURVE",
"338 70 CURVE SMOOTH",
"173 70 LINE"
);
}
);
width = 754;
},
{
hints = (
{
horizontal = 1;
place = "{745, 132}";
type = TTStem;
},
{
horizontal = 1;
place = "{0, 130}";
type = TTStem;
}
);
layerId = "9398AC28-6BE1-4A79-9C94-3CBC2F226CE7";
paths = (
{
closed = 1;
nodes = (
"336 0 LINE SMOOTH",
"577 0 OFFCURVE",
"733 157 OFFCURVE",
"733 373 CURVE SMOOTH",
"733 589 OFFCURVE",
"578 745 OFFCURVE",
"336 745 CURVE SMOOTH",
"93 745 LINE",
"93 0 LINE"
);
},
{
closed = 1;
nodes = (
"248 610 LINE",
"340 610 LINE SMOOTH",
"485 610 OFFCURVE",
"578 518 OFFCURVE",
"578 373 CURVE SMOOTH",
"578 228 OFFCURVE",
"485 135 OFFCURVE",
"340 135 CURVE SMOOTH",
"248 135 LINE"
);
}
);
width = 782;
}
);
leftKerningGroup = I;
rightKerningGroup = O;
unicode = 0044;
},
{
glyphname = E;
lastChange = "2020-01-19 20:05:40 +0000";
layers = (
{
hints = (
{
horizontal = 1;
place = "{326, 57}";
type = TTStem;
},
{
horizontal = 1;
place = "{0, 57}";
type = TTStem;
},
{
horizontal = 1;
place = "{710, 57}";
type = TTStem;
}
);
layerId = "30C2FD74-1A74-41AC-9C29-B288AE1DBDD7";
paths = (
{
closed = 1;
nodes = (
"573 0 LINE",
"573 70 LINE",
"173 70 LINE",
"173 338 LINE",
"553 338 LINE",
"553 408 LINE",
"173 408 LINE",
"173 675 LINE",
"573 675 LINE",
"573 745 LINE",
"93 745 LINE",
"93 0 LINE"
);
}
);
width = 620;
},
{
hints = (
{
horizontal = 1;
place = "{745, 130}";
type = TTStem;
},
{
horizontal = 1;
place = "{308, 130}";
type = TTStem;
},
{
horizontal = 1;
place = "{0, 130}";
type = TTStem;
}
);
layerId = "9398AC28-6BE1-4A79-9C94-3CBC2F226CE7";
paths = (
{
closed = 1;
nodes = (
"592 0 LINE",
"593 135 LINE",
"247 135 LINE",
"247 306 LINE",
"573 306 LINE",
"573 441 LINE",
"247 441 LINE",
"247 610 LINE",
"593 610 LINE",
"593 745 LINE",
"92 745 LINE",
"92 0 LINE"
);
}
);
width = 658;
}
);
leftKerningGroup = I;
rightKerningGroup = E;
unicode = 0045;
},
{
color = 0;
glyphname = E.ss02;
lastChange = "2020-01-19 20:09:28 +0000";
layers = (
{
hints = (
{
horizontal = 1;
place = "{326, 57}";
type = TTStem;
},
{
horizontal = 1;
place = "{0, 57}";
type = TTStem;
},
{
horizontal = 1;
place = "{710, 57}";
type = TTStem;
}
);
layerId = "30C2FD74-1A74-41AC-9C29-B288AE1DBDD7";
paths = (
{
closed = 1;
nodes = (
"570 0 LINE",
"570 70 LINE",
"210 70 LINE",
"210 338 LINE",
"550 338 LINE",
"550 408 LINE",
"210 408 LINE",
"210 675 LINE",
"570 675 LINE",
"570 745 LINE",
"130 745 LINE",
"130 0 LINE"
);
},
{
closed = 1;
nodes = (
"130 675 LINE",
"130 745 LINE",
"25 745 LINE",
"25 675 LINE"
);
}
);
width = 617;
},
{
hints = (
{
horizontal = 1;
place = "{745, 130}";
type = TTStem;
},
{
horizontal = 1;
place = "{308, 130}";
type = TTStem;
},
{
horizontal = 1;
place = "{0, 130}";
type = TTStem;
}
);
layerId = "9398AC28-6BE1-4A79-9C94-3CBC2F226CE7";
paths = (
{
closed = 1;
nodes = (
"631 0 LINE",
"631 130 LINE",
"321 130 LINE",
"321 308 LINE",
"611 308 LINE",
"611 438 LINE",
"321 438 LINE",
"321 615 LINE",
"631 615 LINE",
"631 745 LINE",
"161 745 LINE",
"161 0 LINE"
);
},
{
closed = 1;
nodes = (
"161 615 LINE",
"161 745 LINE",
"31 745 LINE",
"31 615 LINE"
);
}
);
width = 696;
}
);
leftKerningGroup = I;
rightKerningGroup = E;
},
{
glyphname = F;
lastChange = "2020-01-19 20:05:40 +0000";
layers = (
{
hints = (
{
horizontal = 1;
place = "{0, 0}";
type = Align;
},
{
horizontal = 1;
place = "{327, 57}";
type = TTStem;
},
{
horizontal = 1;
place = "{710, 57}";
type = TTStem;
}
);
layerId = "30C2FD74-1A74-41AC-9C29-B288AE1DBDD7";
paths = (
{
closed = 1;
nodes = (
"173 0 LINE",
"173 338 LINE",
"553 338 LINE",
"553 408 LINE",
"173 408 LINE",
"173 675 LINE",
"573 675 LINE",
"573 745 LINE",
"93 745 LINE",
"93 0 LINE"
);
}
);
width = 608;
},
{
hints = (
{
horizontal = 1;
place = "{710, 120}";
type = TTStem;
},
{
horizontal = 1;
place = "{296, 120}";
type = TTStem;
},
{
horizontal = 1;
place = "{0, 0}";
type = Align;
}
);
layerId = "9398AC28-6BE1-4A79-9C94-3CBC2F226CE7";
paths = (
{
closed = 1;
nodes = (
"248 0 LINE",
"248 286 LINE",
"553 286 LINE",
"553 421 LINE",
"248 421 LINE",
"248 610 LINE",
"603 610 LINE",
"603 745 LINE",
"93 745 LINE",
"93 0 LINE"
);
}
);
width = 641;
}
);
leftKerningGroup = I;
unicode = 0046;
},
{
color = 0;
glyphname = F.ss02;
lastChange = "2020-01-19 20:09:28 +0000";
layers = (
{
hints = (
{
horizontal = 1;
place = "{0, 0}";
type = Align;
},
{
horizontal = 1;
place = "{327, 57}";
type = TTStem;
},
{
horizontal = 1;
place = "{710, 57}";
type = TTStem;
}
);
layerId = "30C2FD74-1A74-41AC-9C29-B288AE1DBDD7";
paths = (
{
closed = 1;
nodes = (
"210 0 LINE",
"210 338 LINE",
"550 338 LINE",
"550 408 LINE",
"210 408 LINE",
"210 675 LINE",
"570 675 LINE",
"570 745 LINE",
"130 745 LINE",
"130 0 LINE"
);
},
{
closed = 1;
nodes = (
"130 675 LINE",
"130 745 LINE",
"25 745 LINE",
"25 675 LINE"
);
}
);
width = 605;
},
{
hints = (
{
horizontal = 1;
place = "{710, 120}";
type = TTStem;
},
{
horizontal = 1;
place = "{296, 120}";
type = TTStem;
},
{
horizontal = 1;
place = "{0, 0}";
type = Align;
}
);
layerId = "9398AC28-6BE1-4A79-9C94-3CBC2F226CE7";
paths = (
{
closed = 1;
nodes = (
"321 0 LINE",
"321 288 LINE",
"581 288 LINE",
"581 418 LINE",
"321 418 LINE",
"321 615 LINE",
"631 615 LINE",
"631 745 LINE",
"161 745 LINE",
"161 0 LINE"
);
},
{
closed = 1;
nodes = (
"161 615 LINE",
"161 745 LINE",
"31 745 LINE",
"31 615 LINE"
);
}
);
width = 669;
}
);
leftKerningGroup = I;
},
{
glyphname = G;
lastChange = "2020-01-19 20:05:40 +0000";
layers = (
{
anchors = (
{
name = bottom;
position = "{454, 0}";
},
{
name = top;
position = "{454, 710}";
}
);
hints = (
{
horizontal = 1;
place = "{30, -42}";
type = Align;
},
{
horizontal = 1;
place = "{30, -42}";
type = TTStem;
},
{
horizontal = 1;
place = "{722, -338}";
type = TTStem;
},
{
horizontal = 1;
place = "{147, 237}";
type = Align;
}
);
layerId = "30C2FD74-1A74-41AC-9C29-B288AE1DBDD7";
paths = (
{
closed = 1;
nodes = (
"566 -12 OFFCURVE",
"687 64 OFFCURVE",
"732 183 CURVE",
"732 384 LINE",
"422 384 LINE",
"422 314 LINE",
"657 314 LINE",
"657 193 LINE",
"620 106 OFFCURVE",
"528 58 OFFCURVE",
"423 58 CURVE SMOOTH",
"250 58 OFFCURVE",
"130 187 OFFCURVE",
"130 372 CURVE SMOOTH",
"130 555 OFFCURVE",
"248 687 OFFCURVE",
"413 687 CURVE SMOOTH",
"518 687 OFFCURVE",
"601 632 OFFCURVE",
"640 536 CURVE",
"712 571 LINE",
"668 682 OFFCURVE",
"549 757 OFFCURVE",
"413 757 CURVE SMOOTH",
"207 757 OFFCURVE",
"50 590 OFFCURVE",
"50 372 CURVE SMOOTH",
"50 153 OFFCURVE",
"210 -12 OFFCURVE",
"423 -12 CURVE SMOOTH"
);
}
);
width = 814;
},
{
anchors = (
{
name = bottom;
position = "{424, 0}";
},
{
name = top;
position = "{424, 710}";
}
);
hints = (
{
horizontal = 1;
place = "{722, 120}";
type = TTStem;
},
{
horizontal = 1;
place = "{259, 120}";
type = TTStem;
},
{
horizontal = 1;
place = "{259, 0}";
type = Align;
},
{
horizontal = 1;
place = "{-12, 120}";
type = TTStem;
},
{
horizontal = 1;
place = "{259, 0}";
type = Align;
}
);
layerId = "9398AC28-6BE1-4A79-9C94-3CBC2F226CE7";
paths = (
{
closed = 1;
nodes = (
"625 -12 OFFCURVE",
"740 88 OFFCURVE",
"770 210 CURVE",
"770 420 LINE",
"440 420 LINE",
"440 285 LINE",
"620 285 LINE",
"620 220 LINE",
"601 175 OFFCURVE",
"542 128 OFFCURVE",
"438 128 CURVE SMOOTH",
"296 128 OFFCURVE",
"207 227 OFFCURVE",
"207 373 CURVE SMOOTH",
"207 518 OFFCURVE",
"296 617 OFFCURVE",
"428 617 CURVE SMOOTH",
"518 617 OFFCURVE",
"584 564 OFFCURVE",
"610 492 CURVE",
"747 558 LINE",
"708 668 OFFCURVE",
"589 757 OFFCURVE",
"428 757 CURVE SMOOTH",
"212 757 OFFCURVE",
"52 595 OFFCURVE",
"52 373 CURVE SMOOTH",
"52 152 OFFCURVE",
"214 -12 OFFCURVE",
"438 -12 CURVE SMOOTH"
);
}
);
width = 840;
}
);
leftKerningGroup = O;
rightKerningGroup = G;
unicode = 0047;
},
{
color = 0;
glyphname = G.ss02;
lastChange = "2020-01-19 20:09:28 +0000";
layers = (
{
anchors = (
{
name = bottom;
position = "{454, 0}";
},
{
name = top;
position = "{454, 710}";
}
);
hints = (
{
horizontal = 1;
place = "{30, -42}";
type = Align;
},
{
horizontal = 1;
place = "{30, -42}";
type = TTStem;
},
{
horizontal = 1;
place = "{722, -338}";
type = TTStem;
},
{
horizontal = 1;
place = "{147, 237}";
type = Align;
}
);
layerId = "30C2FD74-1A74-41AC-9C29-B288AE1DBDD7";
paths = (
{
closed = 1;
nodes = (
"517 -12 OFFCURVE",
"614 30 OFFCURVE",
"672 126 CURVE",
"672 0 LINE",
"742 0 LINE",
"742 385 LINE",
"414 385 LINE",
"414 315 LINE",
"671 315 LINE",
"665 128 OFFCURVE",
"540 58 OFFCURVE",
"417 58 CURVE SMOOTH",
"252 58 OFFCURVE",
"131 187 OFFCURVE",
"131 372 CURVE SMOOTH",
"131 557 OFFCURVE",
"249 687 OFFCURVE",
"414 687 CURVE SMOOTH",
"523 687 OFFCURVE",
"604 627 OFFCURVE",
"641 536 CURVE",
"713 571 LINE",
"676 664 OFFCURVE",
"565 757 OFFCURVE",
"414 757 CURVE SMOOTH",
"204 757 OFFCURVE",
"51 595 OFFCURVE",
"51 372 CURVE SMOOTH",
"51 149 OFFCURVE",
"207 -12 OFFCURVE",
"417 -12 CURVE SMOOTH"
);
}
);
width = 814;
},
{
anchors = (
{
name = bottom;
position = "{424, 0}";
},
{
name = top;
position = "{424, 710}";
}
);
hints = (
{
horizontal = 1;
place = "{722, 120}";
type = TTStem;
},
{
horizontal = 1;
place = "{259, 120}";
type = TTStem;
},
{
horizontal = 1;
place = "{259, 0}";
type = Align;
},
{
horizontal = 1;
place = "{-12, 120}";
type = TTStem;
},
{
horizontal = 1;
place = "{259, 0}";
type = Align;
}
);
layerId = "9398AC28-6BE1-4A79-9C94-3CBC2F226CE7";
paths = (
{
closed = 1;
nodes = (
"505 -12 OFFCURVE",
"572 14 OFFCURVE",
"630 69 CURVE",
"630 0 LINE",
"770 0 LINE",
"770 415 LINE",
"390 415 LINE",
"390 285 LINE",
"630 285 LINE",
"630 194 OFFCURVE",
"547 128 OFFCURVE",
"432 128 CURVE SMOOTH",
"295 128 OFFCURVE",
"204 225 OFFCURVE",
"204 373 CURVE SMOOTH",
"204 517 OFFCURVE",
"295 617 OFFCURVE",
"425 617 CURVE SMOOTH",
"512 617 OFFCURVE",
"578 571 OFFCURVE",
"607 492 CURVE",
"744 558 LINE",
"702 678 OFFCURVE",
"575 757 OFFCURVE",
"425 757 CURVE SMOOTH",
"209 757 OFFCURVE",
"49 594 OFFCURVE",
"49 373 CURVE SMOOTH",
"49 156 OFFCURVE",
"211 -12 OFFCURVE",
"422 -12 CURVE SMOOTH"
);
}
);
width = 840;
}
);
leftKerningGroup = O;
rightKerningGroup = G;
},
{
color = 6;
glyphname = G.ss03;
lastChange = "2020-01-19 20:14:52 +0000";
layers = (
{
anchors = (
{
name = bottom;
position = "{454, 0}";
},
{
name = top;
position = "{454, 710}";
}
);
hints = (
{
horizontal = 1;
place = "{30, -42}";
type = Align;
},
{
horizontal = 1;
place = "{30, -42}";
type = TTStem;
},
{
horizontal = 1;
place = "{722, -338}";
type = TTStem;
},
{
horizontal = 1;
place = "{147, 237}";
type = Align;
}
);
layerId = "30C2FD74-1A74-41AC-9C29-B288AE1DBDD7";
paths = (
{
closed = 1;
nodes = (
"588 -12 OFFCURVE",
"755 94 OFFCURVE",
"752 353 CURVE SMOOTH",
"752 384 LINE",
"362 384 LINE",
"362 315 LINE",
"668 315 LINE",
"662 128 OFFCURVE",
"537 58 OFFCURVE",
"414 58 CURVE SMOOTH",
"249 58 OFFCURVE",
"131 187 OFFCURVE",
"131 372 CURVE SMOOTH",
"131 557 OFFCURVE",
"249 686 OFFCURVE",
"414 686 CURVE SMOOTH",
"523 686 OFFCURVE",
"604 627 OFFCURVE",
"641 536 CURVE",
"713 571 LINE",
"676 664 OFFCURVE",
"565 756 OFFCURVE",
"414 756 CURVE SMOOTH",
"204 756 OFFCURVE",
"51 595 OFFCURVE",
"51 372 CURVE SMOOTH",
"51 149 OFFCURVE",
"204 -12 OFFCURVE",
"414 -12 CURVE SMOOTH"
);
}
);
width = 796;
},
{
anchors = (
{
name = bottom;
position = "{433, 0}";
},
{
name = top;
position = "{433, 710}";
}
);
hints = (
{
horizontal = 1;
place = "{722, 120}";
type = TTStem;
},
{
horizontal = 1;
place = "{259, 120}";
type = TTStem;
},
{
horizontal = 1;
place = "{259, 0}";
type = Align;
},
{
horizontal = 1;
place = "{-12, 120}";
type = TTStem;
},
{
horizontal = 1;
place = "{259, 0}";
type = Align;
}
);
layerId = "9398AC28-6BE1-4A79-9C94-3CBC2F226CE7";
paths = (
{
closed = 1;
nodes = (
"622 -12 OFFCURVE",
"799 104 OFFCURVE",
"799 366 CURVE SMOOTH",
"799 425 LINE",
"429 425 LINE",
"429 295 LINE",
"635 295 LINE",
"630 179 OFFCURVE",
"539 128 OFFCURVE",
"441 128 CURVE SMOOTH",
"302 128 OFFCURVE",
"213 227 OFFCURVE",
"213 373 CURVE SMOOTH",
"213 518 OFFCURVE",
"302 617 OFFCURVE",
"434 617 CURVE SMOOTH",
"524 617 OFFCURVE",
"590 564 OFFCURVE",
"616 492 CURVE",
"753 558 LINE",
"714 668 OFFCURVE",
"595 757 OFFCURVE",
"434 757 CURVE SMOOTH",
"218 757 OFFCURVE",
"58 595 OFFCURVE",
"58 373 CURVE SMOOTH",
"58 152 OFFCURVE",
"220 -12 OFFCURVE",
"441 -12 CURVE SMOOTH"
);
}
);
width = 862;
}
);
leftKerningGroup = O;
rightKerningGroup = G;
},
{
glyphname = H;
lastChange = "2020-01-19 20:05:40 +0000";
layers = (
{
anchors = (
{
name = bottom;
position = "{350, 0}";
},
{
name = center;
position = "{350, 536}";
},
{
name = top;
position = "{350, 710}";
}
);
hints = (
{
horizontal = 1;
place = "{745, 0}";
type = Align;
},
{
horizontal = 1;
place = "{0, 0}";
type = Align;
},
{
horizontal = 1;
place = "{0, 0}";
type = Align;
},
{
horizontal = 1;
place = "{745, 0}";
type = Align;
},
{
horizontal = 1;
place = "{357, 30}";
type = TTStem;
}
);
layerId = "30C2FD74-1A74-41AC-9C29-B288AE1DBDD7";
paths = (
{
closed = 1;
nodes = (
"173 0 LINE",
"173 320 LINE",
"573 320 LINE",
"573 0 LINE",
"653 0 LINE",
"653 745 LINE",
"573 745 LINE",
"573 390 LINE",
"173 390 LINE",
"173 745 LINE",
"93 745 LINE",
"93 0 LINE"
);
}
);
width = 746;
},
{
anchors = (
{
name = bottom;
position = "{391, 0}";
},
{
name = center;
position = "{391, 563}";
},
{
name = top;
position = "{391, 710}";
}
);
hints = (
{
horizontal = 1;
origin = "{0, 1}";
target = "{0, 8}";
type = TTStem;
},
{
horizontal = 1;
origin = "{0, 11}";
target = "{0, 0}";
type = Align;
},
{
horizontal = 1;
origin = "{0, 3}";
target = "{0, 4}";
type = Align;
},
{
horizontal = 1;
origin = "{0, 9}";
target = "{0, 10}";
type = Align;
},
{
horizontal = 1;
origin = "{0, 5}";
target = "{0, 6}";
type = Align;
}
);
layerId = "9398AC28-6BE1-4A79-9C94-3CBC2F226CE7";
paths = (
{
closed = 1;
nodes = (
"248 0 LINE",
"248 288 LINE",
"538 288 LINE",
"538 0 LINE",
"693 0 LINE",
"693 745 LINE",
"538 745 LINE",
"538 423 LINE",
"248 423 LINE",
"248 745 LINE",
"93 745 LINE",
"93 0 LINE"
);
}
);
width = 786;
}
);
leftKerningGroup = I;
rightKerningGroup = I;
unicode = 0048;
},
{
glyphname = I;
lastChange = "2020-01-19 20:05:40 +0000";
layers = (
{
anchors = (
{
name = bottom;
position = "{133, 0}";
},
{
name = top;
position = "{133, 710}";
}
);
hints = (
{
horizontal = 1;
origin = "{0, 1}";
target = "{0, 2}";
type = Align;
},
{
horizontal = 1;
origin = "{0, 0}";
target = "{0, 3}";
type = Align;
}
);
layerId = "30C2FD74-1A74-41AC-9C29-B288AE1DBDD7";
paths = (
{
closed = 1;
nodes = (
"173 0 LINE",
"173 745 LINE",
"93 745 LINE",
"93 0 LINE"
);
}
);
width = 266;
},
{
anchors = (
{
name = bottom;
position = "{176, 0}";
},
{
name = top;
position = "{176, 710}";
}
);
hints = (
{
horizontal = 1;
place = "{710, 0}";
type = Align;
},
{
horizontal = 1;
place = "{0, 0}";
type = Align;
}
);
layerId = "9398AC28-6BE1-4A79-9C94-3CBC2F226CE7";
paths = (
{
closed = 1;
nodes = (
"251 0 LINE",
"251 745 LINE",
"96 745 LINE",
"96 0 LINE"
);
}
);
width = 346;
}
);
leftKerningGroup = I;
rightKerningGroup = I;
unicode = 0049;
},
{
color = 0;
glyphname = I.ss02;
lastChange = "2020-01-19 20:09:49 +0000";
layers = (
{
anchors = (
{
name = bottom;
position = "{182, 0}";
},
{
name = top;
position = "{182, 710}";
}
);
hints = (
{
horizontal = 1;
origin = "{0, 5}";
target = "{0, 6}";
type = Align;
},
{
horizontal = 1;
origin = "{0, 0}";
target = "{0, 11}";
type = Align;
}
);
layerId = "30C2FD74-1A74-41AC-9C29-B288AE1DBDD7";
paths = (
{
closed = 1;
nodes = (
"327 0 LINE",
"327 70 LINE",
"222 70 LINE",
"222 675 LINE",
"327 675 LINE",
"327 745 LINE",
"37 745 LINE",
"37 675 LINE",
"142 675 LINE",
"142 70 LINE",
"37 70 LINE",
"37 0 LINE"
);
}
);
width = 364;
},
{
anchors = (
{
name = bottom;
position = "{319, 0}";
},
{
name = top;
position = "{319, 710}";
}
);
hints = (
{
horizontal = 1;
place = "{710, 0}";
type = Align;
},
{
horizontal = 1;
place = "{0, 0}";
type = Align;
}
);
layerId = "9398AC28-6BE1-4A79-9C94-3CBC2F226CE7";
paths = (
{
closed = 1;
nodes = (
"470 0 LINE",
"470 135 LINE",
"340 135 LINE",
"340 610 LINE",
"470 610 LINE",
"470 745 LINE",
"50 745 LINE",
"50 610 LINE",
"180 610 LINE",
"180 135 LINE",
"50 135 LINE",
"50 0 LINE"
);
}
);
width = 520;
}
);
leftKerningGroup = I;
rightKerningGroup = I;
},
{
glyphname = J;
lastChange = "2020-01-19 20:05:40 +0000";
layers = (
{
anchors = (
{
name = bottom;
position = "{54, 0}";
},
{
name = top;
position = "{219, 710}";
}
);
hints = (
{
horizontal = 1;
origin = "{0, 0}";
target = "{0, 9}";
type = TTStem;
options = 4;
},
{
horizontal = 1;
origin = "{0, 6}";
target = "{0, 6}";
type = Align;
},
{
horizontal = 1;
origin = "{0, 4}";
target = "{0, 5}";
type = Align;
}
);
layerId = "30C2FD74-1A74-41AC-9C29-B288AE1DBDD7";
paths = (
{
closed = 1;
nodes = (
"50 0 LINE SMOOTH",
"172 0 OFFCURVE",
"250 79 OFFCURVE",
"250 205 CURVE SMOOTH",
"250 745 LINE",
"170 745 LINE",
"170 205 LINE SMOOTH",
"170 128 OFFCURVE",
"124 80 OFFCURVE",
"50 80 CURVE SMOOTH",
"16 80 LINE",
"16 0 LINE"
);
}
);
width = 335;
},
{
anchors = (
{
name = bottom;
position = "{105, 0}";
},
{
name = top;
position = "{264, 710}";
}
);
hints = (
{
horizontal = 1;
origin = "{0, 0}";
target = "{0, 9}";
type = TTStem;
},
{
horizontal = 1;
origin = "{0, 3}";
target = "{0, 3}";
type = Align;
},
{
horizontal = 1;
origin = "{0, 4}";
target = "{0, 5}";
type = Align;
}
);
layerId = "9398AC28-6BE1-4A79-9C94-3CBC2F226CE7";
paths = (
{
closed = 1;
nodes = (
"81 0 LINE SMOOTH",
"237 0 OFFCURVE",
"336 96 OFFCURVE",
"336 240 CURVE SMOOTH",
"336 745 LINE",
"181 745 LINE",
"181 233 LINE SMOOTH",
"181 177 OFFCURVE",
"141 140 OFFCURVE",
"81 140 CURVE SMOOTH",
"31 140 LINE",
"31 0 LINE"
);
}
);
width = 424;
}
);
leftKerningGroup = J;
rightKerningGroup = J;
unicode = 004A;
},
{
color = 4;
glyphname = J.calt;
lastChange = "2020-01-19 20:14:23 +0000";
layers = (
{
guideLines = (
{
position = "{382, 617}";
}
);
hints = (
{
horizontal = 1;
place = "{-12, 54}";
type = TTStem;
options = 4;
},
{
horizontal = 1;
place = "{248, 0}";
type = Align;
},
{
horizontal = 1;
place = "{710, 0}";
type = Align;
}
);
layerId = "30C2FD74-1A74-41AC-9C29-B288AE1DBDD7";
paths = (
{
closed = 1;
nodes = (
"344 -1 OFFCURVE",
"422 79 OFFCURVE",
"422 205 CURVE SMOOTH",
"422 617 LINE",
"342 617 LINE",
"342 205 LINE SMOOTH",
"342 128 OFFCURVE",
"296 80 OFFCURVE",
"222 80 CURVE",
"222 0 LINE"
);
},
{
closed = 1;
nodes = (
"262 537 LINE",
"262 617 LINE",
"182 617 LINE",
"182 537 LINE"
);
},
{
closed = 1;
nodes = (
"102 697 LINE",
"102 777 LINE",
"22 777 LINE",
"22 697 LINE"
);
},
{
closed = 1;
nodes = (
"262 697 LINE",
"262 777 LINE",
"182 777 LINE",
"182 697 LINE"
);
},
{
closed = 1;
nodes = (
"422 697 LINE",
"422 777 LINE",
"342 777 LINE",
"342 697 LINE"
);
},
{
closed = 1;
nodes = (
"262 857 LINE",
"262 937 LINE",
"182 937 LINE",
"182 857 LINE"
);
},
{
closed = 1;
nodes = (
"24 857 LINE",
"102 935 LINE",
"102 937 LINE",
"22 937 LINE",
"22 857 LINE"
);
}
);
width = 507;
},
{
guideLines = (
{
position = "{338, 687}";
}
);
hints = (
{
horizontal = 1;
place = "{-12, 130}";
type = TTStem;
},
{
horizontal = 1;
place = "{268, 0}";
type = Align;
},
{
horizontal = 1;
place = "{745, 0}";
type = Align;
}
);
layerId = "9398AC28-6BE1-4A79-9C94-3CBC2F226CE7";
paths = (
{
closed = 1;
nodes = (
"346 0 OFFCURVE",
"488 139 OFFCURVE",
"488 365 CURVE SMOOTH",
"488 687 LINE",
"338 687 LINE",
"338 365 LINE SMOOTH",
"338 224 OFFCURVE",
"261 150 OFFCURVE",
"113 150 CURVE",
"113 0 LINE"
);
},
{
closed = 1;
nodes = (
"188 537 LINE",
"188 687 LINE",
"38 687 LINE",
"38 537 LINE"
);
},
{
closed = 1;
nodes = (
"-112 837 LINE",
"-112 987 LINE",
"-262 987 LINE",
"-262 837 LINE"
);
},
{
closed = 1;
nodes = (
"188 837 LINE",
"188 987 LINE",
"38 987 LINE",
"38 837 LINE"
);
},
{
closed = 1;
nodes = (
"488 837 LINE",
"488 987 LINE",
"338 987 LINE",
"338 837 LINE"
);
},
{
closed = 1;
nodes = (
"188 1137 LINE",
"188 1287 LINE",
"38 1287 LINE",
"38 1137 LINE"
);
},
{
closed = 1;
nodes = (
"-259 1137 LINE",
"-111 1284 LINE",
"-111 1287 LINE",
"-262 1287 LINE",
"-262 1137 LINE"
);
}
);
width = 558;
},
{
associatedMasterId = "30C2FD74-1A74-41AC-9C29-B288AE1DBDD7";
hints = (
{
horizontal = 1;
place = "{-12, 54}";
type = TTStem;
options = 4;
},
{
horizontal = 1;
place = "{248, 0}";
type = Align;
},
{
horizontal = 1;
place = "{710, 0}";
type = Align;
}
);
layerId = "558CE122-6FB7-4D6F-AE27-21A7C3FD7FDA";
name = "Dec 6 19, 00:40";
paths = (
{
closed = 1;
nodes = (
"415 -12 OFFCURVE",
"502 76 OFFCURVE",
"502 208 CURVE SMOOTH",
"502 745 LINE",
"422 745 LINE",
"422 201 LINE SMOOTH",
"422 115 OFFCURVE",
"366 58 OFFCURVE",
"282 58 CURVE SMOOTH",
"199 58 OFFCURVE",
"143 115 OFFCURVE",
"143 201 CURVE SMOOTH",
"143 268 LINE",
"63 268 LINE",
"63 201 LINE SMOOTH",
"63 74 OFFCURVE",
"151 -12 OFFCURVE",
"282 -12 CURVE SMOOTH"
);
}
);
width = 600;
},
{
associatedMasterId = "9398AC28-6BE1-4A79-9C94-3CBC2F226CE7";
hints = (
{
horizontal = 1;
place = "{-12, 130}";
type = TTStem;
},
{
horizontal = 1;
place = "{268, 0}";
type = Align;
},
{
horizontal = 1;
place = "{745, 0}";
type = Align;
}
);
layerId = "5D789706-7043-41A5-991A-365AF9A1588B";
name = "Dec 6 19, 00:40";
paths = (
{
closed = 1;
nodes = (
"438 -12 OFFCURVE",
"542 84 OFFCURVE",
"542 228 CURVE SMOOTH",
"542 745 LINE",
"382 745 LINE",
"382 221 LINE SMOOTH",
"382 159 OFFCURVE",
"342 118 OFFCURVE",
"282 118 CURVE SMOOTH",
"223 118 OFFCURVE",
"183 159 OFFCURVE",
"183 221 CURVE SMOOTH",
"183 268 LINE",
"23 268 LINE",
"23 221 LINE SMOOTH",
"23 81 OFFCURVE",
"127 -12 OFFCURVE",
"282 -12 CURVE SMOOTH"
);
}
);
width = 618;
},
{
associatedMasterId = "9398AC28-6BE1-4A79-9C94-3CBC2F226CE7";
hints = (
{
horizontal = 1;
place = "{-12, 130}";
type = TTStem;
},
{
horizontal = 1;
place = "{268, 0}";
type = Align;
},
{
horizontal = 1;
place = "{745, 0}";
type = Align;
}
);
layerId = "49BB287F-6AC4-4C5C-86DB-9B5FB8E5610E";
name = "Dec 10 19, 16:22";
paths = (
{
closed = 1;
nodes = (
"282 -12 LINE SMOOTH",
"438 -12 OFFCURVE",
"542 84 OFFCURVE",
"542 228 CURVE SMOOTH",
"542 745 LINE",
"382 745 LINE",
"382 228 LINE SMOOTH",
"382 172 OFFCURVE",
"342 138 OFFCURVE",
"282 138 CURVE SMOOTH",
"252 138 LINE",
"252 -12 LINE"
);
}
);
width = 618;
},
{
associatedMasterId = "30C2FD74-1A74-41AC-9C29-B288AE1DBDD7";
hints = (
{
horizontal = 1;
place = "{-12, 54}";
type = TTStem;
options = 4;
},
{
horizontal = 1;
place = "{248, 0}";
type = Align;
},
{
horizontal = 1;
place = "{710, 0}";
type = Align;
}
);
layerId = "7ECF0F14-E9C4-4848-961E-37D4CABFE22E";
name = "Dec 10 19, 16:41";
paths = (
{
closed = 1;
nodes = (
"282 -12 LINE SMOOTH",
"415 -12 OFFCURVE",
"502 76 OFFCURVE",
"502 208 CURVE SMOOTH",
"502 745 LINE",
"422 745 LINE",
"422 201 LINE SMOOTH",
"422 115 OFFCURVE",
"366 58 OFFCURVE",
"282 58 CURVE SMOOTH",
"252 58 LINE",
"252 -12 LINE"
);
}
);
width = 600;
}
);
leftKerningGroup = J;
rightKerningGroup = J;
},
{
color = 6;
glyphname = J.ss03;
lastChange = "2020-01-19 20:14:07 +0000";
layers = (
{
anchors = (
{
name = bottom;
position = "{282, 0}";
},
{
name = top;
position = "{447, 710}";
}
);
hints = (
{
horizontal = 1;
origin = "{0, 15}";
target = "{0, 8}";
type = TTStem;
options = 4;
},
{
horizontal = 1;
origin = "{0, 5}";
target = "{0, 5}";
type = Align;
},
{
horizontal = 1;
origin = "{0, 3}";
target = "{0, 4}";
type = Align;
}
);
layerId = "30C2FD74-1A74-41AC-9C29-B288AE1DBDD7";
paths = (
{
closed = 1;
nodes = (
"390 -12 OFFCURVE",
"478 75 OFFCURVE",
"478 205 CURVE SMOOTH",
"478 745 LINE",
"398 745 LINE",
"398 205 LINE SMOOTH",
"398 117 OFFCURVE",
"342 58 OFFCURVE",
"259 58 CURVE SMOOTH",
"170 58 OFFCURVE",
"126 120 OFFCURVE",
"106 215 CURVE",
"32 193 LINE",
"52 77 OFFCURVE",
"123 -12 OFFCURVE",
"259 -12 CURVE SMOOTH"
);
}
);
width = 563;
},
{
anchors = (
{
name = bottom;
position = "{346, 0}";
},
{
name = top;
position = "{505, 710}";
}
);
hints = (
{
horizontal = 1;
origin = "{0, 15}";
target = "{0, 8}";
type = TTStem;
},
{
horizontal = 1;
origin = "{0, 2}";
target = "{0, 2}";
type = Align;
},
{
horizontal = 1;
origin = "{0, 3}";
target = "{0, 4}";
type = Align;
}
);
layerId = "9398AC28-6BE1-4A79-9C94-3CBC2F226CE7";
paths = (
{
closed = 1;
nodes = (
"472 -12 OFFCURVE",
"577 90 OFFCURVE",
"577 245 CURVE SMOOTH",
"577 745 LINE",
"422 745 LINE",
"422 245 LINE SMOOTH",
"422 172 OFFCURVE",
"380 128 OFFCURVE",
"312 128 CURVE SMOOTH",
"245 128 OFFCURVE",
"199 170 OFFCURVE",
"182 248 CURVE",
"38 209 LINE",
"63 72 OFFCURVE",
"166 -12 OFFCURVE",
"312 -12 CURVE SMOOTH"
);
}
);
width = 665;
},
{
anchors = (
{
name = bottom;
position = "{101, 0}";
},
{
name = top;
position = "{260, 710}";
}
);
associatedMasterId = "9398AC28-6BE1-4A79-9C94-3CBC2F226CE7";
hints = (
{
horizontal = 1;
origin = "{0, 9}";
target = "{0, 8}";
type = TTStem;
},
{
horizontal = 1;
origin = "{0, 2}";
target = "{0, 2}";
type = Align;
},
{
horizontal = 1;
origin = "{0, 3}";
target = "{0, 4}";
type = Align;
}
);
layerId = "029D991C-6A85-4CD4-AE8E-F1205B802C53";
name = "Dec 17 19, 23:41";
paths = (
{
closed = 1;
nodes = (
"227 -12 OFFCURVE",
"337 84 OFFCURVE",
"337 228 CURVE SMOOTH",
"337 745 LINE",
"177 745 LINE",
"177 221 LINE SMOOTH",
"177 159 OFFCURVE",
"131 118 OFFCURVE",
"67 118 CURVE",
"67 -12 LINE"
);
},
{
closed = 1;
nodes = (
"67 118 LINE",
"-10 118 OFFCURVE",
"-54 176 OFFCURVE",
"-54 263 CURVE",
"-213 263 LINE",
"-213 98 OFFCURVE",
"-104 -12 OFFCURVE",
"67 -12 CURVE"
);
}
);
width = 399;
},
{
anchors = (
{
name = bottom;
position = "{94, 0}";
},
{
name = top;
position = "{259, 710}";
}
);
associatedMasterId = "30C2FD74-1A74-41AC-9C29-B288AE1DBDD7";
hints = (
{
horizontal = 1;
origin = "{0, 9}";
target = "{0, 8}";
type = TTStem;
options = 4;
},
{
horizontal = 1;
origin = "{0, 5}";
target = "{0, 5}";
type = Align;
},
{
horizontal = 1;
origin = "{0, 3}";
target = "{0, 4}";
type = Align;
}
);
layerId = "26A1E5E7-A1A0-4E2E-9DFB-D01E3B907D1A";
name = "Dec 17 19, 23:41";
paths = (
{
closed = 1;
nodes = (
"212 -12 OFFCURVE",
"290 79 OFFCURVE",
"290 205 CURVE SMOOTH",
"290 745 LINE",
"210 745 LINE",
"210 205 LINE SMOOTH",
"210 116 OFFCURVE",
"164 58 OFFCURVE",
"71 58 CURVE",
"71 -12 LINE"
);
},
{
closed = 1;
nodes = (
"71 58 LINE",
"-28 58 OFFCURVE",
"-77 132 OFFCURVE",
"-77 233 CURVE",
"-156 233 LINE",
"-156 84 OFFCURVE",
"-82 -12 OFFCURVE",
"71 -12 CURVE"
);
}
);
width = 375;
}
);
leftKerningGroup = J;
rightKerningGroup = J;
},
{
glyphname = K;
lastChange = "2020-01-19 20:24:51 +0000";
layers = (
{
hints = (
{
horizontal = 1;
place = "{239, 90}";
type = TTStem;
},
{
horizontal = 1;
place = "{239, 196}";
type = Align;
options = 4;
},
{
horizontal = 1;
place = "{710, 0}";
type = Align;
},
{
horizontal = 1;
place = "{0, 0}";
type = Align;
},
{
horizontal = 1;
place = "{0, 0}";
type = Align;
},
{
horizontal = 1;
place = "{709, 0}";
type = Align;
}
);
layerId = "30C2FD74-1A74-41AC-9C29-B288AE1DBDD7";
paths = (
{
closed = 1;
nodes = (
"604 745 LINE",
"508 745 LINE",
"131 327 LINE",
"131 217 LINE"
);
},
{
closed = 1;
nodes = (
"173 0 LINE",
"173 745 LINE",
"93 745 LINE",
"93 0 LINE"
);
},
{
closed = 1;
nodes = (
"644 0 LINE",
"335 500 LINE",
"278 443 LINE",
"550 0 LINE"
);
}
);
width = 666;
},
{
hints = (
{
horizontal = 1;
place = "{0, -2147483648}";
type = TTStem;
},
{
horizontal = 1;
place = "{0, 745}";
type = Align;
options = 4;
},
{
horizontal = 1;
place = "{0, 0}";
type = Align;
},
{
horizontal = 1;
place = "{0, 0}";
type = Align;
},
{
horizontal = 1;
place = "{745, 0}";
type = Align;
},
{
horizontal = 1;
place = "{745, 0}";
type = Align;
}
);
layerId = "9398AC28-6BE1-4A79-9C94-3CBC2F226CE7";
paths = (
{
closed = 1;
nodes = (
"664 745 LINE",
"486 745 LINE",
"131 321 LINE",
"200 186 LINE"
);
},
{
closed = 1;
nodes = (
"253 0 LINE",
"253 745 LINE",
"93 745 LINE",
"93 0 LINE"
);
},
{
closed = 1;
nodes = (
"704 0 LINE",
"425 488 LINE",
"296 418 LINE",
"530 0 LINE"
);
}
);
width = 726;
},
{
associatedMasterId = "9398AC28-6BE1-4A79-9C94-3CBC2F226CE7";
hints = (
{
horizontal = 1;
place = "{0, -2147483648}";
type = TTStem;
},
{
horizontal = 1;
place = "{0, 745}";
type = Align;
options = 4;
},
{
horizontal = 1;
place = "{0, 0}";
type = Align;
},
{
horizontal = 1;
place = "{0, 0}";
type = Align;
},
{
horizontal = 1;
place = "{745, 0}";
type = Align;
},
{
horizontal = 1;
place = "{745, 0}";
type = Align;
}
);
layerId = "257D16D4-F1B5-4AF4-BCD6-C9533BC0632E";
name = base;
paths = (
{
closed = 1;
nodes = (
"664 745 LINE",
"490 745 LINE",
"131 277 LINE",
"200 136 LINE"
);
},
{
closed = 1;
nodes = (
"253 0 LINE",
"253 745 LINE",
"93 745 LINE",
"93 0 LINE"
);
},
{
closed = 1;
nodes = (
"704 0 LINE",
"425 488 LINE",
"296 418 LINE",
"530 0 LINE"
);
}
);
width = 726;
},
{
associatedMasterId = "30C2FD74-1A74-41AC-9C29-B288AE1DBDD7";
hints = (
{
horizontal = 1;
place = "{239, 90}";
type = TTStem;
},
{
horizontal = 1;
place = "{239, 196}";
type = Align;
options = 4;
},
{
horizontal = 1;
place = "{710, 0}";
type = Align;
},
{
horizontal = 1;
place = "{0, 0}";
type = Align;
},
{
horizontal = 1;
place = "{0, 0}";
type = Align;
},
{
horizontal = 1;
place = "{709, 0}";
type = Align;
}
);
layerId = "B449C42F-D400-4C41-844E-3CDDBCC26E7D";
name = base;
paths = (
{
closed = 1;
nodes = (
"604 745 LINE",
"510 745 LINE",
"131 277 LINE",
"131 157 LINE"
);
},
{
closed = 1;
nodes = (
"173 0 LINE",
"173 745 LINE",
"93 745 LINE",
"93 0 LINE"
);
},
{
closed = 1;
nodes = (
"644 0 LINE",
"365 488 LINE",
"312 418 LINE",
"550 0 LINE"
);
}
);
width = 666;
}
);
leftKerningGroup = I;
rightKerningGroup = K;
unicode = 004B;
},
{
color = 6;
glyphname = K.ss03;
lastChange = "2020-01-19 20:14:12 +0000";
layers = (
{
hints = (
{
horizontal = 1;
place = "{239, 90}";
type = TTStem;
},
{
horizontal = 1;
place = "{239, 196}";
type = Align;
options = 4;
},
{
horizontal = 1;
place = "{710, 0}";
type = Align;
},
{
horizontal = 1;
place = "{0, 0}";
type = Align;
},
{
horizontal = 1;
place = "{0, 0}";
type = Align;
},
{
horizontal = 1;
place = "{709, 0}";
type = Align;
}
);
layerId = "30C2FD74-1A74-41AC-9C29-B288AE1DBDD7";
paths = (
{
closed = 1;
nodes = (
"644 -6 LINE",
"644 64 LINE",
"624 64 LINE SMOOTH",
"566 64 OFFCURVE",
"541 82 OFFCURVE",
"506 147 CURVE SMOOTH",
"354 434 LINE",
"604 745 LINE",
"510 745 LINE",
"173 329 LINE",
"173 745 LINE",
"93 745 LINE",
"93 0 LINE",
"173 0 LINE",
"173 209 LINE",
"299 366 LINE",
"417 145 LINE SMOOTH",
"480 26 OFFCURVE",
"525 -6 OFFCURVE",
"624 -6 CURVE SMOOTH"
);
}
);
width = 660;
},
{
hints = (
{
horizontal = 1;
place = "{0, -2147483648}";
type = TTStem;
},
{
horizontal = 1;
place = "{0, 745}";
type = Align;
options = 4;
},
{
horizontal = 1;
place = "{0, 0}";
type = Align;
},
{
horizontal = 1;
place = "{0, 0}";
type = Align;
},
{
horizontal = 1;
place = "{745, 0}";
type = Align;
},
{
horizontal = 1;
place = "{745, 0}";
type = Align;
}
);
layerId = "9398AC28-6BE1-4A79-9C94-3CBC2F226CE7";
paths = (
{
closed = 1;
nodes = (
"703 -6 LINE",
"703 124 LINE",
"661 124 LINE SMOOTH",
"613 124 OFFCURVE",
"582 149 OFFCURVE",
"544 215 CURVE SMOOTH",
"421 426 LINE",
"664 745 LINE",
"490 745 LINE",
"248 430 LINE",
"248 745 LINE",
"93 745 LINE",
"93 0 LINE",
"248 0 LINE",
"248 199 LINE",
"324 299 LINE",
"404 160 LINE SMOOTH",
"479 29 OFFCURVE",
"530 -6 OFFCURVE",
"661 -6 CURVE SMOOTH"
);
}
);
width = 735;
},
{
associatedMasterId = "30C2FD74-1A74-41AC-9C29-B288AE1DBDD7";
hints = (
{
horizontal = 1;
place = "{239, 90}";
type = TTStem;
},
{
horizontal = 1;
place = "{239, 196}";
type = Align;
options = 4;
},
{
horizontal = 1;
place = "{710, 0}";
type = Align;
},
{
horizontal = 1;
place = "{0, 0}";
type = Align;
},
{
horizontal = 1;
place = "{0, 0}";
type = Align;
},
{
horizontal = 1;
place = "{709, 0}";
type = Align;
}
);
layerId = "C446B1DF-81A3-474D-B7FC-E18F906B6B4E";
name = base;
paths = (
{
closed = 1;
nodes = (
"604 745 LINE",
"510 745 LINE",
"131 277 LINE",
"131 157 LINE"
);
},
{
closed = 1;
nodes = (
"173 0 LINE",
"173 745 LINE",
"93 745 LINE",
"93 0 LINE"
);
},
{
closed = 1;
nodes = (
"634 -6 LINE",
"634 64 LINE",
"624 64 LINE",
"566 64 OFFCURVE",
"541 82 OFFCURVE",
"506 147 CURVE SMOOTH",
"325 488 LINE",
"272 418 LINE",
"417 145 LINE SMOOTH",
"480 27 OFFCURVE",
"524 -5 OFFCURVE",
"624 -6 CURVE"
);
}
);
width = 660;
},
{
associatedMasterId = "9398AC28-6BE1-4A79-9C94-3CBC2F226CE7";
hints = (
{
horizontal = 1;
place = "{0, -2147483648}";
type = TTStem;
},
{
horizontal = 1;
place = "{0, 745}";
type = Align;
options = 4;
},
{
horizontal = 1;
place = "{0, 0}";
type = Align;
},
{
horizontal = 1;
place = "{0, 0}";
type = Align;
},
{
horizontal = 1;
place = "{745, 0}";
type = Align;
},
{
horizontal = 1;
place = "{745, 0}";
type = Align;
}
);
layerId = "511BC9D1-CE21-4637-A32B-4D1292EDFAF6";
name = base;
paths = (
{
closed = 1;
nodes = (
"664 745 LINE",
"490 745 LINE",
"131 277 LINE",
"200 136 LINE"
);
},
{
closed = 1;
nodes = (
"253 0 LINE",
"253 745 LINE",
"93 745 LINE",
"93 0 LINE"
);
},
{
closed = 1;
nodes = (
"703 -6 LINE",
"703 124 LINE",
"661 124 LINE SMOOTH",
"613 124 OFFCURVE",
"582 149 OFFCURVE",
"544 215 CURVE SMOOTH",
"385 488 LINE",
"255 418 LINE",
"404 160 LINE SMOOTH",
"479 29 OFFCURVE",
"530 -6 OFFCURVE",
"661 -6 CURVE SMOOTH"
);
}
);
width = 735;
}
);
leftKerningGroup = I;
rightKerningGroup = K;
},
{
glyphname = L;
lastChange = "2020-01-19 20:05:40 +0000";
layers = (
{
anchors = (
{
name = bottom;
position = "{272, 0}";
},
{
name = center;
position = "{106, 355}";
},
{
name = top;
position = "{106, 710}";
}
);
hints = (
{
horizontal = 1;
place = "{0, 57}";
type = TTStem;
},
{
horizontal = 1;
place = "{710, 0}";
type = Align;
}
);
layerId = "30C2FD74-1A74-41AC-9C29-B288AE1DBDD7";
paths = (
{
closed = 1;
nodes = (
"503 0 LINE",
"503 70 LINE",
"173 70 LINE",
"173 745 LINE",
"93 745 LINE",
"93 0 LINE"
);
}
);
width = 528;
},
{
anchors = (
{
name = bottom;
position = "{334, 0}";
},
{
name = center;
position = "{178, 355}";
},
{
name = top;
position = "{180, 710}";
}
);
hints = (
{
horizontal = 1;
place = "{710, 0}";
type = Align;
},
{
horizontal = 1;
place = "{0, 120}";
type = TTStem;
}
);
layerId = "9398AC28-6BE1-4A79-9C94-3CBC2F226CE7";
paths = (
{
closed = 1;
nodes = (
"583 0 LINE",
"583 135 LINE",
"248 135 LINE",
"248 745 LINE",
"93 745 LINE",
"93 0 LINE"
);
}
);
width = 614;
}
);
leftKerningGroup = I;
rightKerningGroup = L;
unicode = 004C;
},
{
glyphname = M;
lastChange = "2020-01-19 20:05:40 +0000";
layers = (
{
hints = (
{
horizontal = 1;
place = "{253, 35}";
type = Align;
},
{
horizontal = 1;
place = "{0, 0}";
type = Align;
},
{
horizontal = 1;
place = "{0, 0}";
type = Align;
},
{
horizontal = 1;
place = "{710, 69}";
type = Align;
},
{
horizontal = 1;
place = "{710, 69}";
type = TTStem;
},
{
horizontal = 1;
place = "{710, 69}";
type = Align;
},
{
horizontal = 1;
place = "{710, 69}";
type = TTStem;
}
);
layerId = "30C2FD74-1A74-41AC-9C29-B288AE1DBDD7";
paths = (
{
closed = 1;
nodes = (
"404 339 LINE",
"442 339 LINE",
"163 745 LINE",
"93 745 LINE",
"93 0 LINE",
"173 0 LINE",
"173 637 LINE",
"148 627 LINE",
"421 230 LINE",
"425 230 LINE",
"699 627 LINE",
"673 637 LINE",
"673 0 LINE",
"753 0 LINE",
"753 745 LINE",
"683 745 LINE"
);
}
);
width = 846;
},
{
hints = (
{
horizontal = 1;
origin = "{0, 3}";
target = "{0, 6}";
type = TTStem;
},
{
horizontal = 1;
origin = "{0, 2}";
target = "{0, 6}";
type = Align;
},
{
horizontal = 1;
origin = "{0, 15}";
target = "{0, 11}";
type = Align;
},
{
horizontal = 1;
origin = "{0, 14}";
target = "{0, 11}";
type = TTStem;
},
{
horizontal = 1;
origin = "{0, 4}";
target = "{0, 5}";
type = Align;
},
{
horizontal = 1;
origin = "{0, 12}";
target = "{0, 13}";
type = Align;
},
{
horizontal = 1;
origin = "{0, 8}";
target = "{0, 1}";
type = Align;
}
);
layerId = "9398AC28-6BE1-4A79-9C94-3CBC2F226CE7";
paths = (
{
closed = 1;
nodes = (
"440 375 LINE",
"524 375 LINE",
"243 745 LINE",
"93 745 LINE",
"93 0 LINE",
"248 0 LINE",
"248 584 LINE",
"196 570 LINE",
"481 190 LINE",
"485 190 LINE",
"780 570 LINE",
"718 584 LINE",
"718 0 LINE",
"873 0 LINE",
"873 745 LINE",
"723 745 LINE"
);
}
);
width = 966;
}
);
leftKerningGroup = I;
rightKerningGroup = I;
unicode = 004D;
},
{
glyphname = N;
lastChange = "2020-01-19 20:05:40 +0000";
layers = (
{
hints = (
{
horizontal = 1;
place = "{710, 76}";
type = Align;
},
{
horizontal = 1;
place = "{710, 76}";
type = TTStem;
},
{
horizontal = 1;
place = "{710, 0}";
type = Align;
},
{
horizontal = 1;
place = "{0, 76}";
type = Align;
},
{
horizontal = 1;
place = "{76, 76}";
type = TTStem;
},
{
horizontal = 1;
place = "{0, 0}";
type = Align;
}
);
layerId = "30C2FD74-1A74-41AC-9C29-B288AE1DBDD7";
paths = (
{
closed = 1;
nodes = (
"573 118 LINE",
"597 118 LINE",
"163 745 LINE",
"93 745 LINE",
"93 0 LINE",
"173 0 LINE",
"173 631 LINE",
"149 631 LINE",
"583 0 LINE",
"653 0 LINE",
"653 745 LINE",
"573 745 LINE"
);
}
);
width = 746;
},
{
hints = (
{
horizontal = 1;
place = "{745, 189}";
type = Align;
},
{
horizontal = 1;
place = "{745, 189}";
type = TTStem;
},
{
horizontal = 1;
place = "{0, 193}";
type = Align;
},
{
horizontal = 1;
place = "{193, 193}";
type = TTStem;
},
{
horizontal = 1;
place = "{0, 0}";
type = Align;
},
{
horizontal = 1;
place = "{745, 0}";
type = Align;
}
);
layerId = "9398AC28-6BE1-4A79-9C94-3CBC2F226CE7";
paths = (
{
closed = 1;
nodes = (
"548 203 LINE",
"607 218 LINE",
"212 745 LINE",
"93 745 LINE",
"93 0 LINE",
"248 0 LINE",
"248 546 LINE",
"189 531 LINE",
"584 0 LINE",
"703 0 LINE",
"703 745 LINE",
"548 745 LINE"
);
}
);
width = 796;
}
);
leftKerningGroup = I;
rightKerningGroup = I;
unicode = 004E;
},
{
glyphname = O;
lastChange = "2020-01-19 20:05:40 +0000";
layers = (
{
anchors = (
{
name = bottom;
position = "{470, 0}";
},
{
name = center;
position = "{461, 356}";
},
{
name = top;
position = "{470, 710}";
}
);
hints = (
{
horizontal = 1;
place = "{758, 32}";
type = TTStem;
},
{
horizontal = 1;
place = "{-13, 32}";
type = TTStem;
}
);
layerId = "30C2FD74-1A74-41AC-9C29-B288AE1DBDD7";
paths = (
{
closed = 1;
nodes = (
"630 -12 OFFCURVE",
"796 149 OFFCURVE",
"796 373 CURVE SMOOTH",
"796 596 OFFCURVE",
"630 757 OFFCURVE",
"423 757 CURVE SMOOTH",
"216 757 OFFCURVE",
"50 597 OFFCURVE",
"50 373 CURVE SMOOTH",
"50 148 OFFCURVE",
"216 -12 OFFCURVE",
"423 -12 CURVE SMOOTH"
);
},
{
closed = 1;
nodes = (
"251 63 OFFCURVE",
"130 202 OFFCURVE",
"130 373 CURVE SMOOTH",
"130 542 OFFCURVE",
"250 682 OFFCURVE",
"423 682 CURVE SMOOTH",
"596 682 OFFCURVE",
"716 542 OFFCURVE",
"716 373 CURVE SMOOTH",
"716 202 OFFCURVE",
"595 63 OFFCURVE",
"423 63 CURVE SMOOTH"
);
}
);
width = 846;
},
{
anchors = (
{
name = bottom;
position = "{426, 0}";
},
{
name = center;
position = "{426, 355}";
},
{
name = top;
position = "{426, 710}";
}
);
hints = (
{
horizontal = 1;
origin = "{0, 5}";
target = "{1, 5}";
type = TTStem;
},
{
horizontal = 1;
origin = "{0, 11}";
target = "{1, 11}";
type = TTStem;
}
);
layerId = "9398AC28-6BE1-4A79-9C94-3CBC2F226CE7";
paths = (
{
closed = 1;
nodes = (
"669 -12 OFFCURVE",
"839 154 OFFCURVE",
"839 373 CURVE SMOOTH",
"839 592 OFFCURVE",
"670 757 OFFCURVE",
"444 757 CURVE SMOOTH",
"218 757 OFFCURVE",
"49 592 OFFCURVE",
"49 373 CURVE SMOOTH",
"49 154 OFFCURVE",
"219 -12 OFFCURVE",
"444 -12 CURVE SMOOTH"
);
},
{
closed = 1;
nodes = (
"308 128 OFFCURVE",
"204 229 OFFCURVE",
"204 373 CURVE SMOOTH",
"204 517 OFFCURVE",
"308 617 OFFCURVE",
"444 617 CURVE SMOOTH",
"580 617 OFFCURVE",
"684 517 OFFCURVE",
"684 373 CURVE SMOOTH",
"684 229 OFFCURVE",
"580 128 OFFCURVE",
"444 128 CURVE SMOOTH"
);
}
);
width = 887;
}
);
leftKerningGroup = O;
rightKerningGroup = O;
unicode = 004F;
},
{
glyphname = P;
lastChange = "2020-01-19 20:05:40 +0000";
layers = (
{
hints = (
{
horizontal = 1;
place = "{710, 57}";
type = TTStem;
},
{
horizontal = 1;
place = "{328, 57}";
type = TTStem;
},
{
horizontal = 1;
place = "{0, 0}";
type = Align;
}
);
layerId = "30C2FD74-1A74-41AC-9C29-B288AE1DBDD7";
paths = (
{
closed = 1;
nodes = (
"173 0 LINE",
"173 290 LINE",
"349 290 LINE SMOOTH",
"502 290 OFFCURVE",
"603 381 OFFCURVE",
"603 517 CURVE SMOOTH",
"603 653 OFFCURVE",
"501 745 OFFCURVE",
"349 745 CURVE SMOOTH",
"93 745 LINE",
"93 0 LINE"
);
},
{
closed = 1;
nodes = (
"173 675 LINE",
"349 675 LINE SMOOTH",
"451 675 OFFCURVE",
"519 612 OFFCURVE",
"519 518 CURVE SMOOTH",
"519 423 OFFCURVE",
"451 360 OFFCURVE",
"349 360 CURVE SMOOTH",
"173 360 LINE"
);
}
);
width = 642;
},
{
hints = (
{
horizontal = 1;
origin = "{0, 9}";
target = "{0, 5}";
type = TTStem;
},
{
horizontal = 1;
origin = "{0, 1}";
target = "{0, 5}";
type = TTStem;
},
{
horizontal = 1;
origin = "{0, 0}";
target = "{0, 10}";
type = Align;
}
);
layerId = "9398AC28-6BE1-4A79-9C94-3CBC2F226CE7";
paths = (
{
closed = 1;
nodes = (
"248 0 LINE",
"248 270 LINE",
"399 270 LINE SMOOTH",
"551 270 OFFCURVE",
"663 354 OFFCURVE",
"663 507 CURVE SMOOTH",
"663 663 OFFCURVE",
"553 745 OFFCURVE",
"399 745 CURVE SMOOTH",
"93 745 LINE",
"93 0 LINE"
);
},
{
closed = 1;
nodes = (
"248 610 LINE",
"400 610 LINE SMOOTH",
"465 610 OFFCURVE",
"508 569 OFFCURVE",
"508 507 CURVE SMOOTH",
"508 446 OFFCURVE",
"465 405 OFFCURVE",
"400 405 CURVE SMOOTH",
"248 405 LINE"
);
}
);
width = 704;
}
);
leftKerningGroup = I;
rightKerningGroup = P;
unicode = 0050;
},
{
glyphname = Q;
lastChange = "2020-01-19 20:05:40 +0000";
layers = (
{
components = (
{
name = O;
transform = "{1, 0, 0, 1, -10, 0}";
}
);
hints = (
{
horizontal = 1;
place = "{722, 57}";
type = TTStem;
},
{
horizontal = 1;
place = "{-12, 57}";
type = TTStem;
},
{
horizontal = 1;
place = "{355, 0}";
type = Align;
},
{
horizontal = 1;
place = "{-120, 0}";
type = Align;
}
);
layerId = "30C2FD74-1A74-41AC-9C29-B288AE1DBDD7";
paths = (
{
closed = 1;
nodes = (
"389 298 LINE",
"628 -130 LINE",
"717 -130 LINE",
"472 298 LINE"
);
}
);
width = 846;
},
{
components = (
{
name = O;
transform = "{1, 0, 0, 1, 12, 0}";
}
);
hints = (
{
horizontal = 1;
place = "{722, 120}";
type = TTStem;
},
{
horizontal = 1;
place = "{-120, 120}";
type = TTStem;
},
{
horizontal = 1;
place = "{355, 0}";
type = Align;
},
{
horizontal = 1;
place = "{-120, 0}";
type = Align;
}
);
layerId = "9398AC28-6BE1-4A79-9C94-3CBC2F226CE7";
paths = (
{
closed = 1;
nodes = (
"380 298 LINE",
"619 -130 LINE",
"783 -130 LINE",
"538 298 LINE"
);
}
);
width = 886;
}
);
leftKerningGroup = O;
rightKerningGroup = O;
unicode = 0051;
},
{
color = 6;
glyphname = Q.ss03;
lastChange = "2020-01-19 20:12:38 +0000";
layers = (
{
components = (
{
name = O;
}
);
hints = (
{
horizontal = 1;
place = "{722, 57}";
type = TTStem;
},
{
horizontal = 1;
place = "{-12, 57}";
type = TTStem;
},
{
horizontal = 1;
place = "{355, 0}";
type = Align;
},
{
horizontal = 1;
place = "{-120, 0}";
type = Align;
}
);
layerId = "30C2FD74-1A74-41AC-9C29-B288AE1DBDD7";
paths = (
{
closed = 1;
nodes = (
"379 -116 OFFCURVE",
"479 -205 OFFCURVE",
"627 -205 CURVE SMOOTH",
"730 -205 LINE",
"730 -135 LINE",
"627 -135 LINE SMOOTH",
"520 -135 OFFCURVE",
"449 -75 OFFCURVE",
"449 16 CURVE SMOOTH",
"449 40 LINE",
"379 40 LINE",
"379 16 LINE SMOOTH"
);
}
);
width = 846;
},
{
components = (
{
name = O;
transform = "{1, 0, 0, 1, -1, 0}";
}
);
hints = (
{
horizontal = 1;
place = "{722, 120}";
type = TTStem;
},
{
horizontal = 1;
place = "{-120, 120}";
type = TTStem;
},
{
horizontal = 1;
place = "{355, 0}";
type = Align;
},
{
horizontal = 1;
place = "{-120, 0}";
type = Align;
}
);
layerId = "9398AC28-6BE1-4A79-9C94-3CBC2F226CE7";
paths = (
{
closed = 1;
nodes = (
"363 -113 OFFCURVE",
"462 -205 OFFCURVE",
"611 -205 CURVE SMOOTH",
"799 -205 LINE",
"799 -75 LINE",
"611 -75 LINE SMOOTH",
"552 -75 OFFCURVE",
"513 -35 OFFCURVE",
"513 26 CURVE SMOOTH",
"513 85 LINE",
"363 85 LINE",
"363 26 LINE SMOOTH"
);
}
);
width = 886;
}
);
leftKerningGroup = O;
rightKerningGroup = O;
},
{
glyphname = R;
lastChange = "2020-01-19 20:05:40 +0000";
layers = (
{
hints = (
{
horizontal = 1;
place = "{710, -57}";
type = TTStem;
},
{
horizontal = 1;
place = "{328, 57}";
type = TTStem;
},
{
horizontal = 1;
place = "{0, 0}";
type = Align;
},
{
horizontal = 1;
place = "{0, 0}";
type = Align;
},
{
horizontal = 1;
place = "{328, 0}";
type = Align;
options = 4;
}
);
layerId = "30C2FD74-1A74-41AC-9C29-B288AE1DBDD7";
paths = (
{
closed = 1;
nodes = (
"173 0 LINE",
"173 290 LINE",
"349 290 LINE SMOOTH",
"502 290 OFFCURVE",
"603 381 OFFCURVE",
"603 517 CURVE SMOOTH",
"603 653 OFFCURVE",
"501 745 OFFCURVE",
"349 745 CURVE SMOOTH",
"93 745 LINE",
"93 0 LINE"
);
},
{
closed = 1;
nodes = (
"173 675 LINE",
"349 675 LINE SMOOTH",
"451 675 OFFCURVE",
"519 612 OFFCURVE",
"519 518 CURVE SMOOTH",
"519 423 OFFCURVE",
"451 360 OFFCURVE",
"349 360 CURVE SMOOTH",
"173 360 LINE"
);
},
{
closed = 1;
nodes = (
"341 332 LINE",
"530 0 LINE",
"624 0 LINE",
"434 332 LINE"
);
}
);
width = 662;
},
{
hints = (
{
horizontal = 1;
place = "{285, 0}";
type = Align;
options = 4;
},
{
horizontal = 1;
place = "{285, 120}";
type = TTStem;
},
{
horizontal = 1;
place = "{710, -120}";
type = TTStem;
},
{
horizontal = 1;
place = "{0, 0}";
type = Align;
},
{
horizontal = 1;
place = "{0, 0}";
type = Align;
}
);
layerId = "9398AC28-6BE1-4A79-9C94-3CBC2F226CE7";
paths = (
{
closed = 1;
nodes = (
"248 0 LINE",
"248 270 LINE",
"399 270 LINE SMOOTH",
"551 270 OFFCURVE",
"663 354 OFFCURVE",
"663 507 CURVE SMOOTH",
"663 663 OFFCURVE",
"553 745 OFFCURVE",
"399 745 CURVE SMOOTH",
"93 745 LINE",
"93 0 LINE"
);
},
{
closed = 1;
nodes = (
"248 610 LINE",
"400 610 LINE SMOOTH",
"465 610 OFFCURVE",
"508 569 OFFCURVE",
"508 507 CURVE SMOOTH",
"508 446 OFFCURVE",
"465 405 OFFCURVE",
"400 405 CURVE SMOOTH",
"248 405 LINE"
);
},
{
closed = 1;
nodes = (
"337 344 LINE",
"530 0 LINE",
"704 0 LINE",
"507 344 LINE"
);
}
);
width = 735;
},
{
anchors = (
{
name = bottom;
position = "{319, 0}";
},
{
name = top;
position = "{319, 710}";
}
);
associatedMasterId = "30C2FD74-1A74-41AC-9C29-B288AE1DBDD7";
layerId = "723BE513-14A0-4FB7-AA93-1262BD5DF1D2";
name = "Feb 22 18, 22:49";
paths = (
{
closed = 1;
nodes = (
"577 0 LINE",
"433 353 LINE",
"365 353 LINE",
"509 0 LINE"
);
},
{
closed = 1;
nodes = (
"165 0 LINE",
"165 328 LINE",
"366 328 LINE SMOOTH",
"487 328 OFFCURVE",
"568 404 OFFCURVE",
"568 519 CURVE SMOOTH",
"568 634 OFFCURVE",
"487 710 OFFCURVE",
"366 710 CURVE SMOOTH",
"105 710 LINE",
"105 0 LINE"
);
},
{
closed = 1;
nodes = (
"165 653 LINE",
"364 653 LINE SMOOTH",
"450 653 OFFCURVE",
"508 599 OFFCURVE",
"508 519 CURVE SMOOTH",
"508 439 OFFCURVE",
"450 385 OFFCURVE",
"364 385 CURVE SMOOTH",
"165 385 LINE"
);
}
);
width = 636;
},
{
anchors = (
{
name = bottom;
position = "{344, 0}";
},
{
name = top;
position = "{344, 710}";
}
);
associatedMasterId = "30C2FD74-1A74-41AC-9C29-B288AE1DBDD7";
hints = (
{
horizontal = 1;
origin = "{0, 18}";
target = "{1, 0}";
type = TTStem;
},
{
horizontal = 1;
origin = "{0, 1}";
target = "{1, 8}";
type = TTStem;
},
{
horizontal = 1;
origin = "{0, 6}";
target = "{0, 7}";
type = Align;
},
{
horizontal = 1;
origin = "{0, 0}";
target = "{0, 19}";
type = Align;
},
{
horizontal = 1;
origin = "{0, 1}";
target = "{0, 2}";
type = Align;
options = 4;
}
);
layerId = "F945F689-B314-4005-A004-A836E0DD04E2";
name = "Sep 4 18, 14:23";
paths = (
{
closed = 1;
nodes = (
"172 0 LINE",
"172 328 LINE",
"413 328 LINE SMOOTH",
"463 328 OFFCURVE",
"497 298 OFFCURVE",
"497 254 CURVE SMOOTH",
"497 0 LINE",
"557 0 LINE",
"557 254 LINE SMOOTH",
"557 303 OFFCURVE",
"535 341 OFFCURVE",
"498 363 CURVE",
"547 397 OFFCURVE",
"575 451 OFFCURVE",
"575 519 CURVE SMOOTH",
"575 634 OFFCURVE",
"494 710 OFFCURVE",
"373 710 CURVE SMOOTH",
"112 710 LINE",
"112 0 LINE"
);
},
{
closed = 1;
nodes = (
"172 653 LINE",
"371 653 LINE SMOOTH",
"457 653 OFFCURVE",
"515 599 OFFCURVE",
"515 519 CURVE SMOOTH",
"515 439 OFFCURVE",
"457 385 OFFCURVE",
"371 385 CURVE SMOOTH",
"172 385 LINE"
);
}
);
width = 662;
},
{
associatedMasterId = "9398AC28-6BE1-4A79-9C94-3CBC2F226CE7";
hints = (
{
horizontal = 1;
place = "{285, 0}";
type = Align;
options = 4;
},
{
horizontal = 1;
place = "{285, 120}";
type = TTStem;
},
{
horizontal = 1;
place = "{710, -120}";
type = TTStem;
},
{
horizontal = 1;
place = "{0, 0}";
type = Align;
},
{
horizontal = 1;
place = "{0, 0}";
type = Align;
}
);
layerId = "08AE2C19-0347-43A0-8034-DE86F083F116";
name = base;
paths = (
{
closed = 1;
nodes = (
"248 0 LINE",
"248 270 LINE",
"399 270 LINE SMOOTH",
"551 270 OFFCURVE",
"663 354 OFFCURVE",
"663 507 CURVE SMOOTH",
"663 663 OFFCURVE",
"553 745 OFFCURVE",
"399 745 CURVE SMOOTH",
"93 745 LINE",
"93 0 LINE"
);
},
{
closed = 1;
nodes = (
"248 610 LINE",
"400 610 LINE SMOOTH",
"465 610 OFFCURVE",
"508 569 OFFCURVE",
"508 507 CURVE SMOOTH",
"508 446 OFFCURVE",
"465 405 OFFCURVE",
"400 405 CURVE SMOOTH",
"248 405 LINE"
);
},
{
closed = 1;
nodes = (
"337 344 LINE",
"530 0 LINE",
"704 0 LINE",
"507 344 LINE"
);
}
);
width = 735;
}
);
leftKerningGroup = I;
rightKerningGroup = R;
unicode = 0052;
},
{
color = 6;
glyphname = R.ss03;
lastChange = "2020-01-19 20:13:45 +0000";
layers = (
{
hints = (
{
horizontal = 1;
place = "{328, 0}";
type = Align;
options = 4;
},
{
horizontal = 1;
place = "{328, 57}";
type = TTStem;
},
{
horizontal = 1;
place = "{710, -57}";
type = TTStem;
},
{
horizontal = 1;
place = "{0, 0}";
type = Align;
},
{
horizontal = 1;
place = "{0, 0}";
type = Align;
}
);
layerId = "30C2FD74-1A74-41AC-9C29-B288AE1DBDD7";
paths = (
{
closed = 1;
nodes = (
"173 0 LINE",
"173 290 LINE",
"428 290 LINE SMOOTH",
"488 290 OFFCURVE",
"513 262 OFFCURVE",
"513 196 CURVE SMOOTH",
"513 0 LINE",
"593 0 LINE",
"593 206 LINE SMOOTH",
"593 292 OFFCURVE",
"563 324 OFFCURVE",
"478 338 CURVE",
"478 328 LINE",
"566 372 OFFCURVE",
"603 428 OFFCURVE",
"603 517 CURVE SMOOTH",
"603 652 OFFCURVE",
"499 745 OFFCURVE",
"349 745 CURVE SMOOTH",
"93 745 LINE",
"93 0 LINE"
);
},
{
closed = 1;
nodes = (
"173 675 LINE",
"349 675 LINE SMOOTH",
"451 675 OFFCURVE",
"519 612 OFFCURVE",
"519 518 CURVE SMOOTH",
"519 423 OFFCURVE",
"451 360 OFFCURVE",
"349 360 CURVE SMOOTH",
"173 360 LINE"
);
}
);
width = 671;
},
{
hints = (
{
horizontal = 1;
place = "{710, -120}";
type = TTStem;
},
{
horizontal = 1;
place = "{285, 120}";
type = TTStem;
},
{
horizontal = 1;
place = "{0, 0}";
type = Align;
},
{
horizontal = 1;
place = "{285, 0}";
type = Align;
options = 4;
},
{
horizontal = 1;
place = "{0, 0}";
type = Align;
}
);
layerId = "9398AC28-6BE1-4A79-9C94-3CBC2F226CE7";
paths = (
{
closed = 1;
nodes = (
"248 0 LINE",
"248 270 LINE",
"429 270 LINE SMOOTH",
"478 270 OFFCURVE",
"503 245 OFFCURVE",
"503 198 CURVE SMOOTH",
"503 0 LINE",
"663 0 LINE",
"663 178 LINE SMOOTH",
"663 283 OFFCURVE",
"629 329 OFFCURVE",
"553 352 CURVE",
"564 307 LINE",
"621 346 OFFCURVE",
"663 413 OFFCURVE",
"663 507 CURVE SMOOTH",
"663 663 OFFCURVE",
"553 745 OFFCURVE",
"399 745 CURVE SMOOTH",
"93 745 LINE",
"93 0 LINE"
);
},
{
closed = 1;
nodes = (
"248 610 LINE",
"400 610 LINE SMOOTH",
"465 610 OFFCURVE",
"508 569 OFFCURVE",
"508 507 CURVE SMOOTH",
"508 446 OFFCURVE",
"465 405 OFFCURVE",
"400 405 CURVE SMOOTH",
"248 405 LINE"
);
}
);
width = 736;
},
{
anchors = (
{
name = bottom;
position = "{315, 0}";
},
{
name = top;
position = "{315, 710}";
}
);
associatedMasterId = "9398AC28-6BE1-4A79-9C94-3CBC2F226CE7";
layerId = "DB9D99D5-224D-4509-8EB0-0AF4590E5EFC";
name = "Feb 22 18, 22:44";
paths = (
{
closed = 1;
nodes = (
"482 306 LINE",
"341 306 LINE",
"466 0 LINE",
"606 0 LINE"
);
},
{
closed = 1;
nodes = (
"210 0 LINE",
"210 285 LINE",
"365 285 LINE SMOOTH",
"516 285 OFFCURVE",
"600 370 OFFCURVE",
"600 497 CURVE SMOOTH",
"600 625 OFFCURVE",
"519 710 OFFCURVE",
"365 710 CURVE SMOOTH",
"75 710 LINE",
"75 0 LINE"
);
},
{
closed = 1;
nodes = (
"210 590 LINE",
"365 590 LINE SMOOTH",
"425 590 OFFCURVE",
"465 553 OFFCURVE",
"465 498 CURVE SMOOTH",
"465 442 OFFCURVE",
"425 405 OFFCURVE",
"365 405 CURVE SMOOTH",
"210 405 LINE"
);
}
);
width = 634;
},
{
anchors = (
{
name = bottom;
position = "{319, 0}";
},
{
name = top;
position = "{319, 710}";
}
);
associatedMasterId = "30C2FD74-1A74-41AC-9C29-B288AE1DBDD7";
layerId = "723BE513-14A0-4FB7-AA93-1262BD5DF1D2";
name = "Feb 22 18, 22:49";
paths = (
{
closed = 1;
nodes = (
"577 0 LINE",
"433 353 LINE",
"371 353 LINE",
"515 0 LINE"
);
},
{
closed = 1;
nodes = (
"165 0 LINE",
"165 328 LINE",
"366 328 LINE SMOOTH",
"487 328 OFFCURVE",
"568 404 OFFCURVE",
"568 519 CURVE SMOOTH",
"568 634 OFFCURVE",
"487 710 OFFCURVE",
"366 710 CURVE SMOOTH",
"105 710 LINE",
"105 0 LINE"
);
},
{
closed = 1;
nodes = (
"165 653 LINE",
"364 653 LINE SMOOTH",
"450 653 OFFCURVE",
"508 599 OFFCURVE",
"508 519 CURVE SMOOTH",
"508 439 OFFCURVE",
"450 385 OFFCURVE",
"364 385 CURVE SMOOTH",
"165 385 LINE"
);
}
);
width = 636;
}
);
leftKerningGroup = I;
rightKerningGroup = R;
},
{
glyphname = S;
lastChange = "2020-01-19 20:05:40 +0000";
layers = (
{
hints = (
{
horizontal = 1;
place = "{722, -57}";
type = TTStem;
options = 128;
},
{
horizontal = 1;
place = "{332, 50}";
type = TTStem;
options = 128;
},
{
horizontal = 1;
place = "{-12, 57}";
type = TTStem;
options = 128;
}
);
layerId = "30C2FD74-1A74-41AC-9C29-B288AE1DBDD7";
paths = (
{
closed = 1;
nodes = (
"473 -12 OFFCURVE",
"573 71 OFFCURVE",
"573 191 CURVE SMOOTH",
"573 290 OFFCURVE",
"512 353 OFFCURVE",
"391 389 CURVE SMOOTH",
"262 427 LINE SMOOTH",
"183 450 OFFCURVE",
"140 498 OFFCURVE",
"140 561 CURVE SMOOTH",
"140 637 OFFCURVE",
"203 687 OFFCURVE",
"298 687 CURVE SMOOTH",
"392 687 OFFCURVE",
"462 638 OFFCURVE",
"494 546 CURVE",
"566 579 LINE",
"533 676 OFFCURVE",
"433 757 OFFCURVE",
"297 757 CURVE SMOOTH",
"159 757 OFFCURVE",
"60 673 OFFCURVE",
"60 555 CURVE SMOOTH",
"60 463 OFFCURVE",
"120 389 OFFCURVE",
"237 355 CURVE SMOOTH",
"373 315 LINE SMOOTH",
"459 289 OFFCURVE",
"493 249 OFFCURVE",
"493 184 CURVE SMOOTH",
"493 109 OFFCURVE",
"426 58 OFFCURVE",
"328 58 CURVE SMOOTH",
"223 58 OFFCURVE",
"145 114 OFFCURVE",
"110 219 CURVE",
"38 188 LINE",
"73 78 OFFCURVE",
"182 -12 OFFCURVE",
"328 -12 CURVE SMOOTH"
);
}
);
width = 617;
},
{
hints = (
{
horizontal = 1;
place = "{722, -120}";
type = TTStem;
options = 128;
},
{
horizontal = 1;
place = "{300, 110}";
type = TTStem;
options = 128;
},
{
horizontal = 1;
place = "{-12, 120}";
type = TTStem;
options = 128;
}
);
layerId = "9398AC28-6BE1-4A79-9C94-3CBC2F226CE7";
paths = (
{
closed = 1;
nodes = (
"530 -12 OFFCURVE",
"640 77 OFFCURVE",
"640 211 CURVE SMOOTH",
"640 313 OFFCURVE",
"577 380 OFFCURVE",
"452 419 CURVE SMOOTH",
"304 465 LINE SMOOTH",
"256 480 OFFCURVE",
"230 506 OFFCURVE",
"230 541 CURVE SMOOTH",
"230 587 OFFCURVE",
"275 622 OFFCURVE",
"343 622 CURVE SMOOTH",
"423 622 OFFCURVE",
"483 578 OFFCURVE",
"508 507 CURVE",
"638 568 LINE",
"598 678 OFFCURVE",
"486 757 OFFCURVE",
"343 757 CURVE SMOOTH",
"182 757 OFFCURVE",
"75 668 OFFCURVE",
"75 535 CURVE SMOOTH",
"75 433 OFFCURVE",
"137 363 OFFCURVE",
"262 324 CURVE SMOOTH",
"414 276 LINE SMOOTH",
"465 260 OFFCURVE",
"485 236 OFFCURVE",
"485 202 CURVE SMOOTH",
"485 158 OFFCURVE",
"440 123 OFFCURVE",
"364 123 CURVE SMOOTH",
"290 123 OFFCURVE",
"215 171 OFFCURVE",
"179 258 CURVE",
"49 197 LINE",
"90 71 OFFCURVE",
"216 -12 OFFCURVE",
"364 -12 CURVE SMOOTH"
);
}
);
width = 681;
},
{
anchors = (
{
name = bottom;
position = "{289, 0}";
},
{
name = top;
position = "{289, 710}";
}
);
associatedMasterId = "30C2FD74-1A74-41AC-9C29-B288AE1DBDD7";
layerId = "110A3D75-3E06-45B6-B53A-5BDB4D704410";
name = "Feb 22 18, 22:53";
paths = (
{
closed = 1;
nodes = (
"428 -12 OFFCURVE",
"519 65 OFFCURVE",
"519 185 CURVE SMOOTH",
"519 444 OFFCURVE",
"120 326 OFFCURVE",
"120 530 CURVE SMOOTH",
"120 603 OFFCURVE",
"181 664 OFFCURVE",
"279 664 CURVE SMOOTH",
"341 664 OFFCURVE",
"389 639 OFFCURVE",
"415 603 CURVE",
"462 641 LINE",
"425 691 OFFCURVE",
"361 721 OFFCURVE",
"279 721 CURVE SMOOTH",
"146 721 OFFCURVE",
"60 643 OFFCURVE",
"60 525 CURVE SMOOTH",
"60 270 OFFCURVE",
"459 379 OFFCURVE",
"459 182 CURVE SMOOTH",
"459 104 OFFCURVE",
"391 45 OFFCURVE",
"289 45 CURVE SMOOTH",
"212 45 OFFCURVE",
"140 82 OFFCURVE",
"103 136 CURVE",
"56 98 LINE",
"100 32 OFFCURVE",
"194 -12 OFFCURVE",
"289 -12 CURVE SMOOTH"
);
}
);
width = 569;
},
{
associatedMasterId = "9398AC28-6BE1-4A79-9C94-3CBC2F226CE7";
hints = (
{
horizontal = 1;
place = "{722, -120}";
type = TTStem;
options = 128;
},
{
horizontal = 1;
place = "{300, 110}";
type = TTStem;
options = 128;
},
{
horizontal = 1;
place = "{-12, 120}";
type = TTStem;
options = 128;
}
);
layerId = "A28B7E07-7EA8-4E53-9FA7-5A800C8F5007";
name = base;
paths = (
{
closed = 1;
nodes = (
"530 -12 OFFCURVE",
"640 77 OFFCURVE",
"640 211 CURVE SMOOTH",
"640 313 OFFCURVE",
"577 380 OFFCURVE",
"452 419 CURVE SMOOTH",
"304 465 LINE SMOOTH",
"256 480 OFFCURVE",
"230 506 OFFCURVE",
"230 541 CURVE SMOOTH",
"230 587 OFFCURVE",
"275 617 OFFCURVE",
"343 617 CURVE",
"343 757 LINE",
"182 757 OFFCURVE",
"75 668 OFFCURVE",
"75 535 CURVE SMOOTH",
"75 433 OFFCURVE",
"137 363 OFFCURVE",
"262 324 CURVE SMOOTH",
"414 276 LINE SMOOTH",
"459 262 OFFCURVE",
"485 233 OFFCURVE",
"485 199 CURVE SMOOTH",
"485 155 OFFCURVE",
"440 128 OFFCURVE",
"364 128 CURVE",
"364 -12 LINE"
);
},
{
closed = 1;
nodes = (
"343 617 LINE",
"423 617 OFFCURVE",
"483 578 OFFCURVE",
"508 507 CURVE",
"638 568 LINE",
"598 678 OFFCURVE",
"486 757 OFFCURVE",
"343 757 CURVE"
);
},
{
closed = 1;
nodes = (
"364 128 LINE",
"290 128 OFFCURVE",
"205 171 OFFCURVE",
"179 258 CURVE",
"49 197 LINE",
"90 71 OFFCURVE",
"216 -12 OFFCURVE",
"364 -12 CURVE"
);
}
);
width = 681;
}
);
leftKerningGroup = S;
rightKerningGroup = S;
unicode = 0053;
},
{
glyphname = T;
lastChange = "2020-01-19 20:05:40 +0000";
layers = (
{
hints = (
{
horizontal = 1;
place = "{710, 54}";
type = TTStem;
},
{
horizontal = 1;
place = "{656, 0}";
type = Align;
},
{
horizontal = 1;
place = "{0, 0}";
type = Align;
}
);
layerId = "30C2FD74-1A74-41AC-9C29-B288AE1DBDD7";
paths = (
{
closed = 1;
nodes = (
"311 0 LINE",
"311 675 LINE",
"516 675 LINE",
"516 745 LINE",
"25 745 LINE",
"25 675 LINE",
"231 675 LINE",
"231 0 LINE"
);
}
);
width = 541;
},
{
hints = (
{
horizontal = 1;
place = "{745, 130}";
type = TTStem;
},
{
horizontal = 1;
place = "{615, 0}";
type = Align;
options = 4;
},
{
horizontal = 1;
place = "{0, 0}";
type = TTStem;
}
);
layerId = "9398AC28-6BE1-4A79-9C94-3CBC2F226CE7";
paths = (
{
closed = 1;
nodes = (
"375 0 LINE",
"375 610 LINE",
"562 610 LINE",
"562 745 LINE",
"31 745 LINE",
"31 610 LINE",
"220 610 LINE",
"220 0 LINE"
);
}
);
width = 593;
}
);
leftKerningGroup = T;
rightKerningGroup = T;
unicode = 0054;
},
{
glyphname = U;
lastChange = "2020-01-19 20:05:40 +0000";
layers = (
{
anchors = (
{
name = bottom;
position = "{321, 0}";
},
{
name = top;
position = "{321, 710}";
}
);
hints = (
{
horizontal = 1;
place = "{710, 0}";
type = Align;
},
{
horizontal = 1;
place = "{710, 0}";
type = Align;
},
{
horizontal = 1;
place = "{-12, 57}";
type = TTStem;
}
);
layerId = "30C2FD74-1A74-41AC-9C29-B288AE1DBDD7";
paths = (
{
closed = 1;
nodes = (
"538 233 LINE SMOOTH",
"538 133 OFFCURVE",
"458 58 OFFCURVE",
"354 58 CURVE SMOOTH",
"249 58 OFFCURVE",
"170 132 OFFCURVE",
"170 233 CURVE SMOOTH",
"170 745 LINE",
"89 745 LINE",
"89 233 LINE SMOOTH",
"89 84 OFFCURVE",
"193 -12 OFFCURVE",
"354 -12 CURVE SMOOTH",
"515 -12 OFFCURVE",
"619 85 OFFCURVE",
"619 233 CURVE SMOOTH",
"619 745 LINE",
"538 745 LINE"
);
}
);
width = 708;
},
{
anchors = (
{
name = bottom;
position = "{387, 0}";
},
{
name = top;
position = "{387, 710}";
}
);
hints = (
{
horizontal = 1;
origin = "{0, 7}";
target = "{0, 8}";
type = Align;
},
{
horizontal = 1;
origin = "{0, 16}";
target = "{0, 17}";
type = Align;
},
{
horizontal = 1;
origin = "{0, 12}";
target = "{0, 3}";
type = TTStem;
}
);
layerId = "9398AC28-6BE1-4A79-9C94-3CBC2F226CE7";
paths = (
{
closed = 1;
nodes = (
"541 283 LINE SMOOTH",
"541 190 OFFCURVE",
"481 128 OFFCURVE",
"391 128 CURVE SMOOTH",
"301 128 OFFCURVE",
"241 190 OFFCURVE",
"241 283 CURVE SMOOTH",
"241 745 LINE",
"86 745 LINE",
"86 283 LINE SMOOTH",
"86 116 OFFCURVE",
"208 -12 OFFCURVE",
"391 -12 CURVE SMOOTH",
"574 -12 OFFCURVE",
"696 116 OFFCURVE",
"696 283 CURVE SMOOTH",
"696 745 LINE",
"541 745 LINE"
);
}
);
width = 782;
}
);
leftKerningGroup = U;
rightKerningGroup = U;
unicode = 0055;
},
{
color = 1;
glyphname = U.ss01;
lastChange = "2020-01-19 20:06:34 +0000";
layers = (
{
anchors = (
{
name = bottom;
position = "{314, 0}";
},
{
name = top;
position = "{314, 710}";
}
);
hints = (
{
horizontal = 1;
place = "{710, 0}";
type = Align;
},
{
horizontal = 1;
place = "{710, 0}";
type = Align;
},
{
horizontal = 1;
place = "{-12, 57}";
type = TTStem;
}
);
layerId = "30C2FD74-1A74-41AC-9C29-B288AE1DBDD7";
paths = (
{
closed = 1;
nodes = (
"593 0 LINE",
"593 745 LINE",
"513 745 LINE",
"513 70 LINE",
"173 70 LINE",
"173 745 LINE",
"93 745 LINE",
"93 0 LINE"
);
}
);
width = 686;
},
{
anchors = (
{
name = bottom;
position = "{383, 0}";
},
{
name = top;
position = "{383, 710}";
}
);
hints = (
{
horizontal = 1;
origin = "{0, 5}";
target = "{0, 6}";
type = Align;
},
{
horizontal = 1;
origin = "{0, 1}";
target = "{0, 2}";
type = Align;
},
{
horizontal = 1;
place = "{-12, 130}";
type = TTStem;
}
);
layerId = "9398AC28-6BE1-4A79-9C94-3CBC2F226CE7";
paths = (
{
closed = 1;
nodes = (
"673 0 LINE",
"673 745 LINE",
"518 745 LINE",
"518 135 LINE",
"248 135 LINE",
"248 745 LINE",
"93 745 LINE",
"93 0 LINE"
);
}
);
width = 766;
}
);
leftKerningGroup = U;
rightKerningGroup = U;
},
{
glyphname = V;
lastChange = "2020-01-19 20:05:40 +0000";
layers = (
{
hints = (
{
horizontal = 1;
place = "{745, 0}";
type = Align;
},
{
horizontal = 1;
place = "{745, 0}";
type = Align;
},
{
horizontal = 1;
place = "{0, 86}";
type = Align;
},
{
horizontal = 1;
place = "{86, 86}";
type = TTStem;
}
);
layerId = "30C2FD74-1A74-41AC-9C29-B288AE1DBDD7";
paths = (
{
closed = 1;
nodes = (
"384 0 LINE",
"658 745 LINE",
"574 745 LINE",
"333 69 LINE",
"351 69 LINE",
"109 745 LINE",
"25 745 LINE",
"299 0 LINE"
);
}
);
width = 683;
},
{
hints = (
{
horizontal = 1;
place = "{710, 0}";
type = Align;
},
{
horizontal = 1;
place = "{710, 0}";
type = Align;
},
{
horizontal = 1;
place = "{0, 242}";
type = Align;
options = 4;
},
{
horizontal = 1;
place = "{242, 242}";
type = TTStem;
}
);
layerId = "9398AC28-6BE1-4A79-9C94-3CBC2F226CE7";
paths = (
{
closed = 1;
nodes = (
"483 0 LINE",
"717 745 LINE",
"543 745 LINE",
"351 97 LINE",
"393 97 LINE",
"201 745 LINE",
"27 745 LINE",
"261 0 LINE"
);
}
);
width = 744;
},
{
associatedMasterId = "9398AC28-6BE1-4A79-9C94-3CBC2F226CE7";
hints = (
{
horizontal = 1;
place = "{710, 0}";
type = Align;
},
{
horizontal = 1;
place = "{710, 0}";
type = Align;
},
{
horizontal = 1;
place = "{0, 242}";
type = Align;
options = 4;
},
{
horizontal = 1;
place = "{242, 242}";
type = TTStem;
}
);
layerId = "DF9FF616-0AA3-4E7E-89A0-EFF3BFC2AC7F";
name = "Jan 18 20, 20:56";
paths = (
{
closed = 1;
nodes = (
"483 0 LINE",
"717 745 LINE",
"543 745 LINE",
"319 0 LINE"
);
},
{
closed = 1;
nodes = (
"425 0 LINE",
"201 745 LINE",
"27 745 LINE",
"261 0 LINE"
);
}
);
width = 744;
},
{
associatedMasterId = "30C2FD74-1A74-41AC-9C29-B288AE1DBDD7";
hints = (
{
horizontal = 1;
place = "{745, 0}";
type = Align;
},
{
horizontal = 1;
place = "{745, 0}";
type = Align;
},
{
horizontal = 1;
place = "{0, 86}";
type = Align;
},
{
horizontal = 1;
place = "{86, 86}";
type = TTStem;
}
);
layerId = "808D7485-75B4-4178-A457-5455CD9BAE66";
name = "Jan 18 20, 20:56";
paths = (
{
closed = 1;
nodes = (
"384 0 LINE",
"658 745 LINE",
"574 745 LINE",
"310 0 LINE"
);
},
{
closed = 1;
nodes = (
"373 0 LINE",
"109 745 LINE",
"25 745 LINE",
"299 0 LINE"
);
}
);
width = 683;
}
);
unicode = 0056;
},
{
glyphname = W;
lastChange = "2020-01-19 20:05:40 +0000";
layers = (
{
hints = (
{
horizontal = 1;
place = "{710, 0}";
type = Align;
},
{
horizontal = 1;
place = "{710, 0}";
type = Align;
},
{
horizontal = 1;
place = "{710, 0}";
type = Align;
},
{
horizontal = 1;
place = "{710, 106}";
type = Align;
options = 4;
},
{
horizontal = 1;
place = "{0, 96}";
type = Align;
options = 4;
},
{
horizontal = 1;
place = "{0, 96}";
type = Align;
options = 4;
},
{
horizontal = 1;
place = "{96, 96}";
type = TTStem;
},
{
horizontal = 1;
place = "{96, 96}";
type = TTStem;
}
);
layerId = "30C2FD74-1A74-41AC-9C29-B288AE1DBDD7";
paths = (
{
closed = 1;
nodes = (
"327 0 LINE",
"516 670 LINE",
"502 670 LINE",
"691 0 LINE",
"776 0 LINE",
"990 745 LINE",
"909 745 LINE",
"723 78 LINE",
"740 78 LINE",
"557 745 LINE",
"461 745 LINE",
"278 78 LINE",
"294 78 LINE",
"109 745 LINE",
"28 745 LINE",
"242 0 LINE"
);
}
);
width = 1018;
},
{
hints = (
{
horizontal = 1;
place = "{710, 0}";
type = Align;
},
{
horizontal = 1;
place = "{710, 0}";
type = Align;
},
{
horizontal = 1;
place = "{710, 239}";
type = Align;
options = 4;
},
{
horizontal = 1;
place = "{710, 0}";
type = Align;
},
{
horizontal = 1;
place = "{0, 272}";
type = Align;
options = 4;
},
{
horizontal = 1;
place = "{0, 272}";
type = Align;
options = 4;
},
{
horizontal = 1;
place = "{272, 272}";
type = TTStem;
},
{
horizontal = 1;
place = "{272, 272}";
type = TTStem;
}
);
layerId = "9398AC28-6BE1-4A79-9C94-3CBC2F226CE7";
paths = (
{
closed = 1;
nodes = (
"416 0 LINE",
"551 600 LINE",
"519 600 LINE",
"654 0 LINE",
"856 0 LINE",
"1040 745 LINE",
"881 745 LINE",
"734 121 LINE",
"772 121 LINE",
"634 745 LINE",
"446 745 LINE",
"308 121 LINE",
"346 121 LINE",
"199 745 LINE",
"30 745 LINE",
"214 0 LINE"
);
}
);
width = 1070;
},
{
associatedMasterId = "9398AC28-6BE1-4A79-9C94-3CBC2F226CE7";
hints = (
{
horizontal = 1;
place = "{710, 0}";
type = Align;
},
{
horizontal = 1;
place = "{710, 0}";
type = Align;
},
{
horizontal = 1;
place = "{710, 239}";
type = Align;
options = 4;
},
{
horizontal = 1;
place = "{710, 0}";
type = Align;
},
{
horizontal = 1;
place = "{0, 272}";
type = Align;
options = 4;
},
{
horizontal = 1;
place = "{0, 272}";
type = Align;
options = 4;
},
{
horizontal = 1;
place = "{272, 272}";
type = TTStem;
},
{
horizontal = 1;
place = "{272, 272}";
type = TTStem;
}
);
layerId = "72E451FE-2ED9-4070-BFAB-72FCA66EA262";
name = base;
paths = (
{
closed = 1;
nodes = (
"378 0 LINE",
"194 745 LINE",
"30 745 LINE",
"214 0 LINE"
);
},
{
closed = 1;
nodes = (
"416 0 LINE",
"590 745 LINE",
"446 745 LINE",
"272 0 LINE"
);
},
{
closed = 1;
nodes = (
"808 0 LINE",
"634 745 LINE",
"480 745 LINE",
"654 0 LINE"
);
},
{
closed = 1;
nodes = (
"856 0 LINE",
"1040 745 LINE",
"886 745 LINE",
"702 0 LINE"
);
}
);
width = 1070;
},
{
associatedMasterId = "30C2FD74-1A74-41AC-9C29-B288AE1DBDD7";
hints = (
{
horizontal = 1;
place = "{710, 0}";
type = Align;
},
{
horizontal = 1;
place = "{710, 0}";
type = Align;
},
{
horizontal = 1;
place = "{710, 0}";
type = Align;
},
{
horizontal = 1;
place = "{710, 106}";
type = Align;
options = 4;
},
{
horizontal = 1;
place = "{0, 96}";
type = Align;
options = 4;
},
{
horizontal = 1;
place = "{0, 96}";
type = Align;
options = 4;
},
{
horizontal = 1;
place = "{96, 96}";
type = TTStem;
},
{
horizontal = 1;
place = "{96, 96}";
type = TTStem;
}
);
layerId = "9C389B9E-5284-49AF-9B06-6B5D51AFC0C0";
name = base;
paths = (
{
closed = 1;
nodes = (
"316 0 LINE",
"112 745 LINE",
"28 745 LINE",
"242 0 LINE"
);
},
{
closed = 1;
nodes = (
"327 0 LINE",
"541 745 LINE",
"461 745 LINE",
"253 0 LINE"
);
},
{
closed = 1;
nodes = (
"765 0 LINE",
"557 745 LINE",
"477 745 LINE",
"691 0 LINE"
);
},
{
closed = 1;
nodes = (
"776 0 LINE",
"990 745 LINE",
"906 745 LINE",
"702 0 LINE"
);
}
);
width = 1018;
}
);
leftKerningGroup = W;
rightKerningGroup = W;
unicode = 0057;
},
{
glyphname = X;
lastChange = "2020-01-19 20:05:40 +0000";
layers = (
{
hints = (
{
horizontal = 1;
origin = "{0, 8}";
target = "{0, 9}";
type = Align;
},
{
horizontal = 1;
origin = "{0, 0}";
target = "{0, 11}";
type = Align;
},
{
horizontal = 1;
origin = "{0, 2}";
target = "{0, 3}";
type = Align;
},
{
horizontal = 1;
origin = "{0, 5}";
target = "{0, 6}";
type = Align;
}
);
layerId = "30C2FD74-1A74-41AC-9C29-B288AE1DBDD7";
paths = (
{
closed = 1;
nodes = (
"113 0 LINE",
"319 332 LINE",
"291 332 LINE",
"495 0 LINE",
"583 0 LINE",
"348 380 LINE",
"575 745 LINE",
"486 745 LINE",
"291 427 LINE",
"319 427 LINE",
"123 745 LINE",
"34 745 LINE",
"260 380 LINE",
"26 0 LINE"
);
}
);
width = 609;
},
{
hints = (
{
horizontal = 1;
origin = "{0, 6}";
target = "{0, 6}";
type = Align;
},
{
horizontal = 1;
origin = "{0, 0}";
target = "{0, 11}";
type = Align;
},
{
horizontal = 1;
origin = "{0, 0}";
target = "{0, 0}";
type = Align;
},
{
horizontal = 1;
origin = "{0, 5}";
target = "{0, 6}";
type = Align;
}
);
layerId = "9398AC28-6BE1-4A79-9C94-3CBC2F226CE7";
paths = (
{
closed = 1;
nodes = (
"200 0 LINE",
"391 298 LINE",
"313 298 LINE",
"503 0 LINE",
"677 0 LINE",
"439 373 LINE",
"677 745 LINE",
"503 745 LINE",
"313 447 LINE",
"391 447 LINE",
"200 745 LINE",
"26 745 LINE",
"265 373 LINE",
"26 0 LINE"
);
}
);
width = 703;
}
);
unicode = 0058;
},
{
glyphname = Y;
lastChange = "2020-01-19 20:05:40 +0000";
layers = (
{
hints = (
{
horizontal = 1;
place = "{745, 0}";
type = Align;
},
{
horizontal = 1;
place = "{745, 0}";
type = Align;
},
{
horizontal = 1;
place = "{346, 54}";
type = TTStem;
},
{
horizontal = 1;
place = "{346, 0}";
type = Align;
},
{
horizontal = 1;
place = "{0, 0}";
type = Align;
}
);
layerId = "30C2FD74-1A74-41AC-9C29-B288AE1DBDD7";
paths = (
{
closed = 1;
nodes = (
"360 0 LINE",
"360 346 LINE",
"620 745 LINE",
"532 745 LINE",
"305 397 LINE",
"335 397 LINE",
"107 745 LINE",
"19 745 LINE",
"280 346 LINE",
"280 0 LINE"
);
}
);
width = 639;
},
{
hints = (
{
horizontal = 1;
place = "{320, 128}";
type = TTStem;
},
{
horizontal = 1;
place = "{0, 0}";
type = Align;
},
{
horizontal = 1;
place = "{0, 0}";
type = Align;
},
{
horizontal = 1;
place = "{0, 0}";
type = Align;
},
{
horizontal = 1;
place = "{0, 0}";
type = Align;
}
);
layerId = "9398AC28-6BE1-4A79-9C94-3CBC2F226CE7";
paths = (
{
closed = 1;
nodes = (
"424 0 LINE",
"424 326 LINE",
"671 745 LINE",
"497 745 LINE",
"317 429 LINE",
"375 429 LINE",
"194 745 LINE",
"20 745 LINE",
"269 325 LINE",
"269 0 LINE"
);
}
);
width = 691;
}
);
leftKerningGroup = Y;
rightKerningGroup = Y;
unicode = 0059;
},
{
glyphname = Z;
lastChange = "2020-01-19 20:05:40 +0000";
layers = (
{
anchors = (
{
name = bottom;
position = "{308, 0}";
},
{
name = top;
position = "{308, 710}";
}
);
layerId = "30C2FD74-1A74-41AC-9C29-B288AE1DBDD7";
paths = (
{
closed = 1;
nodes = (
"561 696 LINE",
"561 745 LINE",
"57 745 LINE",
"57 675 LINE",
"459 675 LINE",
"32 49 LINE",
"32 0 LINE",
"570 0 LINE",
"570 70 LINE",
"134 70 LINE"
);
}
);
width = 604;
},
{
anchors = (
{
name = bottom;
position = "{321, 0}";
},
{
name = top;
position = "{321, 710}";
}
);
hints = (
{
horizontal = 1;
origin = "{0, 1}";
target = "{0, 4}";
type = TTStem;
},
{
horizontal = 1;
origin = "{0, 4}";
target = "{0, 0}";
type = Align;
},
{
horizontal = 1;
origin = "{0, 6}";
target = "{0, 9}";
type = TTStem;
},
{
horizontal = 1;
origin = "{0, 9}";
target = "{0, 5}";
type = Align;
}
);
layerId = "9398AC28-6BE1-4A79-9C94-3CBC2F226CE7";
paths = (
{
closed = 1;
nodes = (
"580 620 LINE",
"580 745 LINE",
"65 745 LINE",
"65 610 LINE",
"395 610 LINE",
"45 125 LINE",
"45 0 LINE",
"590 0 LINE",
"590 135 LINE",
"230 135 LINE"
);
}
);
width = 637;
}
);
leftKerningGroup = Z;
rightKerningGroup = Z;
unicode = 005A;
},
{
glyphname = a;
lastChange = "2020-01-19 20:06:55 +0000";
layers = (
{
hints = (
{
horizontal = 1;
place = "{515, 54}";
type = TTStem;
},
{
horizontal = 1;
place = "{-12, 54}";
type = TTStem;
},
{
horizontal = 1;
place = "{0, 38}";
type = TTStem;
},
{
horizontal = 1;
place = "{38, 63}";
type = Align;
},
{
horizontal = 1;
place = "{402, 63}";
type = TTStem;
},
{
horizontal = 1;
place = "{503, 101}";
type = TTStem;
}
);
layerId = "30C2FD74-1A74-41AC-9C29-B288AE1DBDD7";
paths = (
{
closed = 1;
nodes = (
"292 -12 OFFCURVE",
"368 34 OFFCURVE",
"396 98 CURVE",
"388 111 LINE",
"388 0 LINE",
"458 0 LINE",
"458 367 LINE SMOOTH",
"458 475 OFFCURVE",
"376 550 OFFCURVE",
"259 550 CURVE SMOOTH",
"163 550 OFFCURVE",
"81 494 OFFCURVE",
"50 425 CURVE",
"114 390 LINE",
"139 444 OFFCURVE",
"191 480 OFFCURVE",
"259 480 CURVE SMOOTH",
"335 480 OFFCURVE",
"388 435 OFFCURVE",
"388 367 CURVE SMOOTH",
"388 239 LINE SMOOTH",
"388 134 OFFCURVE",
"317 58 OFFCURVE",
"217 58 CURVE SMOOTH",
"148 58 OFFCURVE",
"105 93 OFFCURVE",
"105 149 CURVE SMOOTH",
"105 202 OFFCURVE",
"149 236 OFFCURVE",
"218 252 CURVE SMOOTH",
"403 295 LINE",
"403 356 LINE",
"200 309 LINE SMOOTH",
"93 284 OFFCURVE",
"30 231 OFFCURVE",
"30 150 CURVE SMOOTH",
"30 54 OFFCURVE",
"105 -12 OFFCURVE",
"217 -12 CURVE SMOOTH"
);
}
);
width = 523;
},
{
hints = (
{
horizontal = 1;
place = "{513, 144}";
type = TTStem;
},
{
horizontal = 1;
place = "{0, 144}";
type = TTStem;
},
{
horizontal = 1;
place = "{525, 120}";
type = TTStem;
},
{
horizontal = 1;
place = "{-12, 120}";
type = TTStem;
},
{
horizontal = 1;
place = "{369, 117}";
type = Align;
},
{
horizontal = 1;
place = "{144, 117}";
type = Align;
}
);
layerId = "9398AC28-6BE1-4A79-9C94-3CBC2F226CE7";
paths = (
{
closed = 1;
nodes = (
"281 -12 OFFCURVE",
"339 18 OFFCURVE",
"386 93 CURVE",
"351 86 LINE",
"351 0 LINE",
"491 0 LINE",
"491 354 LINE SMOOTH",
"491 470 OFFCURVE",
"398 550 OFFCURVE",
"261 550 CURVE SMOOTH",
"146 550 OFFCURVE",
"54 493 OFFCURVE",
"23 404 CURVE",
"151 342 LINE",
"167 390 OFFCURVE",
"209 420 OFFCURVE",
"261 420 CURVE SMOOTH",
"309 420 OFFCURVE",
"341 394 OFFCURVE",
"341 354 CURVE SMOOTH",
"341 204 LINE SMOOTH",
"341 145 OFFCURVE",
"290 98 OFFCURVE",
"225 98 CURVE SMOOTH",
"183 98 OFFCURVE",
"158 117 OFFCURVE",
"158 149 CURVE SMOOTH",
"158 175 OFFCURVE",
"175 192 OFFCURVE",
"201 198 CURVE SMOOTH",
"357 233 LINE",
"357 340 LINE",
"175 302 LINE SMOOTH",
"61 278 OFFCURVE",
"3 226 OFFCURVE",
"3 149 CURVE SMOOTH",
"3 53 OFFCURVE",
"83 -12 OFFCURVE",
"201 -12 CURVE SMOOTH"
);
}
);
width = 519;
},
{
anchors = (
{
name = bottom;
position = "{423, 0}";
},
{
name = top;
position = "{327, 518}";
}
);
associatedMasterId = "9398AC28-6BE1-4A79-9C94-3CBC2F226CE7";
layerId = "249C0893-B9D8-4DBA-9321-B2DB658122CF";
name = "Feb 28 18, 01:39";
paths = (
{
closed = 1;
nodes = (
"353 -12 OFFCURVE",
"420 15 OFFCURVE",
"463 56 CURVE",
"463 176 LINE",
"419 131 OFFCURVE",
"364 108 OFFCURVE",
"301 108 CURVE SMOOTH",
"219 108 OFFCURVE",
"156 171 OFFCURVE",
"156 256 CURVE SMOOTH",
"156 341 OFFCURVE",
"219 405 OFFCURVE",
"301 405 CURVE SMOOTH",
"364 405 OFFCURVE",
"419 382 OFFCURVE",
"463 337 CURVE",
"463 457 LINE",
"420 498 OFFCURVE",
"353 525 OFFCURVE",
"284 525 CURVE SMOOTH",
"142 525 OFFCURVE",
"26 408 OFFCURVE",
"26 256 CURVE SMOOTH",
"26 104 OFFCURVE",
"142 -12 OFFCURVE",
"284 -12 CURVE SMOOTH"
);
},
{
closed = 1;
nodes = (
"555 0 LINE",
"555 513 LINE",
"425 513 LINE",
"425 0 LINE"
);
}
);
width = 618;
},
{
anchors = (
{
name = bottom;
position = "{433, 0}";
},
{
name = top;
position = "{274, 518}";
}
);
associatedMasterId = "9398AC28-6BE1-4A79-9C94-3CBC2F226CE7";
hints = (
{
horizontal = 1;
place = "{513, 144}";
type = TTStem;
},
{
horizontal = 1;
place = "{0, 144}";
type = TTStem;
},
{
horizontal = 1;
place = "{525, 120}";
type = TTStem;
},
{
horizontal = 1;
place = "{-12, 120}";
type = TTStem;
},
{
horizontal = 1;
place = "{369, 117}";
type = Align;
},
{
horizontal = 1;
place = "{144, 117}";
type = Align;
}
);
layerId = "CC1CFBBB-9E0B-4FFF-B7D9-0B5E9B93B1A5";
name = "Jul 15 19, 00:00";
paths = (
{
closed = 1;
nodes = (
"285 -12 OFFCURVE",
"336 7 OFFCURVE",
"377 48 CURVE",
"377 0 LINE",
"507 0 LINE",
"507 329 LINE SMOOTH",
"507 451 OFFCURVE",
"417 525 OFFCURVE",
"275 525 CURVE SMOOTH",
"188 525 OFFCURVE",
"118 494 OFFCURVE",
"75 445 CURVE",
"156 356 LINE",
"182 390 OFFCURVE",
"223 410 OFFCURVE",
"275 410 CURVE SMOOTH",
"324 410 OFFCURVE",
"377 397 OFFCURVE",
"377 329 CURVE SMOOTH",
"377 319 LINE",
"292 317 OFFCURVE",
"226 307 OFFCURVE",
"176 291 CURVE SMOOTH",
"82 261 OFFCURVE",
"44 208 OFFCURVE",
"44 132 CURVE SMOOTH",
"44 43 OFFCURVE",
"120 -12 OFFCURVE",
"217 -12 CURVE SMOOTH"
);
},
{
closed = 1;
nodes = (
"211 89 OFFCURVE",
"178 106 OFFCURVE",
"178 142 CURVE SMOOTH",
"178 167 OFFCURVE",
"191 184 OFFCURVE",
"220 196 CURVE SMOOTH",
"252 210 OFFCURVE",
"303 217 OFFCURVE",
"377 220 CURVE",
"377 194 LINE SMOOTH",
"377 133 OFFCURVE",
"324 89 OFFCURVE",
"251 89 CURVE SMOOTH"
);
}
);
width = 559;
},
{
anchors = (
{
name = bottom;
position = "{433, 0}";
},
{
name = top;
position = "{274, 518}";
}
);
associatedMasterId = "9398AC28-6BE1-4A79-9C94-3CBC2F226CE7";
hints = (
{
horizontal = 1;
place = "{513, 144}";
type = TTStem;
},
{
horizontal = 1;
place = "{0, 144}";
type = TTStem;
},
{
horizontal = 1;
place = "{525, 120}";
type = TTStem;
},
{
horizontal = 1;
place = "{-12, 120}";
type = TTStem;
},
{
horizontal = 1;
place = "{369, 117}";
type = Align;
},
{
horizontal = 1;
place = "{144, 117}";
type = Align;
}
);
layerId = "B5B6F3F6-B38D-4A65-BF25-9F9084EB57B5";
name = "Jul 15 19, 00:15";
paths = (
{
closed = 1;
nodes = (
"276 -12 OFFCURVE",
"335 9 OFFCURVE",
"377 48 CURVE",
"377 10 LINE SMOOTH",
"377 4 OFFCURVE",
"381 0 OFFCURVE",
"387 0 CURVE SMOOTH",
"497 0 LINE SMOOTH",
"503 0 OFFCURVE",
"507 4 OFFCURVE",
"507 10 CURVE SMOOTH",
"507 336 LINE SMOOTH",
"507 452 OFFCURVE",
"413 532 OFFCURVE",
"275 532 CURVE SMOOTH",
"149 532 OFFCURVE",
"66 469 OFFCURVE",
"47 360 CURVE SMOOTH",
"45 353 OFFCURVE",
"50 349 OFFCURVE",
"56 349 CURVE SMOOTH",
"166 349 LINE SMOOTH",
"172 349 OFFCURVE",
"175 352 OFFCURVE",
"177 358 CURVE SMOOTH",
"189 397 OFFCURVE",
"223 417 OFFCURVE",
"275 417 CURVE SMOOTH",
"337 417 OFFCURVE",
"377 385 OFFCURVE",
"377 336 CURVE SMOOTH",
"377 319 LINE",
"275 319 LINE SMOOTH",
"122 319 OFFCURVE",
"34 256 OFFCURVE",
"34 150 CURVE SMOOTH",
"34 48 OFFCURVE",
"109 -12 OFFCURVE",
"217 -12 CURVE SMOOTH"
);
},
{
closed = 1;
nodes = (
"194 89 OFFCURVE",
"168 112 OFFCURVE",
"168 152 CURVE SMOOTH",
"168 194 OFFCURVE",
"208 219 OFFCURVE",
"275 219 CURVE SMOOTH",
"377 219 LINE",
"377 194 LINE SMOOTH",
"377 136 OFFCURVE",
"316 89 OFFCURVE",
"241 89 CURVE SMOOTH"
);
}
);
width = 559;
},
{
anchors = (
{
name = bottom;
position = "{433, 0}";
},
{
name = top;
position = "{274, 518}";
}
);
associatedMasterId = "9398AC28-6BE1-4A79-9C94-3CBC2F226CE7";
hints = (
{
horizontal = 1;
place = "{513, 144}";
type = TTStem;
},
{
horizontal = 1;
place = "{0, 144}";
type = TTStem;
},
{
horizontal = 1;
place = "{525, 120}";
type = TTStem;
},
{
horizontal = 1;
place = "{-12, 120}";
type = TTStem;
},
{
horizontal = 1;
place = "{369, 117}";
type = Align;
},
{
horizontal = 1;
place = "{144, 117}";
type = Align;
}
);
layerId = "C8109B93-BC4B-43CE-8341-737A72E6DC3D";
name = "Aug 7 19, 15:43";
paths = (
{
closed = 1;
nodes = (
"535 94 LINE SMOOTH",
"522 94 OFFCURVE",
"517 103 OFFCURVE",
"517 124 CURVE SMOOTH",
"517 346 LINE SMOOTH",
"517 475 OFFCURVE",
"419 551 OFFCURVE",
"275 551 CURVE SMOOTH",
"149 551 OFFCURVE",
"66 486 OFFCURVE",
"47 377 CURVE",
"177 377 LINE",
"189 416 OFFCURVE",
"223 436 OFFCURVE",
"275 436 CURVE SMOOTH",
"331 436 OFFCURVE",
"367 402 OFFCURVE",
"367 346 CURVE SMOOTH",
"367 319 LINE",
"275 319 LINE SMOOTH",
"122 319 OFFCURVE",
"34 256 OFFCURVE",
"34 150 CURVE SMOOTH",
"34 48 OFFCURVE",
"109 -12 OFFCURVE",
"217 -12 CURVE SMOOTH",
"272 -12 OFFCURVE",
"336 -2 OFFCURVE",
"389 50 CURVE",
"407 15 OFFCURVE",
"447 -6 OFFCURVE",
"510 -6 CURVE SMOOTH",
"547 -6 LINE SMOOTH",
"553 -6 OFFCURVE",
"557 -2 OFFCURVE",
"557 4 CURVE SMOOTH",
"557 84 LINE SMOOTH",
"557 90 OFFCURVE",
"553 94 OFFCURVE",
"547 94 CURVE SMOOTH"
);
},
{
closed = 1;
nodes = (
"194 89 OFFCURVE",
"168 112 OFFCURVE",
"168 152 CURVE SMOOTH",
"168 194 OFFCURVE",
"208 219 OFFCURVE",
"275 219 CURVE SMOOTH",
"367 219 LINE",
"367 194 LINE SMOOTH",
"367 136 OFFCURVE",
"310 89 OFFCURVE",
"241 89 CURVE SMOOTH"
);
}
);
width = 559;
},
{
anchors = (
{
name = bottom;
position = "{418, 0}";
},
{
name = top;
position = "{259, 518}";
}
);
associatedMasterId = "9398AC28-6BE1-4A79-9C94-3CBC2F226CE7";
hints = (
{
horizontal = 1;
place = "{513, 144}";
type = TTStem;
},
{
horizontal = 1;
place = "{0, 144}";
type = TTStem;
},
{
horizontal = 1;
place = "{525, 120}";
type = TTStem;
},
{
horizontal = 1;
place = "{-12, 120}";
type = TTStem;
},
{
horizontal = 1;
place = "{369, 117}";
type = Align;
},
{
horizontal = 1;
place = "{144, 117}";
type = Align;
}
);
layerId = "6BE98FB3-5662-4BCB-BE1D-4ACB4EEBC8CB";
name = "Aug 7 19, 19:37";
paths = (
{
closed = 1;
nodes = (
"502 0 LINE",
"502 353 LINE SMOOTH",
"502 472 OFFCURVE",
"410 550 OFFCURVE",
"272 550 CURVE SMOOTH",
"143 550 OFFCURVE",
"51 473 OFFCURVE",
"42 357 CURVE",
"185 357 LINE",
"191 401 OFFCURVE",
"225 430 OFFCURVE",
"275 430 CURVE SMOOTH",
"321 430 OFFCURVE",
"352 411 OFFCURVE",
"352 381 CURVE SMOOTH",
"352 357 OFFCURVE",
"328 344 OFFCURVE",
"260 329 CURVE SMOOTH",
"186 313 LINE SMOOTH",
"73 288 OFFCURVE",
"19 235 OFFCURVE",
"19 150 CURVE SMOOTH",
"19 51 OFFCURVE",
"95 -13 OFFCURVE",
"212 -13 CURVE SMOOTH",
"269 -13 OFFCURVE",
"319 8 OFFCURVE",
"352 48 CURVE",
"352 0 LINE"
);
},
{
closed = 1;
nodes = (
"193 97 OFFCURVE",
"169 118 OFFCURVE",
"169 152 CURVE SMOOTH",
"169 183 OFFCURVE",
"192 202 OFFCURVE",
"232 212 CURVE SMOOTH",
"352 242 LINE",
"352 194 LINE SMOOTH",
"352 143 OFFCURVE",
"296 97 OFFCURVE",
"236 97 CURVE SMOOTH"
);
}
);
width = 551;
},
{
anchors = (
{
name = bottom;
position = "{414, 0}";
},
{
name = top;
position = "{265, 503}";
}
);
associatedMasterId = "30C2FD74-1A74-41AC-9C29-B288AE1DBDD7";
hints = (
{
horizontal = 1;
place = "{515, 54}";
type = TTStem;
},
{
horizontal = 1;
place = "{-12, 54}";
type = TTStem;
},
{
horizontal = 1;
place = "{0, 38}";
type = TTStem;
},
{
horizontal = 1;
place = "{38, 63}";
type = Align;
},
{
horizontal = 1;
place = "{402, 63}";
type = TTStem;
},
{
horizontal = 1;
place = "{503, 101}";
type = TTStem;
}
);
layerId = "031EB81F-4420-499F-86B9-980BEB32C9A4";
name = "Aug 12 19, 13:25";
paths = (
{
closed = 0;
nodes = (
"93 408 LINE",
"93 478 OFFCURVE",
"163 527 OFFCURVE",
"260 527 CURVE SMOOTH",
"348 527 OFFCURVE",
"428 478 OFFCURVE",
"428 378 CURVE SMOOTH",
"428 70 LINE SMOOTH",
"428 18 OFFCURVE",
"452 0 OFFCURVE",
"513 0 CURVE SMOOTH"
);
},
{
closed = 0;
nodes = (
"428 377 LINE SMOOTH",
"428 338 OFFCURVE",
"396 301 OFFCURVE",
"278 281 CURVE SMOOTH",
"213 270 LINE SMOOTH",
"91 249 OFFCURVE",
"68 192 OFFCURVE",
"68 136 CURVE SMOOTH",
"68 54 OFFCURVE",
"135 0 OFFCURVE",
"239 0 CURVE SMOOTH",
"308 0 OFFCURVE",
"428 38 OFFCURVE",
"428 156 CURVE SMOOTH"
);
}
);
width = 529;
},
{
anchors = (
{
name = bottom;
position = "{414, 0}";
},
{
name = top;
position = "{265, 503}";
}
);
associatedMasterId = "30C2FD74-1A74-41AC-9C29-B288AE1DBDD7";
hints = (
{
horizontal = 1;
place = "{515, 54}";
type = TTStem;
},
{
horizontal = 1;
place = "{-12, 54}";
type = TTStem;
},
{
horizontal = 1;
place = "{0, 38}";
type = TTStem;
},
{
horizontal = 1;
place = "{38, 63}";
type = Align;
},
{
horizontal = 1;
place = "{402, 63}";
type = TTStem;
},
{
horizontal = 1;
place = "{503, 101}";
type = TTStem;
}
);
layerId = "EB7177B6-9BF7-4C4B-9E49-D78114A78308";
name = "Aug 12 19, 13:30";
paths = (
{
closed = 1;
nodes = (
"348 -13 OFFCURVE",
"432 52 OFFCURVE",
"432 180 CURVE",
"422 180 LINE",
"422 61 OFFCURVE",
"343 -1 OFFCURVE",
"239 -1 CURVE SMOOTH",
"140 -1 OFFCURVE",
"74 52 OFFCURVE",
"74 135 CURVE SMOOTH",
"74 206 OFFCURVE",
"112 254 OFFCURVE",
"214 272 CURVE SMOOTH",
"279 283 LINE SMOOTH",
"380 300 OFFCURVE",
"432 325 OFFCURVE",
"432 371 CURVE",
"422 371 LINE",
"422 332 OFFCURVE",
"372 311 OFFCURVE",
"277 295 CURVE SMOOTH",
"212 284 LINE SMOOTH",
"105 266 OFFCURVE",
"62 212 OFFCURVE",
"62 135 CURVE SMOOTH",
"62 45 OFFCURVE",
"134 -13 OFFCURVE",
"239 -13 CURVE SMOOTH"
);
},
{
closed = 1;
nodes = (
"455 12 OFFCURVE",
"434 34 OFFCURVE",
"434 70 CURVE SMOOTH",
"434 378 LINE SMOOTH",
"434 478 OFFCURVE",
"368 540 OFFCURVE",
"263 540 CURVE SMOOTH",
"167 540 OFFCURVE",
"91 489 OFFCURVE",
"87 394 CURVE",
"99 394 LINE",
"103 481 OFFCURVE",
"174 528 OFFCURVE",
"263 528 CURVE SMOOTH",
"363 528 OFFCURVE",
"422 471 OFFCURVE",
"422 378 CURVE SMOOTH",
"422 70 LINE SMOOTH",
"422 26 OFFCURVE",
"448 0 OFFCURVE",
"491 0 CURVE SMOOTH",
"510 0 LINE",
"510 12 LINE",
"491 12 LINE SMOOTH"
);
}
);
width = 529;
},
{
anchors = (
{
name = bottom;
position = "{427, 0}";
},
{
name = top;
position = "{268, 518}";
}
);
associatedMasterId = "9398AC28-6BE1-4A79-9C94-3CBC2F226CE7";
hints = (
{
horizontal = 1;
place = "{513, 144}";
type = TTStem;
},
{
horizontal = 1;
place = "{0, 144}";
type = TTStem;
},
{
horizontal = 1;
place = "{525, 120}";
type = TTStem;
},
{
horizontal = 1;
place = "{-12, 120}";
type = TTStem;
},
{
horizontal = 1;
place = "{369, 117}";
type = Align;
},
{
horizontal = 1;
place = "{144, 117}";
type = Align;
}
);
layerId = "75DFD903-AFD1-429E-957B-4BF8A578B472";
name = "Dec 6 19, 00:24";
paths = (
{
closed = 1;
nodes = (
"299 -13 OFFCURVE",
"360 20 OFFCURVE",
"406 73 CURVE",
"365 76 LINE",
"368 67 LINE SMOOTH",
"387 20 OFFCURVE",
"433 -6 OFFCURVE",
"514 -6 CURVE SMOOTH",
"571 -6 LINE",
"571 114 LINE",
"539 114 LINE SMOOTH",
"519 114 OFFCURVE",
"511 123 OFFCURVE",
"511 144 CURVE SMOOTH",
"511 353 LINE SMOOTH",
"511 472 OFFCURVE",
"419 550 OFFCURVE",
"281 550 CURVE SMOOTH",
"152 550 OFFCURVE",
"60 473 OFFCURVE",
"51 367 CURVE",
"194 367 LINE",
"200 401 OFFCURVE",
"234 430 OFFCURVE",
"284 430 CURVE SMOOTH",
"330 430 OFFCURVE",
"361 411 OFFCURVE",
"361 381 CURVE SMOOTH",
"361 357 OFFCURVE",
"337 344 OFFCURVE",
"269 329 CURVE SMOOTH",
"195 313 LINE SMOOTH",
"82 288 OFFCURVE",
"23 235 OFFCURVE",
"23 150 CURVE SMOOTH",
"23 51 OFFCURVE",
"104 -13 OFFCURVE",
"221 -13 CURVE SMOOTH"
);
},
{
closed = 1;
nodes = (
"202 97 OFFCURVE",
"178 118 OFFCURVE",
"178 149 CURVE SMOOTH",
"178 182 OFFCURVE",
"201 202 OFFCURVE",
"241 212 CURVE SMOOTH",
"289 224 LINE SMOOTH",
"313 230 OFFCURVE",
"337 236 OFFCURVE",
"361 242 CURVE",
"361 204 LINE SMOOTH",
"361 143 OFFCURVE",
"305 97 OFFCURVE",
"245 97 CURVE SMOOTH"
);
}
);
width = 594;
},
{
anchors = (
{
name = bottom;
position = "{427, 0}";
},
{
name = top;
position = "{268, 518}";
}
);
associatedMasterId = "9398AC28-6BE1-4A79-9C94-3CBC2F226CE7";
hints = (
{
horizontal = 1;
place = "{513, 144}";
type = TTStem;
},
{
horizontal = 1;
place = "{0, 144}";
type = TTStem;
},
{
horizontal = 1;
place = "{525, 120}";
type = TTStem;
},
{
horizontal = 1;
place = "{-12, 120}";
type = TTStem;
},
{
horizontal = 1;
place = "{369, 117}";
type = Align;
},
{
horizontal = 1;
place = "{144, 117}";
type = Align;
}
);
layerId = "C88784C2-EE8C-4D36-A561-A0E7AAA98EAB";
name = "Dec 6 19, 01:55";
paths = (
{
closed = 1;
nodes = (
"299 -12 OFFCURVE",
"360 20 OFFCURVE",
"406 83 CURVE",
"365 86 LINE",
"365 0 LINE",
"511 0 LINE",
"511 353 LINE SMOOTH",
"511 472 OFFCURVE",
"419 549 OFFCURVE",
"281 549 CURVE SMOOTH",
"152 549 OFFCURVE",
"60 473 OFFCURVE",
"51 367 CURVE",
"194 367 LINE",
"200 401 OFFCURVE",
"234 429 OFFCURVE",
"284 429 CURVE SMOOTH",
"330 429 OFFCURVE",
"361 411 OFFCURVE",
"361 381 CURVE SMOOTH",
"361 357 OFFCURVE",
"337 344 OFFCURVE",
"269 329 CURVE SMOOTH",
"195 313 LINE SMOOTH",
"82 288 OFFCURVE",
"23 235 OFFCURVE",
"23 150 CURVE SMOOTH",
"23 51 OFFCURVE",
"104 -12 OFFCURVE",
"221 -12 CURVE SMOOTH"
);
},
{
closed = 1;
nodes = (
"202 98 OFFCURVE",
"178 118 OFFCURVE",
"178 149 CURVE SMOOTH",
"178 182 OFFCURVE",
"201 202 OFFCURVE",
"241 212 CURVE SMOOTH",
"289 224 LINE SMOOTH",
"313 230 OFFCURVE",
"337 236 OFFCURVE",
"361 242 CURVE",
"361 204 LINE SMOOTH",
"361 143 OFFCURVE",
"305 98 OFFCURVE",
"245 98 CURVE SMOOTH"
);
}
);
width = 594;
},
{
associatedMasterId = "9398AC28-6BE1-4A79-9C94-3CBC2F226CE7";
hints = (
{
horizontal = 1;
place = "{513, 144}";
type = TTStem;
},
{
horizontal = 1;
place = "{0, 144}";
type = TTStem;
},
{
horizontal = 1;
place = "{525, 120}";
type = TTStem;
},
{
horizontal = 1;
place = "{-12, 120}";
type = TTStem;
},
{
horizontal = 1;
place = "{369, 117}";
type = Align;
},
{
horizontal = 1;
place = "{144, 117}";
type = Align;
}
);
layerId = "63297507-797C-4D33-BDB8-000F9458350A";
name = "Dec 10 19, 16:08";
paths = (
{
closed = 1;
nodes = (
"377 351 LINE",
"195 313 LINE SMOOTH",
"81 289 OFFCURVE",
"23 235 OFFCURVE",
"23 150 CURVE SMOOTH",
"23 51 OFFCURVE",
"104 -12 OFFCURVE",
"221 -12 CURVE SMOOTH",
"299 -12 OFFCURVE",
"360 20 OFFCURVE",
"406 83 CURVE",
"365 86 LINE",
"365 0 LINE",
"511 0 LINE",
"511 353 LINE SMOOTH",
"511 472 OFFCURVE",
"419 549 OFFCURVE",
"281 549 CURVE SMOOTH",
"152 549 OFFCURVE",
"60 473 OFFCURVE",
"51 367 CURVE",
"194 367 LINE",
"200 406 OFFCURVE",
"231 429 OFFCURVE",
"277 429 CURVE SMOOTH",
"330 429 OFFCURVE",
"361 406 OFFCURVE",
"361 367 CURVE SMOOTH",
"361 204 LINE SMOOTH",
"361 143 OFFCURVE",
"305 98 OFFCURVE",
"245 98 CURVE SMOOTH",
"202 98 OFFCURVE",
"178 118 OFFCURVE",
"178 149 CURVE SMOOTH",
"178 182 OFFCURVE",
"201 202 OFFCURVE",
"241 212 CURVE SMOOTH",
"377 246 LINE"
);
}
);
width = 594;
},
{
associatedMasterId = "9398AC28-6BE1-4A79-9C94-3CBC2F226CE7";
hints = (
{
horizontal = 1;
place = "{513, 144}";
type = TTStem;
},
{
horizontal = 1;
place = "{0, 144}";
type = TTStem;
},
{
horizontal = 1;
place = "{525, 120}";
type = TTStem;
},
{
horizontal = 1;
place = "{-12, 120}";
type = TTStem;
},
{
horizontal = 1;
place = "{369, 117}";
type = Align;
},
{
horizontal = 1;
place = "{144, 117}";
type = Align;
}
);
layerId = "7AEC84A3-7372-442C-86D9-C508D5C054CC";
name = "Jan 18 20, 21:19";
paths = (
{
closed = 1;
nodes = (
"177 367 LINE",
"197 407 OFFCURVE",
"235 430 OFFCURVE",
"284 430 CURVE SMOOTH",
"332 430 OFFCURVE",
"364 405 OFFCURVE",
"364 368 CURVE SMOOTH",
"364 204 LINE SMOOTH",
"364 146 OFFCURVE",
"312 98 OFFCURVE",
"248 98 CURVE SMOOTH",
"205 98 OFFCURVE",
"181 116 OFFCURVE",
"181 149 CURVE SMOOTH",
"181 180 OFFCURVE",
"203 201 OFFCURVE",
"244 212 CURVE SMOOTH",
"380 246 LINE",
"380 351 LINE",
"198 313 LINE SMOOTH",
"84 289 OFFCURVE",
"26 234 OFFCURVE",
"26 149 CURVE SMOOTH",
"26 54 OFFCURVE",
"106 -12 OFFCURVE",
"224 -12 CURVE SMOOTH",
"303 -12 OFFCURVE",
"363 18 OFFCURVE",
"409 83 CURVE",
"368 86 LINE",
"368 0 LINE",
"514 0 LINE",
"514 354 LINE SMOOTH",
"514 471 OFFCURVE",
"421 550 OFFCURVE",
"284 550 CURVE SMOOTH",
"179 550 OFFCURVE",
"106 506 OFFCURVE",
"72 439 CURVE"
);
}
);
width = 578;
}
);
leftKerningGroup = a;
rightKerningGroup = a;
unicode = 0061;
},
{
color = 1;
glyphname = a.ss01;
lastChange = "2020-01-19 20:06:57 +0000";
layers = (
{
hints = (
{
horizontal = 1;
place = "{515, 54}";
type = TTStem;
},
{
horizontal = 1;
place = "{-12, 54}";
type = TTStem;
},
{
horizontal = 1;
place = "{0, 38}";
type = TTStem;
},
{
horizontal = 1;
place = "{38, 63}";
type = Align;
},
{
horizontal = 1;
place = "{402, 63}";
type = TTStem;
},
{
horizontal = 1;
place = "{503, 101}";
type = TTStem;
}
);
layerId = "30C2FD74-1A74-41AC-9C29-B288AE1DBDD7";
paths = (
{
closed = 1;
nodes = (
"292 -12 OFFCURVE",
"368 34 OFFCURVE",
"396 98 CURVE",
"388 111 LINE",
"388 0 LINE",
"458 0 LINE",
"458 538 LINE",
"388 538 LINE",
"70 538 LINE",
"70 468 LINE",
"388 468 LINE",
"388 239 LINE SMOOTH",
"388 134 OFFCURVE",
"317 58 OFFCURVE",
"217 58 CURVE SMOOTH",
"148 58 OFFCURVE",
"105 93 OFFCURVE",
"105 149 CURVE SMOOTH",
"105 202 OFFCURVE",
"149 236 OFFCURVE",
"218 252 CURVE SMOOTH",
"403 295 LINE",
"403 356 LINE",
"200 309 LINE SMOOTH",
"93 284 OFFCURVE",
"30 231 OFFCURVE",
"30 150 CURVE SMOOTH",
"30 54 OFFCURVE",
"105 -12 OFFCURVE",
"217 -12 CURVE SMOOTH"
);
}
);
width = 533;
},
{
hints = (
{
horizontal = 1;
place = "{513, 144}";
type = TTStem;
},
{
horizontal = 1;
place = "{0, 144}";
type = TTStem;
},
{
horizontal = 1;
place = "{525, 120}";
type = TTStem;
},
{
horizontal = 1;
place = "{-12, 120}";
type = TTStem;
},
{
horizontal = 1;
place = "{369, 117}";
type = Align;
},
{
horizontal = 1;
place = "{144, 117}";
type = Align;
}
);
layerId = "9398AC28-6BE1-4A79-9C94-3CBC2F226CE7";
paths = (
{
closed = 1;
nodes = (
"278 -12 OFFCURVE",
"336 18 OFFCURVE",
"383 93 CURVE",
"348 86 LINE",
"348 0 LINE",
"488 0 LINE",
"488 538 LINE",
"338 538 LINE",
"62 538 LINE",
"62 408 LINE",
"338 408 LINE",
"338 204 LINE SMOOTH",
"338 145 OFFCURVE",
"287 98 OFFCURVE",
"222 98 CURVE SMOOTH",
"180 98 OFFCURVE",
"155 117 OFFCURVE",
"155 149 CURVE SMOOTH",
"155 175 OFFCURVE",
"172 192 OFFCURVE",
"198 198 CURVE SMOOTH",
"354 233 LINE",
"354 340 LINE",
"172 302 LINE SMOOTH",
"58 278 OFFCURVE",
"0 226 OFFCURVE",
"0 149 CURVE SMOOTH",
"0 53 OFFCURVE",
"80 -12 OFFCURVE",
"198 -12 CURVE SMOOTH"
);
}
);
width = 526;
},
{
anchors = (
{
name = bottom;
position = "{423, 0}";
},
{
name = top;
position = "{327, 518}";
}
);
associatedMasterId = "9398AC28-6BE1-4A79-9C94-3CBC2F226CE7";
layerId = "249C0893-B9D8-4DBA-9321-B2DB658122CF";
name = "Feb 28 18, 01:39";
paths = (
{
closed = 1;
nodes = (
"353 -12 OFFCURVE",
"420 15 OFFCURVE",
"463 56 CURVE",
"463 176 LINE",
"419 131 OFFCURVE",
"364 108 OFFCURVE",
"301 108 CURVE SMOOTH",
"219 108 OFFCURVE",
"156 171 OFFCURVE",
"156 256 CURVE SMOOTH",
"156 341 OFFCURVE",
"219 405 OFFCURVE",
"301 405 CURVE SMOOTH",
"364 405 OFFCURVE",
"419 382 OFFCURVE",
"463 337 CURVE",
"463 457 LINE",
"420 498 OFFCURVE",
"353 525 OFFCURVE",
"284 525 CURVE SMOOTH",
"142 525 OFFCURVE",
"26 408 OFFCURVE",
"26 256 CURVE SMOOTH",
"26 104 OFFCURVE",
"142 -12 OFFCURVE",
"284 -12 CURVE SMOOTH"
);
},
{
closed = 1;
nodes = (
"555 0 LINE",
"555 513 LINE",
"425 513 LINE",
"425 0 LINE"
);
}
);
width = 618;
},
{
anchors = (
{
name = bottom;
position = "{433, 0}";
},
{
name = top;
position = "{274, 518}";
}
);
associatedMasterId = "9398AC28-6BE1-4A79-9C94-3CBC2F226CE7";
hints = (
{
horizontal = 1;
place = "{513, 144}";
type = TTStem;
},
{
horizontal = 1;
place = "{0, 144}";
type = TTStem;
},
{
horizontal = 1;
place = "{525, 120}";
type = TTStem;
},
{
horizontal = 1;
place = "{-12, 120}";
type = TTStem;
},
{
horizontal = 1;
place = "{369, 117}";
type = Align;
},
{
horizontal = 1;
place = "{144, 117}";
type = Align;
}
);
layerId = "CC1CFBBB-9E0B-4FFF-B7D9-0B5E9B93B1A5";
name = "Jul 15 19, 00:00";
paths = (
{
closed = 1;
nodes = (
"285 -12 OFFCURVE",
"336 7 OFFCURVE",
"377 48 CURVE",
"377 0 LINE",
"507 0 LINE",
"507 329 LINE SMOOTH",
"507 451 OFFCURVE",
"417 525 OFFCURVE",
"275 525 CURVE SMOOTH",
"188 525 OFFCURVE",
"118 494 OFFCURVE",
"75 445 CURVE",
"156 356 LINE",
"182 390 OFFCURVE",
"223 410 OFFCURVE",
"275 410 CURVE SMOOTH",
"324 410 OFFCURVE",
"377 397 OFFCURVE",
"377 329 CURVE SMOOTH",
"377 319 LINE",
"292 317 OFFCURVE",
"226 307 OFFCURVE",
"176 291 CURVE SMOOTH",
"82 261 OFFCURVE",
"44 208 OFFCURVE",
"44 132 CURVE SMOOTH",
"44 43 OFFCURVE",
"120 -12 OFFCURVE",
"217 -12 CURVE SMOOTH"
);
},
{
closed = 1;
nodes = (
"211 89 OFFCURVE",
"178 106 OFFCURVE",
"178 142 CURVE SMOOTH",
"178 167 OFFCURVE",
"191 184 OFFCURVE",
"220 196 CURVE SMOOTH",
"252 210 OFFCURVE",
"303 217 OFFCURVE",
"377 220 CURVE",
"377 194 LINE SMOOTH",
"377 133 OFFCURVE",
"324 89 OFFCURVE",
"251 89 CURVE SMOOTH"
);
}
);
width = 559;
},
{
anchors = (
{
name = bottom;
position = "{433, 0}";
},
{
name = top;
position = "{274, 518}";
}
);
associatedMasterId = "9398AC28-6BE1-4A79-9C94-3CBC2F226CE7";
hints = (
{
horizontal = 1;
place = "{513, 144}";
type = TTStem;
},
{
horizontal = 1;
place = "{0, 144}";
type = TTStem;
},
{
horizontal = 1;
place = "{525, 120}";
type = TTStem;
},
{
horizontal = 1;
place = "{-12, 120}";
type = TTStem;
},
{
horizontal = 1;
place = "{369, 117}";
type = Align;
},
{
horizontal = 1;
place = "{144, 117}";
type = Align;
}
);
layerId = "B5B6F3F6-B38D-4A65-BF25-9F9084EB57B5";
name = "Jul 15 19, 00:15";
paths = (
{
closed = 1;
nodes = (
"276 -12 OFFCURVE",
"335 9 OFFCURVE",
"377 48 CURVE",
"377 10 LINE SMOOTH",
"377 4 OFFCURVE",
"381 0 OFFCURVE",
"387 0 CURVE SMOOTH",
"497 0 LINE SMOOTH",
"503 0 OFFCURVE",
"507 4 OFFCURVE",
"507 10 CURVE SMOOTH",
"507 336 LINE SMOOTH",
"507 452 OFFCURVE",
"413 532 OFFCURVE",
"275 532 CURVE SMOOTH",
"149 532 OFFCURVE",
"66 469 OFFCURVE",
"47 360 CURVE SMOOTH",
"45 353 OFFCURVE",
"50 349 OFFCURVE",
"56 349 CURVE SMOOTH",
"166 349 LINE SMOOTH",
"172 349 OFFCURVE",
"175 352 OFFCURVE",
"177 358 CURVE SMOOTH",
"189 397 OFFCURVE",
"223 417 OFFCURVE",
"275 417 CURVE SMOOTH",
"337 417 OFFCURVE",
"377 385 OFFCURVE",
"377 336 CURVE SMOOTH",
"377 319 LINE",
"275 319 LINE SMOOTH",
"122 319 OFFCURVE",
"34 256 OFFCURVE",
"34 150 CURVE SMOOTH",
"34 48 OFFCURVE",
"109 -12 OFFCURVE",
"217 -12 CURVE SMOOTH"
);
},
{
closed = 1;
nodes = (
"194 89 OFFCURVE",
"168 112 OFFCURVE",
"168 152 CURVE SMOOTH",
"168 194 OFFCURVE",
"208 219 OFFCURVE",
"275 219 CURVE SMOOTH",
"377 219 LINE",
"377 194 LINE SMOOTH",
"377 136 OFFCURVE",
"316 89 OFFCURVE",
"241 89 CURVE SMOOTH"
);
}
);
width = 559;
},
{
anchors = (
{
name = bottom;
position = "{433, 0}";
},
{
name = top;
position = "{274, 518}";
}
);
associatedMasterId = "9398AC28-6BE1-4A79-9C94-3CBC2F226CE7";
hints = (
{
horizontal = 1;
place = "{513, 144}";
type = TTStem;
},
{
horizontal = 1;
place = "{0, 144}";
type = TTStem;
},
{
horizontal = 1;
place = "{525, 120}";
type = TTStem;
},
{
horizontal = 1;
place = "{-12, 120}";
type = TTStem;
},
{
horizontal = 1;
place = "{369, 117}";
type = Align;
},
{
horizontal = 1;
place = "{144, 117}";
type = Align;
}
);
layerId = "C8109B93-BC4B-43CE-8341-737A72E6DC3D";
name = "Aug 7 19, 15:43";
paths = (
{
closed = 1;
nodes = (
"535 94 LINE SMOOTH",
"522 94 OFFCURVE",
"517 103 OFFCURVE",
"517 124 CURVE SMOOTH",
"517 346 LINE SMOOTH",
"517 475 OFFCURVE",
"419 551 OFFCURVE",
"275 551 CURVE SMOOTH",
"149 551 OFFCURVE",
"66 486 OFFCURVE",
"47 377 CURVE",
"177 377 LINE",
"189 416 OFFCURVE",
"223 436 OFFCURVE",
"275 436 CURVE SMOOTH",
"331 436 OFFCURVE",
"367 402 OFFCURVE",
"367 346 CURVE SMOOTH",
"367 319 LINE",
"275 319 LINE SMOOTH",
"122 319 OFFCURVE",
"34 256 OFFCURVE",
"34 150 CURVE SMOOTH",
"34 48 OFFCURVE",
"109 -12 OFFCURVE",
"217 -12 CURVE SMOOTH",
"272 -12 OFFCURVE",
"336 -2 OFFCURVE",
"389 50 CURVE",
"407 15 OFFCURVE",
"447 -6 OFFCURVE",
"510 -6 CURVE SMOOTH",
"547 -6 LINE SMOOTH",
"553 -6 OFFCURVE",
"557 -2 OFFCURVE",
"557 4 CURVE SMOOTH",
"557 84 LINE SMOOTH",
"557 90 OFFCURVE",
"553 94 OFFCURVE",
"547 94 CURVE SMOOTH"
);
},
{
closed = 1;
nodes = (
"194 89 OFFCURVE",
"168 112 OFFCURVE",
"168 152 CURVE SMOOTH",
"168 194 OFFCURVE",
"208 219 OFFCURVE",
"275 219 CURVE SMOOTH",
"367 219 LINE",
"367 194 LINE SMOOTH",
"367 136 OFFCURVE",
"310 89 OFFCURVE",
"241 89 CURVE SMOOTH"
);
}
);
width = 559;
},
{
anchors = (
{
name = bottom;
position = "{418, 0}";
},
{
name = top;
position = "{259, 518}";
}
);
associatedMasterId = "9398AC28-6BE1-4A79-9C94-3CBC2F226CE7";
hints = (
{
horizontal = 1;
place = "{513, 144}";
type = TTStem;
},
{
horizontal = 1;
place = "{0, 144}";
type = TTStem;
},
{
horizontal = 1;
place = "{525, 120}";
type = TTStem;
},
{
horizontal = 1;
place = "{-12, 120}";
type = TTStem;
},
{
horizontal = 1;
place = "{369, 117}";
type = Align;
},
{
horizontal = 1;
place = "{144, 117}";
type = Align;
}
);
layerId = "6BE98FB3-5662-4BCB-BE1D-4ACB4EEBC8CB";
name = "Aug 7 19, 19:37";
paths = (
{
closed = 1;
nodes = (
"502 0 LINE",
"502 353 LINE SMOOTH",
"502 472 OFFCURVE",
"410 550 OFFCURVE",
"272 550 CURVE SMOOTH",
"143 550 OFFCURVE",
"51 473 OFFCURVE",
"42 357 CURVE",
"185 357 LINE",
"191 401 OFFCURVE",
"225 430 OFFCURVE",
"275 430 CURVE SMOOTH",
"321 430 OFFCURVE",
"352 411 OFFCURVE",
"352 381 CURVE SMOOTH",
"352 357 OFFCURVE",
"328 344 OFFCURVE",
"260 329 CURVE SMOOTH",
"186 313 LINE SMOOTH",
"73 288 OFFCURVE",
"19 235 OFFCURVE",
"19 150 CURVE SMOOTH",
"19 51 OFFCURVE",
"95 -13 OFFCURVE",
"212 -13 CURVE SMOOTH",
"269 -13 OFFCURVE",
"319 8 OFFCURVE",
"352 48 CURVE",
"352 0 LINE"
);
},
{
closed = 1;
nodes = (
"193 97 OFFCURVE",
"169 118 OFFCURVE",
"169 152 CURVE SMOOTH",
"169 183 OFFCURVE",
"192 202 OFFCURVE",
"232 212 CURVE SMOOTH",
"352 242 LINE",
"352 194 LINE SMOOTH",
"352 143 OFFCURVE",
"296 97 OFFCURVE",
"236 97 CURVE SMOOTH"
);
}
);
width = 551;
},
{
anchors = (
{
name = bottom;
position = "{414, 0}";
},
{
name = top;
position = "{265, 503}";
}
);
associatedMasterId = "30C2FD74-1A74-41AC-9C29-B288AE1DBDD7";
hints = (
{
horizontal = 1;
place = "{515, 54}";
type = TTStem;
},
{
horizontal = 1;
place = "{-12, 54}";
type = TTStem;
},
{
horizontal = 1;
place = "{0, 38}";
type = TTStem;
},
{
horizontal = 1;
place = "{38, 63}";
type = Align;
},
{
horizontal = 1;
place = "{402, 63}";
type = TTStem;
},
{
horizontal = 1;
place = "{503, 101}";
type = TTStem;
}
);
layerId = "031EB81F-4420-499F-86B9-980BEB32C9A4";
name = "Aug 12 19, 13:25";
paths = (
{
closed = 0;
nodes = (
"93 408 LINE",
"93 478 OFFCURVE",
"163 527 OFFCURVE",
"260 527 CURVE SMOOTH",
"348 527 OFFCURVE",
"428 478 OFFCURVE",
"428 378 CURVE SMOOTH",
"428 70 LINE SMOOTH",
"428 18 OFFCURVE",
"452 0 OFFCURVE",
"513 0 CURVE SMOOTH"
);
},
{
closed = 0;
nodes = (
"428 377 LINE SMOOTH",
"428 338 OFFCURVE",
"396 301 OFFCURVE",
"278 281 CURVE SMOOTH",
"213 270 LINE SMOOTH",
"91 249 OFFCURVE",
"68 192 OFFCURVE",
"68 136 CURVE SMOOTH",
"68 54 OFFCURVE",
"135 0 OFFCURVE",
"239 0 CURVE SMOOTH",
"308 0 OFFCURVE",
"428 38 OFFCURVE",
"428 156 CURVE SMOOTH"
);
}
);
width = 529;
},
{
anchors = (
{
name = bottom;
position = "{414, 0}";
},
{
name = top;
position = "{265, 503}";
}
);
associatedMasterId = "30C2FD74-1A74-41AC-9C29-B288AE1DBDD7";
hints = (
{
horizontal = 1;
place = "{515, 54}";
type = TTStem;
},
{
horizontal = 1;
place = "{-12, 54}";
type = TTStem;
},
{
horizontal = 1;
place = "{0, 38}";
type = TTStem;
},
{
horizontal = 1;
place = "{38, 63}";
type = Align;
},
{
horizontal = 1;
place = "{402, 63}";
type = TTStem;
},
{
horizontal = 1;
place = "{503, 101}";
type = TTStem;
}
);
layerId = "EB7177B6-9BF7-4C4B-9E49-D78114A78308";
name = "Aug 12 19, 13:30";
paths = (
{
closed = 1;
nodes = (
"348 -13 OFFCURVE",
"432 52 OFFCURVE",
"432 180 CURVE",
"422 180 LINE",
"422 61 OFFCURVE",
"343 -1 OFFCURVE",
"239 -1 CURVE SMOOTH",
"140 -1 OFFCURVE",
"74 52 OFFCURVE",
"74 135 CURVE SMOOTH",
"74 206 OFFCURVE",
"112 254 OFFCURVE",
"214 272 CURVE SMOOTH",
"279 283 LINE SMOOTH",
"380 300 OFFCURVE",
"432 325 OFFCURVE",
"432 371 CURVE",
"422 371 LINE",
"422 332 OFFCURVE",
"372 311 OFFCURVE",
"277 295 CURVE SMOOTH",
"212 284 LINE SMOOTH",
"105 266 OFFCURVE",
"62 212 OFFCURVE",
"62 135 CURVE SMOOTH",
"62 45 OFFCURVE",
"134 -13 OFFCURVE",
"239 -13 CURVE SMOOTH"
);
},
{
closed = 1;
nodes = (
"455 12 OFFCURVE",
"434 34 OFFCURVE",
"434 70 CURVE SMOOTH",
"434 378 LINE SMOOTH",
"434 478 OFFCURVE",
"368 540 OFFCURVE",
"263 540 CURVE SMOOTH",
"167 540 OFFCURVE",
"91 489 OFFCURVE",
"87 394 CURVE",
"99 394 LINE",
"103 481 OFFCURVE",
"174 528 OFFCURVE",
"263 528 CURVE SMOOTH",
"363 528 OFFCURVE",
"422 471 OFFCURVE",
"422 378 CURVE SMOOTH",
"422 70 LINE SMOOTH",
"422 26 OFFCURVE",
"448 0 OFFCURVE",
"491 0 CURVE SMOOTH",
"510 0 LINE",
"510 12 LINE",
"491 12 LINE SMOOTH"
);
}
);
width = 529;
},
{
anchors = (
{
name = bottom;
position = "{427, 0}";
},
{
name = top;
position = "{268, 518}";
}
);
associatedMasterId = "9398AC28-6BE1-4A79-9C94-3CBC2F226CE7";
hints = (
{
horizontal = 1;
place = "{513, 144}";
type = TTStem;
},
{
horizontal = 1;
place = "{0, 144}";
type = TTStem;
},
{
horizontal = 1;
place = "{525, 120}";
type = TTStem;
},
{
horizontal = 1;
place = "{-12, 120}";
type = TTStem;
},
{
horizontal = 1;
place = "{369, 117}";
type = Align;
},
{
horizontal = 1;
place = "{144, 117}";
type = Align;
}
);
layerId = "75DFD903-AFD1-429E-957B-4BF8A578B472";
name = "Dec 6 19, 00:24";
paths = (
{
closed = 1;
nodes = (
"299 -13 OFFCURVE",
"360 20 OFFCURVE",
"406 73 CURVE",
"365 76 LINE",
"368 67 LINE SMOOTH",
"387 20 OFFCURVE",
"433 -6 OFFCURVE",
"514 -6 CURVE SMOOTH",
"571 -6 LINE",
"571 114 LINE",
"539 114 LINE SMOOTH",
"519 114 OFFCURVE",
"511 123 OFFCURVE",
"511 144 CURVE SMOOTH",
"511 353 LINE SMOOTH",
"511 472 OFFCURVE",
"419 550 OFFCURVE",
"281 550 CURVE SMOOTH",
"152 550 OFFCURVE",
"60 473 OFFCURVE",
"51 367 CURVE",
"194 367 LINE",
"200 401 OFFCURVE",
"234 430 OFFCURVE",
"284 430 CURVE SMOOTH",
"330 430 OFFCURVE",
"361 411 OFFCURVE",
"361 381 CURVE SMOOTH",
"361 357 OFFCURVE",
"337 344 OFFCURVE",
"269 329 CURVE SMOOTH",
"195 313 LINE SMOOTH",
"82 288 OFFCURVE",
"23 235 OFFCURVE",
"23 150 CURVE SMOOTH",
"23 51 OFFCURVE",
"104 -13 OFFCURVE",
"221 -13 CURVE SMOOTH"
);
},
{
closed = 1;
nodes = (
"202 97 OFFCURVE",
"178 118 OFFCURVE",
"178 149 CURVE SMOOTH",
"178 182 OFFCURVE",
"201 202 OFFCURVE",
"241 212 CURVE SMOOTH",
"289 224 LINE SMOOTH",
"313 230 OFFCURVE",
"337 236 OFFCURVE",
"361 242 CURVE",
"361 204 LINE SMOOTH",
"361 143 OFFCURVE",
"305 97 OFFCURVE",
"245 97 CURVE SMOOTH"
);
}
);
width = 594;
},
{
anchors = (
{
name = bottom;
position = "{427, 0}";
},
{
name = top;
position = "{268, 518}";
}
);
associatedMasterId = "9398AC28-6BE1-4A79-9C94-3CBC2F226CE7";
hints = (
{
horizontal = 1;
place = "{513, 144}";
type = TTStem;
},
{
horizontal = 1;
place = "{0, 144}";
type = TTStem;
},
{
horizontal = 1;
place = "{525, 120}";
type = TTStem;
},
{
horizontal = 1;
place = "{-12, 120}";
type = TTStem;
},
{
horizontal = 1;
place = "{369, 117}";
type = Align;
},
{
horizontal = 1;
place = "{144, 117}";
type = Align;
}
);
layerId = "C88784C2-EE8C-4D36-A561-A0E7AAA98EAB";
name = "Dec 6 19, 01:55";
paths = (
{
closed = 1;
nodes = (
"299 -12 OFFCURVE",
"360 20 OFFCURVE",
"406 83 CURVE",
"365 86 LINE",
"365 0 LINE",
"511 0 LINE",
"511 353 LINE SMOOTH",
"511 472 OFFCURVE",
"419 549 OFFCURVE",
"281 549 CURVE SMOOTH",
"152 549 OFFCURVE",
"60 473 OFFCURVE",
"51 367 CURVE",
"194 367 LINE",
"200 401 OFFCURVE",
"234 429 OFFCURVE",
"284 429 CURVE SMOOTH",
"330 429 OFFCURVE",
"361 411 OFFCURVE",
"361 381 CURVE SMOOTH",
"361 357 OFFCURVE",
"337 344 OFFCURVE",
"269 329 CURVE SMOOTH",
"195 313 LINE SMOOTH",
"82 288 OFFCURVE",
"23 235 OFFCURVE",
"23 150 CURVE SMOOTH",
"23 51 OFFCURVE",
"104 -12 OFFCURVE",
"221 -12 CURVE SMOOTH"
);
},
{
closed = 1;
nodes = (
"202 98 OFFCURVE",
"178 118 OFFCURVE",
"178 149 CURVE SMOOTH",
"178 182 OFFCURVE",
"201 202 OFFCURVE",
"241 212 CURVE SMOOTH",
"289 224 LINE SMOOTH",
"313 230 OFFCURVE",
"337 236 OFFCURVE",
"361 242 CURVE",
"361 204 LINE SMOOTH",
"361 143 OFFCURVE",
"305 98 OFFCURVE",
"245 98 CURVE SMOOTH"
);
}
);
width = 594;
},
{
associatedMasterId = "9398AC28-6BE1-4A79-9C94-3CBC2F226CE7";
hints = (
{
horizontal = 1;
place = "{513, 144}";
type = TTStem;
},
{
horizontal = 1;
place = "{0, 144}";
type = TTStem;
},
{
horizontal = 1;
place = "{525, 120}";
type = TTStem;
},
{
horizontal = 1;
place = "{-12, 120}";
type = TTStem;
},
{
horizontal = 1;
place = "{369, 117}";
type = Align;
},
{
horizontal = 1;
place = "{144, 117}";
type = Align;
}
);
layerId = "63297507-797C-4D33-BDB8-000F9458350A";
name = "Dec 10 19, 16:08";
paths = (
{
closed = 1;
nodes = (
"377 351 LINE",
"195 313 LINE SMOOTH",
"81 289 OFFCURVE",
"23 235 OFFCURVE",
"23 150 CURVE SMOOTH",
"23 51 OFFCURVE",
"104 -12 OFFCURVE",
"221 -12 CURVE SMOOTH",
"299 -12 OFFCURVE",
"360 20 OFFCURVE",
"406 83 CURVE",
"365 86 LINE",
"365 0 LINE",
"511 0 LINE",
"511 353 LINE SMOOTH",
"511 472 OFFCURVE",
"419 549 OFFCURVE",
"281 549 CURVE SMOOTH",
"152 549 OFFCURVE",
"60 473 OFFCURVE",
"51 367 CURVE",
"194 367 LINE",
"200 406 OFFCURVE",
"231 429 OFFCURVE",
"277 429 CURVE SMOOTH",
"330 429 OFFCURVE",
"361 406 OFFCURVE",
"361 367 CURVE SMOOTH",
"361 204 LINE SMOOTH",
"361 143 OFFCURVE",
"305 98 OFFCURVE",
"245 98 CURVE SMOOTH",
"202 98 OFFCURVE",
"178 118 OFFCURVE",
"178 149 CURVE SMOOTH",
"178 182 OFFCURVE",
"201 202 OFFCURVE",
"241 212 CURVE SMOOTH",
"377 246 LINE"
);
}
);
width = 594;
},
{
associatedMasterId = "30C2FD74-1A74-41AC-9C29-B288AE1DBDD7";
hints = (
{
horizontal = 1;
place = "{515, 54}";
type = TTStem;
},
{
horizontal = 1;
place = "{-12, 54}";
type = TTStem;
},
{
horizontal = 1;
place = "{0, 38}";
type = TTStem;
},
{
horizontal = 1;
place = "{38, 63}";
type = Align;
},
{
horizontal = 1;
place = "{402, 63}";
type = TTStem;
},
{
horizontal = 1;
place = "{503, 101}";
type = TTStem;
}
);
layerId = "EF527015-F484-44D9-AE75-5B67F8226F75";
name = "Dec 10 19, 16:46";
paths = (
{
closed = 1;
nodes = (
"426 356 LINE",
"223 309 LINE SMOOTH",
"116 284 OFFCURVE",
"53 231 OFFCURVE",
"53 150 CURVE SMOOTH",
"53 54 OFFCURVE",
"128 -12 OFFCURVE",
"240 -12 CURVE SMOOTH",
"315 -12 OFFCURVE",
"391 34 OFFCURVE",
"419 98 CURVE",
"411 111 LINE",
"411 0 LINE",
"481 0 LINE",
"481 366 LINE SMOOTH",
"481 474 OFFCURVE",
"398 549 OFFCURVE",
"277 549 CURVE SMOOTH",
"164 549 OFFCURVE",
"76 476 OFFCURVE",
"69 378 CURVE",
"144 378 LINE",
"154 439 OFFCURVE",
"207 479 OFFCURVE",
"277 479 CURVE SMOOTH",
"357 479 OFFCURVE",
"411 434 OFFCURVE",
"411 366 CURVE SMOOTH",
"411 239 LINE SMOOTH",
"411 134 OFFCURVE",
"340 58 OFFCURVE",
"240 58 CURVE SMOOTH",
"171 58 OFFCURVE",
"128 93 OFFCURVE",
"128 149 CURVE SMOOTH",
"128 202 OFFCURVE",
"172 236 OFFCURVE",
"241 252 CURVE SMOOTH",
"426 295 LINE"
);
}
);
width = 529;
}
);
leftKerningGroup = a;
rightKerningGroup = a;
},
{
color = 0;
glyphname = a.ss02;
lastChange = "2020-01-19 20:10:12 +0000";
layers = (
{
hints = (
{
horizontal = 1;
place = "{515, 54}";
type = TTStem;
},
{
horizontal = 1;
place = "{-12, 54}";
type = TTStem;
},
{
horizontal = 1;
place = "{0, 38}";
type = TTStem;
},
{
horizontal = 1;
place = "{38, 63}";
type = Align;
},
{
horizontal = 1;
place = "{402, 63}";
type = TTStem;
},
{
horizontal = 1;
place = "{503, 101}";
type = TTStem;
}
);
layerId = "30C2FD74-1A74-41AC-9C29-B288AE1DBDD7";
paths = (
{
closed = 1;
nodes = (
"293 -12 OFFCURVE",
"371 35 OFFCURVE",
"407 106 CURVE",
"398 117 LINE",
"398 0 LINE",
"528 0 LINE",
"528 70 LINE",
"458 70 LINE",
"458 367 LINE SMOOTH",
"458 475 OFFCURVE",
"376 550 OFFCURVE",
"259 550 CURVE SMOOTH",
"163 550 OFFCURVE",
"81 494 OFFCURVE",
"50 425 CURVE",
"114 390 LINE",
"139 444 OFFCURVE",
"191 480 OFFCURVE",
"259 480 CURVE SMOOTH",
"335 480 OFFCURVE",
"388 435 OFFCURVE",
"388 367 CURVE SMOOTH",
"388 239 LINE SMOOTH",
"388 134 OFFCURVE",
"317 58 OFFCURVE",
"217 58 CURVE SMOOTH",
"148 58 OFFCURVE",
"105 93 OFFCURVE",
"105 149 CURVE SMOOTH",
"105 202 OFFCURVE",
"149 236 OFFCURVE",
"218 252 CURVE SMOOTH",
"403 295 LINE",
"403 356 LINE",
"200 309 LINE SMOOTH",
"93 284 OFFCURVE",
"30 231 OFFCURVE",
"30 150 CURVE SMOOTH",
"30 54 OFFCURVE",
"105 -12 OFFCURVE",
"217 -12 CURVE SMOOTH"
);
}
);
width = 544;
},
{
hints = (
{
horizontal = 1;
place = "{513, 144}";
type = TTStem;
},
{
horizontal = 1;
place = "{0, 144}";
type = TTStem;
},
{
horizontal = 1;
place = "{525, 120}";
type = TTStem;
},
{
horizontal = 1;
place = "{-12, 120}";
type = TTStem;
},
{
horizontal = 1;
place = "{369, 117}";
type = Align;
},
{
horizontal = 1;
place = "{144, 117}";
type = Align;
}
);
layerId = "9398AC28-6BE1-4A79-9C94-3CBC2F226CE7";
paths = (
{
closed = 1;
nodes = (
"281 -12 OFFCURVE",
"339 18 OFFCURVE",
"386 93 CURVE",
"351 86 LINE",
"351 0 LINE",
"576 0 LINE",
"576 119 LINE",
"491 119 LINE",
"491 354 LINE SMOOTH",
"491 470 OFFCURVE",
"398 550 OFFCURVE",
"261 550 CURVE SMOOTH",
"146 550 OFFCURVE",
"54 493 OFFCURVE",
"23 404 CURVE",
"151 342 LINE",
"167 390 OFFCURVE",
"209 420 OFFCURVE",
"261 420 CURVE SMOOTH",
"309 420 OFFCURVE",
"341 394 OFFCURVE",
"341 354 CURVE SMOOTH",
"341 204 LINE SMOOTH",
"341 145 OFFCURVE",
"290 98 OFFCURVE",
"225 98 CURVE SMOOTH",
"183 98 OFFCURVE",
"158 117 OFFCURVE",
"158 149 CURVE SMOOTH",
"158 175 OFFCURVE",
"175 192 OFFCURVE",
"201 198 CURVE SMOOTH",
"357 233 LINE",
"357 340 LINE",
"175 302 LINE SMOOTH",
"61 278 OFFCURVE",
"3 226 OFFCURVE",
"3 149 CURVE SMOOTH",
"3 53 OFFCURVE",
"83 -12 OFFCURVE",
"201 -12 CURVE SMOOTH"
);
}
);
width = 574;
},
{
anchors = (
{
name = bottom;
position = "{423, 0}";
},
{
name = top;
position = "{327, 518}";
}
);
associatedMasterId = "9398AC28-6BE1-4A79-9C94-3CBC2F226CE7";
layerId = "249C0893-B9D8-4DBA-9321-B2DB658122CF";
name = "Feb 28 18, 01:39";
paths = (
{
closed = 1;
nodes = (
"353 -12 OFFCURVE",
"420 15 OFFCURVE",
"463 56 CURVE",
"463 176 LINE",
"419 131 OFFCURVE",
"364 108 OFFCURVE",
"301 108 CURVE SMOOTH",
"219 108 OFFCURVE",
"156 171 OFFCURVE",
"156 256 CURVE SMOOTH",
"156 341 OFFCURVE",
"219 405 OFFCURVE",
"301 405 CURVE SMOOTH",
"364 405 OFFCURVE",
"419 382 OFFCURVE",
"463 337 CURVE",
"463 457 LINE",
"420 498 OFFCURVE",
"353 525 OFFCURVE",
"284 525 CURVE SMOOTH",
"142 525 OFFCURVE",
"26 408 OFFCURVE",
"26 256 CURVE SMOOTH",
"26 104 OFFCURVE",
"142 -12 OFFCURVE",
"284 -12 CURVE SMOOTH"
);
},
{
closed = 1;
nodes = (
"555 0 LINE",
"555 513 LINE",
"425 513 LINE",
"425 0 LINE"
);
}
);
width = 618;
},
{
anchors = (
{
name = bottom;
position = "{433, 0}";
},
{
name = top;
position = "{274, 518}";
}
);
associatedMasterId = "9398AC28-6BE1-4A79-9C94-3CBC2F226CE7";
hints = (
{
horizontal = 1;
place = "{513, 144}";
type = TTStem;
},
{
horizontal = 1;
place = "{0, 144}";
type = TTStem;
},
{
horizontal = 1;
place = "{525, 120}";
type = TTStem;
},
{
horizontal = 1;
place = "{-12, 120}";
type = TTStem;
},
{
horizontal = 1;
place = "{369, 117}";
type = Align;
},
{
horizontal = 1;
place = "{144, 117}";
type = Align;
}
);
layerId = "CC1CFBBB-9E0B-4FFF-B7D9-0B5E9B93B1A5";
name = "Jul 15 19, 00:00";
paths = (
{
closed = 1;
nodes = (
"285 -12 OFFCURVE",
"336 7 OFFCURVE",
"377 48 CURVE",
"377 0 LINE",
"507 0 LINE",
"507 329 LINE SMOOTH",
"507 451 OFFCURVE",
"417 525 OFFCURVE",
"275 525 CURVE SMOOTH",
"188 525 OFFCURVE",
"118 494 OFFCURVE",
"75 445 CURVE",
"156 356 LINE",
"182 390 OFFCURVE",
"223 410 OFFCURVE",
"275 410 CURVE SMOOTH",
"324 410 OFFCURVE",
"377 397 OFFCURVE",
"377 329 CURVE SMOOTH",
"377 319 LINE",
"292 317 OFFCURVE",
"226 307 OFFCURVE",
"176 291 CURVE SMOOTH",
"82 261 OFFCURVE",
"44 208 OFFCURVE",
"44 132 CURVE SMOOTH",
"44 43 OFFCURVE",
"120 -12 OFFCURVE",
"217 -12 CURVE SMOOTH"
);
},
{
closed = 1;
nodes = (
"211 89 OFFCURVE",
"178 106 OFFCURVE",
"178 142 CURVE SMOOTH",
"178 167 OFFCURVE",
"191 184 OFFCURVE",
"220 196 CURVE SMOOTH",
"252 210 OFFCURVE",
"303 217 OFFCURVE",
"377 220 CURVE",
"377 194 LINE SMOOTH",
"377 133 OFFCURVE",
"324 89 OFFCURVE",
"251 89 CURVE SMOOTH"
);
}
);
width = 559;
},
{
anchors = (
{
name = bottom;
position = "{433, 0}";
},
{
name = top;
position = "{274, 518}";
}
);
associatedMasterId = "9398AC28-6BE1-4A79-9C94-3CBC2F226CE7";
hints = (
{
horizontal = 1;
place = "{513, 144}";
type = TTStem;
},
{
horizontal = 1;
place = "{0, 144}";
type = TTStem;
},
{
horizontal = 1;
place = "{525, 120}";
type = TTStem;
},
{
horizontal = 1;
place = "{-12, 120}";
type = TTStem;
},
{
horizontal = 1;
place = "{369, 117}";
type = Align;
},
{
horizontal = 1;
place = "{144, 117}";
type = Align;
}
);
layerId = "B5B6F3F6-B38D-4A65-BF25-9F9084EB57B5";
name = "Jul 15 19, 00:15";
paths = (
{
closed = 1;
nodes = (
"276 -12 OFFCURVE",
"335 9 OFFCURVE",
"377 48 CURVE",
"377 10 LINE SMOOTH",
"377 4 OFFCURVE",
"381 0 OFFCURVE",
"387 0 CURVE SMOOTH",
"497 0 LINE SMOOTH",
"503 0 OFFCURVE",
"507 4 OFFCURVE",
"507 10 CURVE SMOOTH",
"507 336 LINE SMOOTH",
"507 452 OFFCURVE",
"413 532 OFFCURVE",
"275 532 CURVE SMOOTH",
"149 532 OFFCURVE",
"66 469 OFFCURVE",
"47 360 CURVE SMOOTH",
"45 353 OFFCURVE",
"50 349 OFFCURVE",
"56 349 CURVE SMOOTH",
"166 349 LINE SMOOTH",
"172 349 OFFCURVE",
"175 352 OFFCURVE",
"177 358 CURVE SMOOTH",
"189 397 OFFCURVE",
"223 417 OFFCURVE",
"275 417 CURVE SMOOTH",
"337 417 OFFCURVE",
"377 385 OFFCURVE",
"377 336 CURVE SMOOTH",
"377 319 LINE",
"275 319 LINE SMOOTH",
"122 319 OFFCURVE",
"34 256 OFFCURVE",
"34 150 CURVE SMOOTH",
"34 48 OFFCURVE",
"109 -12 OFFCURVE",
"217 -12 CURVE SMOOTH"
);
},
{
closed = 1;
nodes = (
"194 89 OFFCURVE",
"168 112 OFFCURVE",
"168 152 CURVE SMOOTH",
"168 194 OFFCURVE",
"208 219 OFFCURVE",
"275 219 CURVE SMOOTH",
"377 219 LINE",
"377 194 LINE SMOOTH",
"377 136 OFFCURVE",
"316 89 OFFCURVE",
"241 89 CURVE SMOOTH"
);
}
);
width = 559;
},
{
anchors = (
{
name = bottom;
position = "{433, 0}";
},
{
name = top;
position = "{274, 518}";
}
);
associatedMasterId = "9398AC28-6BE1-4A79-9C94-3CBC2F226CE7";
hints = (
{
horizontal = 1;
place = "{513, 144}";
type = TTStem;
},
{
horizontal = 1;
place = "{0, 144}";
type = TTStem;
},
{
horizontal = 1;
place = "{525, 120}";
type = TTStem;
},
{
horizontal = 1;
place = "{-12, 120}";
type = TTStem;
},
{
horizontal = 1;
place = "{369, 117}";
type = Align;
},
{
horizontal = 1;
place = "{144, 117}";
type = Align;
}
);
layerId = "C8109B93-BC4B-43CE-8341-737A72E6DC3D";
name = "Aug 7 19, 15:43";
paths = (
{
closed = 1;
nodes = (
"535 94 LINE SMOOTH",
"522 94 OFFCURVE",
"517 103 OFFCURVE",
"517 124 CURVE SMOOTH",
"517 346 LINE SMOOTH",
"517 475 OFFCURVE",
"419 551 OFFCURVE",
"275 551 CURVE SMOOTH",
"149 551 OFFCURVE",
"66 486 OFFCURVE",
"47 377 CURVE",
"177 377 LINE",
"189 416 OFFCURVE",
"223 436 OFFCURVE",
"275 436 CURVE SMOOTH",
"331 436 OFFCURVE",
"367 402 OFFCURVE",
"367 346 CURVE SMOOTH",
"367 319 LINE",
"275 319 LINE SMOOTH",
"122 319 OFFCURVE",
"34 256 OFFCURVE",
"34 150 CURVE SMOOTH",
"34 48 OFFCURVE",
"109 -12 OFFCURVE",
"217 -12 CURVE SMOOTH",
"272 -12 OFFCURVE",
"336 -2 OFFCURVE",
"389 50 CURVE",
"407 15 OFFCURVE",
"447 -6 OFFCURVE",
"510 -6 CURVE SMOOTH",
"547 -6 LINE SMOOTH",
"553 -6 OFFCURVE",
"557 -2 OFFCURVE",
"557 4 CURVE SMOOTH",
"557 84 LINE SMOOTH",
"557 90 OFFCURVE",
"553 94 OFFCURVE",
"547 94 CURVE SMOOTH"
);
},
{
closed = 1;
nodes = (
"194 89 OFFCURVE",
"168 112 OFFCURVE",
"168 152 CURVE SMOOTH",
"168 194 OFFCURVE",
"208 219 OFFCURVE",
"275 219 CURVE SMOOTH",
"367 219 LINE",
"367 194 LINE SMOOTH",
"367 136 OFFCURVE",
"310 89 OFFCURVE",
"241 89 CURVE SMOOTH"
);
}
);
width = 559;
},
{
anchors = (
{
name = bottom;
position = "{418, 0}";
},
{
name = top;
position = "{259, 518}";
}
);
associatedMasterId = "9398AC28-6BE1-4A79-9C94-3CBC2F226CE7";
hints = (
{
horizontal = 1;
place = "{513, 144}";
type = TTStem;
},
{
horizontal = 1;
place = "{0, 144}";
type = TTStem;
},
{
horizontal = 1;
place = "{525, 120}";
type = TTStem;
},
{
horizontal = 1;
place = "{-12, 120}";
type = TTStem;
},
{
horizontal = 1;
place = "{369, 117}";
type = Align;
},
{
horizontal = 1;
place = "{144, 117}";
type = Align;
}
);
layerId = "6BE98FB3-5662-4BCB-BE1D-4ACB4EEBC8CB";
name = "Aug 7 19, 19:37";
paths = (
{
closed = 1;
nodes = (
"502 0 LINE",
"502 353 LINE SMOOTH",
"502 472 OFFCURVE",
"410 550 OFFCURVE",
"272 550 CURVE SMOOTH",
"143 550 OFFCURVE",
"51 473 OFFCURVE",
"42 357 CURVE",
"185 357 LINE",
"191 401 OFFCURVE",
"225 430 OFFCURVE",
"275 430 CURVE SMOOTH",
"321 430 OFFCURVE",
"352 411 OFFCURVE",
"352 381 CURVE SMOOTH",
"352 357 OFFCURVE",
"328 344 OFFCURVE",
"260 329 CURVE SMOOTH",
"186 313 LINE SMOOTH",
"73 288 OFFCURVE",
"19 235 OFFCURVE",
"19 150 CURVE SMOOTH",
"19 51 OFFCURVE",
"95 -13 OFFCURVE",
"212 -13 CURVE SMOOTH",
"269 -13 OFFCURVE",
"319 8 OFFCURVE",
"352 48 CURVE",
"352 0 LINE"
);
},
{
closed = 1;
nodes = (
"193 97 OFFCURVE",
"169 118 OFFCURVE",
"169 152 CURVE SMOOTH",
"169 183 OFFCURVE",
"192 202 OFFCURVE",
"232 212 CURVE SMOOTH",
"352 242 LINE",
"352 194 LINE SMOOTH",
"352 143 OFFCURVE",
"296 97 OFFCURVE",
"236 97 CURVE SMOOTH"
);
}
);
width = 551;
},
{
anchors = (
{
name = bottom;
position = "{414, 0}";
},
{
name = top;
position = "{265, 503}";
}
);
associatedMasterId = "30C2FD74-1A74-41AC-9C29-B288AE1DBDD7";
hints = (
{
horizontal = 1;
place = "{515, 54}";
type = TTStem;
},
{
horizontal = 1;
place = "{-12, 54}";
type = TTStem;
},
{
horizontal = 1;
place = "{0, 38}";
type = TTStem;
},
{
horizontal = 1;
place = "{38, 63}";
type = Align;
},
{
horizontal = 1;
place = "{402, 63}";
type = TTStem;
},
{
horizontal = 1;
place = "{503, 101}";
type = TTStem;
}
);
layerId = "031EB81F-4420-499F-86B9-980BEB32C9A4";
name = "Aug 12 19, 13:25";
paths = (
{
closed = 0;
nodes = (
"93 408 LINE",
"93 478 OFFCURVE",
"163 527 OFFCURVE",
"260 527 CURVE SMOOTH",
"348 527 OFFCURVE",
"428 478 OFFCURVE",
"428 378 CURVE SMOOTH",
"428 70 LINE SMOOTH",
"428 18 OFFCURVE",
"452 0 OFFCURVE",
"513 0 CURVE SMOOTH"
);
},
{
closed = 0;
nodes = (
"428 377 LINE SMOOTH",
"428 338 OFFCURVE",
"396 301 OFFCURVE",
"278 281 CURVE SMOOTH",
"213 270 LINE SMOOTH",
"91 249 OFFCURVE",
"68 192 OFFCURVE",
"68 136 CURVE SMOOTH",
"68 54 OFFCURVE",
"135 0 OFFCURVE",
"239 0 CURVE SMOOTH",
"308 0 OFFCURVE",
"428 38 OFFCURVE",
"428 156 CURVE SMOOTH"
);
}
);
width = 529;
},
{
anchors = (
{
name = bottom;
position = "{414, 0}";
},
{
name = top;
position = "{265, 503}";
}
);
associatedMasterId = "30C2FD74-1A74-41AC-9C29-B288AE1DBDD7";
hints = (
{
horizontal = 1;
place = "{515, 54}";
type = TTStem;
},
{
horizontal = 1;
place = "{-12, 54}";
type = TTStem;
},
{
horizontal = 1;
place = "{0, 38}";
type = TTStem;
},
{
horizontal = 1;
place = "{38, 63}";
type = Align;
},
{
horizontal = 1;
place = "{402, 63}";
type = TTStem;
},
{
horizontal = 1;
place = "{503, 101}";
type = TTStem;
}
);
layerId = "EB7177B6-9BF7-4C4B-9E49-D78114A78308";
name = "Aug 12 19, 13:30";
paths = (
{
closed = 1;
nodes = (
"348 -13 OFFCURVE",
"432 52 OFFCURVE",
"432 180 CURVE",
"422 180 LINE",
"422 61 OFFCURVE",
"343 -1 OFFCURVE",
"239 -1 CURVE SMOOTH",
"140 -1 OFFCURVE",
"74 52 OFFCURVE",
"74 135 CURVE SMOOTH",
"74 206 OFFCURVE",
"112 254 OFFCURVE",
"214 272 CURVE SMOOTH",
"279 283 LINE SMOOTH",
"380 300 OFFCURVE",
"432 325 OFFCURVE",
"432 371 CURVE",
"422 371 LINE",
"422 332 OFFCURVE",
"372 311 OFFCURVE",
"277 295 CURVE SMOOTH",
"212 284 LINE SMOOTH",
"105 266 OFFCURVE",
"62 212 OFFCURVE",
"62 135 CURVE SMOOTH",
"62 45 OFFCURVE",
"134 -13 OFFCURVE",
"239 -13 CURVE SMOOTH"
);
},
{
closed = 1;
nodes = (
"455 12 OFFCURVE",
"434 34 OFFCURVE",
"434 70 CURVE SMOOTH",
"434 378 LINE SMOOTH",
"434 478 OFFCURVE",
"368 540 OFFCURVE",
"263 540 CURVE SMOOTH",
"167 540 OFFCURVE",
"91 489 OFFCURVE",
"87 394 CURVE",
"99 394 LINE",
"103 481 OFFCURVE",
"174 528 OFFCURVE",
"263 528 CURVE SMOOTH",
"363 528 OFFCURVE",
"422 471 OFFCURVE",
"422 378 CURVE SMOOTH",
"422 70 LINE SMOOTH",
"422 26 OFFCURVE",
"448 0 OFFCURVE",
"491 0 CURVE SMOOTH",
"510 0 LINE",
"510 12 LINE",
"491 12 LINE SMOOTH"
);
}
);
width = 529;
},
{
anchors = (
{
name = bottom;
position = "{427, 0}";
},
{
name = top;
position = "{268, 518}";
}
);
associatedMasterId = "9398AC28-6BE1-4A79-9C94-3CBC2F226CE7";
hints = (
{
horizontal = 1;
place = "{513, 144}";
type = TTStem;
},
{
horizontal = 1;
place = "{0, 144}";
type = TTStem;
},
{
horizontal = 1;
place = "{525, 120}";
type = TTStem;
},
{
horizontal = 1;
place = "{-12, 120}";
type = TTStem;
},
{
horizontal = 1;
place = "{369, 117}";
type = Align;
},
{
horizontal = 1;
place = "{144, 117}";
type = Align;
}
);
layerId = "75DFD903-AFD1-429E-957B-4BF8A578B472";
name = "Dec 6 19, 00:24";
paths = (
{
closed = 1;
nodes = (
"299 -13 OFFCURVE",
"360 20 OFFCURVE",
"406 73 CURVE",
"365 76 LINE",
"368 67 LINE SMOOTH",
"387 20 OFFCURVE",
"433 -6 OFFCURVE",
"514 -6 CURVE SMOOTH",
"571 -6 LINE",
"571 114 LINE",
"539 114 LINE SMOOTH",
"519 114 OFFCURVE",
"511 123 OFFCURVE",
"511 144 CURVE SMOOTH",
"511 353 LINE SMOOTH",
"511 472 OFFCURVE",
"419 550 OFFCURVE",
"281 550 CURVE SMOOTH",
"152 550 OFFCURVE",
"60 473 OFFCURVE",
"51 367 CURVE",
"194 367 LINE",
"200 401 OFFCURVE",
"234 430 OFFCURVE",
"284 430 CURVE SMOOTH",
"330 430 OFFCURVE",
"361 411 OFFCURVE",
"361 381 CURVE SMOOTH",
"361 357 OFFCURVE",
"337 344 OFFCURVE",
"269 329 CURVE SMOOTH",
"195 313 LINE SMOOTH",
"82 288 OFFCURVE",
"23 235 OFFCURVE",
"23 150 CURVE SMOOTH",
"23 51 OFFCURVE",
"104 -13 OFFCURVE",
"221 -13 CURVE SMOOTH"
);
},
{
closed = 1;
nodes = (
"202 97 OFFCURVE",
"178 118 OFFCURVE",
"178 149 CURVE SMOOTH",
"178 182 OFFCURVE",
"201 202 OFFCURVE",
"241 212 CURVE SMOOTH",
"289 224 LINE SMOOTH",
"313 230 OFFCURVE",
"337 236 OFFCURVE",
"361 242 CURVE",
"361 204 LINE SMOOTH",
"361 143 OFFCURVE",
"305 97 OFFCURVE",
"245 97 CURVE SMOOTH"
);
}
);
width = 594;
},
{
anchors = (
{
name = bottom;
position = "{427, 0}";
},
{
name = top;
position = "{268, 518}";
}
);
associatedMasterId = "9398AC28-6BE1-4A79-9C94-3CBC2F226CE7";
hints = (
{
horizontal = 1;
place = "{513, 144}";
type = TTStem;
},
{
horizontal = 1;
place = "{0, 144}";
type = TTStem;
},
{
horizontal = 1;
place = "{525, 120}";
type = TTStem;
},
{
horizontal = 1;
place = "{-12, 120}";
type = TTStem;
},
{
horizontal = 1;
place = "{369, 117}";
type = Align;
},
{
horizontal = 1;
place = "{144, 117}";
type = Align;
}
);
layerId = "C88784C2-EE8C-4D36-A561-A0E7AAA98EAB";
name = "Dec 6 19, 01:55";
paths = (
{
closed = 1;
nodes = (
"299 -12 OFFCURVE",
"360 20 OFFCURVE",
"406 83 CURVE",
"365 86 LINE",
"365 0 LINE",
"511 0 LINE",
"511 353 LINE SMOOTH",
"511 472 OFFCURVE",
"419 549 OFFCURVE",
"281 549 CURVE SMOOTH",
"152 549 OFFCURVE",
"60 473 OFFCURVE",
"51 367 CURVE",
"194 367 LINE",
"200 401 OFFCURVE",
"234 429 OFFCURVE",
"284 429 CURVE SMOOTH",
"330 429 OFFCURVE",
"361 411 OFFCURVE",
"361 381 CURVE SMOOTH",
"361 357 OFFCURVE",
"337 344 OFFCURVE",
"269 329 CURVE SMOOTH",
"195 313 LINE SMOOTH",
"82 288 OFFCURVE",
"23 235 OFFCURVE",
"23 150 CURVE SMOOTH",
"23 51 OFFCURVE",
"104 -12 OFFCURVE",
"221 -12 CURVE SMOOTH"
);
},
{
closed = 1;
nodes = (
"202 98 OFFCURVE",
"178 118 OFFCURVE",
"178 149 CURVE SMOOTH",
"178 182 OFFCURVE",
"201 202 OFFCURVE",
"241 212 CURVE SMOOTH",
"289 224 LINE SMOOTH",
"313 230 OFFCURVE",
"337 236 OFFCURVE",
"361 242 CURVE",
"361 204 LINE SMOOTH",
"361 143 OFFCURVE",
"305 98 OFFCURVE",
"245 98 CURVE SMOOTH"
);
}
);
width = 594;
},
{
associatedMasterId = "9398AC28-6BE1-4A79-9C94-3CBC2F226CE7";
hints = (
{
horizontal = 1;
place = "{513, 144}";
type = TTStem;
},
{
horizontal = 1;
place = "{0, 144}";
type = TTStem;
},
{
horizontal = 1;
place = "{525, 120}";
type = TTStem;
},
{
horizontal = 1;
place = "{-12, 120}";
type = TTStem;
},
{
horizontal = 1;
place = "{369, 117}";
type = Align;
},
{
horizontal = 1;
place = "{144, 117}";
type = Align;
}
);
layerId = "63297507-797C-4D33-BDB8-000F9458350A";
name = "Dec 10 19, 16:08";
paths = (
{
closed = 1;
nodes = (
"377 351 LINE",
"195 313 LINE SMOOTH",
"81 289 OFFCURVE",
"23 235 OFFCURVE",
"23 150 CURVE SMOOTH",
"23 51 OFFCURVE",
"104 -12 OFFCURVE",
"221 -12 CURVE SMOOTH",
"299 -12 OFFCURVE",
"360 20 OFFCURVE",
"406 83 CURVE",
"365 86 LINE",
"365 0 LINE",
"511 0 LINE",
"511 353 LINE SMOOTH",
"511 472 OFFCURVE",
"419 549 OFFCURVE",
"281 549 CURVE SMOOTH",
"152 549 OFFCURVE",
"60 473 OFFCURVE",
"51 367 CURVE",
"194 367 LINE",
"200 406 OFFCURVE",
"231 429 OFFCURVE",
"277 429 CURVE SMOOTH",
"330 429 OFFCURVE",
"361 406 OFFCURVE",
"361 367 CURVE SMOOTH",
"361 204 LINE SMOOTH",
"361 143 OFFCURVE",
"305 98 OFFCURVE",
"245 98 CURVE SMOOTH",
"202 98 OFFCURVE",
"178 118 OFFCURVE",
"178 149 CURVE SMOOTH",
"178 182 OFFCURVE",
"201 202 OFFCURVE",
"241 212 CURVE SMOOTH",
"377 246 LINE"
);
}
);
width = 594;
},
{
associatedMasterId = "9398AC28-6BE1-4A79-9C94-3CBC2F226CE7";
hints = (
{
horizontal = 1;
place = "{513, 144}";
type = TTStem;
},
{
horizontal = 1;
place = "{0, 144}";
type = TTStem;
},
{
horizontal = 1;
place = "{525, 120}";
type = TTStem;
},
{
horizontal = 1;
place = "{-12, 120}";
type = TTStem;
},
{
horizontal = 1;
place = "{369, 117}";
type = Align;
},
{
horizontal = 1;
place = "{144, 117}";
type = Align;
}
);
layerId = "6D8DE80C-D4A5-49DB-A1AE-48338695B9FE";
name = "Jan 18 20, 21:51";
paths = (
{
closed = 1;
nodes = (
"303 -12 OFFCURVE",
"363 24 OFFCURVE",
"409 103 CURVE",
"368 106 LINE",
"368 0 LINE",
"514 0 LINE",
"514 354 LINE SMOOTH",
"514 471 OFFCURVE",
"421 550 OFFCURVE",
"284 550 CURVE SMOOTH",
"184 550 OFFCURVE",
"110 508 OFFCURVE",
"72 429 CURVE",
"187 367 LINE",
"205 407 OFFCURVE",
"240 430 OFFCURVE",
"284 430 CURVE SMOOTH",
"332 430 OFFCURVE",
"364 405 OFFCURVE",
"364 368 CURVE SMOOTH",
"364 204 LINE SMOOTH",
"364 146 OFFCURVE",
"312 98 OFFCURVE",
"248 98 CURVE SMOOTH",
"205 98 OFFCURVE",
"181 116 OFFCURVE",
"181 149 CURVE SMOOTH",
"181 180 OFFCURVE",
"203 201 OFFCURVE",
"244 212 CURVE SMOOTH",
"380 246 LINE",
"380 351 LINE",
"198 313 LINE SMOOTH",
"84 289 OFFCURVE",
"26 234 OFFCURVE",
"26 149 CURVE SMOOTH",
"26 54 OFFCURVE",
"106 -12 OFFCURVE",
"224 -12 CURVE SMOOTH"
);
},
{
closed = 1;
nodes = (
"600 0 LINE",
"600 120 LINE",
"514 120 LINE",
"514 0 LINE"
);
}
);
width = 618;
}
);
leftKerningGroup = a;
rightKerningGroup = a;
},
{
glyphname = b;
lastChange = "2020-01-19 20:05:40 +0000";
layers = (
{
hints = (
{
horizontal = 1;
place = "{-12, 118}";
type = Align;
},
{
horizontal = 1;
place = "{710, 0}";
type = TTStem;
},
{
horizontal = 1;
place = "{0, 0}";
type = TTStem;
},
{
horizontal = 1;
place = "{253, -253}";
type = TTStem;
}
);
layerId = "30C2FD74-1A74-41AC-9C29-B288AE1DBDD7";
paths = (
{
closed = 1;
nodes = (
"501 -12 OFFCURVE",
"618 108 OFFCURVE",
"618 270 CURVE SMOOTH",
"618 431 OFFCURVE",
"502 550 OFFCURVE",
"345 550 CURVE SMOOTH",
"254 550 OFFCURVE",
"172 505 OFFCURVE",
"138 435 CURVE",
"145 421 LINE",
"145 745 LINE",
"75 745 LINE",
"75 0 LINE",
"145 0 LINE",
"145 112 LINE",
"137 98 LINE",
"174 30 OFFCURVE",
"254 -12 OFFCURVE",
"345 -12 CURVE SMOOTH"
);
},
{
closed = 1;
nodes = (
"230 58 OFFCURVE",
"145 147 OFFCURVE",
"145 269 CURVE SMOOTH",
"145 390 OFFCURVE",
"230 480 OFFCURVE",
"345 480 CURVE SMOOTH",
"459 480 OFFCURVE",
"543 390 OFFCURVE",
"543 269 CURVE SMOOTH",
"543 147 OFFCURVE",
"459 58 OFFCURVE",
"345 58 CURVE SMOOTH"
);
}
);
width = 655;
},
{
hints = (
{
horizontal = 1;
place = "{710, 0}";
type = Align;
},
{
horizontal = 1;
place = "{525, 120}";
type = TTStem;
},
{
horizontal = 1;
place = "{-12, 120}";
type = TTStem;
},
{
horizontal = 1;
place = "{0, 27}";
type = TTStem;
}
);
layerId = "9398AC28-6BE1-4A79-9C94-3CBC2F226CE7";
paths = (
{
closed = 1;
nodes = (
"495 -12 OFFCURVE",
"614 111 OFFCURVE",
"614 270 CURVE SMOOTH",
"614 427 OFFCURVE",
"494 550 OFFCURVE",
"341 550 CURVE SMOOTH",
"264 550 OFFCURVE",
"200 520 OFFCURVE",
"165 466 CURVE",
"188 436 LINE",
"188 745 LINE",
"38 745 LINE",
"38 0 LINE",
"178 0 LINE",
"178 99 LINE",
"164 68 LINE",
"200 17 OFFCURVE",
"265 -12 OFFCURVE",
"341 -12 CURVE SMOOTH"
);
},
{
closed = 1;
nodes = (
"243 123 OFFCURVE",
"188 183 OFFCURVE",
"188 269 CURVE SMOOTH",
"188 355 OFFCURVE",
"243 415 OFFCURVE",
"322 415 CURVE SMOOTH",
"402 415 OFFCURVE",
"459 354 OFFCURVE",
"459 269 CURVE SMOOTH",
"459 184 OFFCURVE",
"402 123 OFFCURVE",
"322 123 CURVE SMOOTH"
);
}
);
width = 621;
},
{
associatedMasterId = "9398AC28-6BE1-4A79-9C94-3CBC2F226CE7";
layerId = "0080FF96-362D-4056-B693-F7322EB04B0E";
name = "Feb 28 18, 01:41";
paths = (
{
closed = 1;
nodes = (
"476 -12 OFFCURVE",
"592 104 OFFCURVE",
"592 256 CURVE SMOOTH",
"592 408 OFFCURVE",
"476 525 OFFCURVE",
"334 525 CURVE SMOOTH",
"265 525 OFFCURVE",
"198 498 OFFCURVE",
"155 457 CURVE",
"155 337 LINE",
"199 382 OFFCURVE",
"254 405 OFFCURVE",
"317 405 CURVE SMOOTH",
"399 405 OFFCURVE",
"462 341 OFFCURVE",
"462 256 CURVE SMOOTH",
"462 171 OFFCURVE",
"399 108 OFFCURVE",
"317 108 CURVE SMOOTH",
"254 108 OFFCURVE",
"199 131 OFFCURVE",
"155 176 CURVE",
"155 56 LINE",
"198 15 OFFCURVE",
"265 -12 OFFCURVE",
"334 -12 CURVE SMOOTH"
);
},
{
closed = 1;
nodes = (
"193 0 LINE",
"193 710 LINE",
"63 710 LINE",
"63 0 LINE"
);
}
);
width = 618;
},
{
associatedMasterId = "30C2FD74-1A74-41AC-9C29-B288AE1DBDD7";
layerId = "FC14AC43-8B50-44AE-8557-E00767DCDBC7";
name = "Feb 28 18, 01:41";
paths = (
{
closed = 1;
nodes = (
"446 -12 OFFCURVE",
"560 104 OFFCURVE",
"560 253 CURVE SMOOTH",
"560 402 OFFCURVE",
"446 515 OFFCURVE",
"298 515 CURVE SMOOTH",
"239 515 OFFCURVE",
"172 492 OFFCURVE",
"129 457 CURVE",
"129 393 LINE",
"169 434 OFFCURVE",
"236 461 OFFCURVE",
"298 461 CURVE SMOOTH",
"416 461 OFFCURVE",
"502 373 OFFCURVE",
"502 253 CURVE SMOOTH",
"502 133 OFFCURVE",
"416 42 OFFCURVE",
"298 42 CURVE SMOOTH",
"236 42 OFFCURVE",
"169 69 OFFCURVE",
"129 110 CURVE",
"129 46 LINE",
"172 11 OFFCURVE",
"239 -12 OFFCURVE",
"298 -12 CURVE SMOOTH"
);
},
{
closed = 1;
nodes = (
"139 0 LINE",
"139 740 LINE",
"82 740 LINE",
"82 0 LINE"
);
}
);
width = 606;
},
{
associatedMasterId = "30C2FD74-1A74-41AC-9C29-B288AE1DBDD7";
hints = (
{
horizontal = 1;
origin = "{0, 9}";
target = "{0, 10}";
type = Align;
},
{
horizontal = 1;
origin = "{0, 5}";
target = "{1, 6}";
type = TTStem;
},
{
horizontal = 1;
origin = "{0, 16}";
target = "{1, 12}";
type = TTStem;
},
{
horizontal = 1;
origin = "{0, 11}";
target = "{0, 13}";
type = TTStem;
}
);
layerId = "BA5ECFE9-3721-4B10-88C4-BC50567BEFB1";
name = "Sep 3 18, 12:08";
paths = (
{
closed = 1;
nodes = (
"454 -12 OFFCURVE",
"568 104 OFFCURVE",
"568 253 CURVE SMOOTH",
"568 402 OFFCURVE",
"454 515 OFFCURVE",
"306 515 CURVE SMOOTH",
"251 515 OFFCURVE",
"190 495 OFFCURVE",
"147 465 CURVE",
"147 710 LINE",
"90 710 LINE",
"90 0 LINE",
"147 0 LINE",
"147 38 LINE",
"190 8 OFFCURVE",
"251 -12 OFFCURVE",
"306 -12 CURVE SMOOTH"
);
},
{
closed = 1;
nodes = (
"249 42 OFFCURVE",
"188 65 OFFCURVE",
"147 101 CURVE",
"147 402 LINE",
"188 438 OFFCURVE",
"249 461 OFFCURVE",
"306 461 CURVE SMOOTH",
"424 461 OFFCURVE",
"510 373 OFFCURVE",
"510 253 CURVE SMOOTH",
"510 133 OFFCURVE",
"424 42 OFFCURVE",
"306 42 CURVE SMOOTH"
);
}
);
width = 622;
},
{
associatedMasterId = "9398AC28-6BE1-4A79-9C94-3CBC2F226CE7";
hints = (
{
horizontal = 1;
place = "{710, 0}";
type = Align;
},
{
horizontal = 1;
place = "{525, 120}";
type = TTStem;
},
{
horizontal = 1;
place = "{-12, 120}";
type = TTStem;
},
{
horizontal = 1;
place = "{0, 27}";
type = TTStem;
}
);
layerId = "897DFA51-A62C-4BCC-9637-777792300683";
name = "Aug 7 19, 16:07";
paths = (
{
closed = 1;
nodes = (
"199 1 LINE",
"199 745 LINE",
"49 745 LINE",
"49 1 LINE"
);
},
{
closed = 1;
nodes = (
"508 -13 OFFCURVE",
"624 107 OFFCURVE",
"624 268 CURVE SMOOTH",
"624 428 OFFCURVE",
"505 551 OFFCURVE",
"352 551 CURVE SMOOTH",
"280 551 OFFCURVE",
"222 524 OFFCURVE",
"185 473 CURVE",
"112 276 LINE",
"185 55 LINE",
"221 11 OFFCURVE",
"281 -13 OFFCURVE",
"352 -13 CURVE SMOOTH"
);
},
{
closed = 1;
nodes = (
"254 116 OFFCURVE",
"199 179 OFFCURVE",
"199 271 CURVE SMOOTH",
"199 361 OFFCURVE",
"253 421 OFFCURVE",
"334 421 CURVE SMOOTH",
"416 421 OFFCURVE",
"474 361 OFFCURVE",
"474 268 CURVE SMOOTH",
"474 179 OFFCURVE",
"415 116 OFFCURVE",
"334 116 CURVE SMOOTH"
);
}
);
width = 636;
},
{
associatedMasterId = "30C2FD74-1A74-41AC-9C29-B288AE1DBDD7";
hints = (
{
horizontal = 1;
place = "{-12, 118}";
type = Align;
},
{
horizontal = 1;
place = "{710, 0}";
type = TTStem;
},
{
horizontal = 1;
place = "{0, 0}";
type = TTStem;
},
{
horizontal = 1;
place = "{253, 253}";
type = TTStem;
}
);
layerId = "927FA280-5C06-4C56-A1EA-65EC1E7D8E89";
name = "Aug 12 19, 13:33";
paths = (
{
closed = 1;
nodes = (
"468 -13 OFFCURVE",
"577 104 OFFCURVE",
"577 265 CURVE SMOOTH",
"577 426 OFFCURVE",
"469 540 OFFCURVE",
"316 540 CURVE SMOOTH",
"164 540 OFFCURVE",
"55 426 OFFCURVE",
"55 265 CURVE SMOOTH",
"55 103 OFFCURVE",
"164 -13 OFFCURVE",
"316 -13 CURVE SMOOTH"
);
},
{
closed = 1;
nodes = (
"169 -1 OFFCURVE",
"67 108 OFFCURVE",
"67 265 CURVE SMOOTH",
"67 421 OFFCURVE",
"168 528 OFFCURVE",
"316 528 CURVE SMOOTH",
"463 528 OFFCURVE",
"565 421 OFFCURVE",
"565 265 CURVE SMOOTH",
"565 108 OFFCURVE",
"463 -1 OFFCURVE",
"316 -1 CURVE SMOOTH"
);
},
{
closed = 1;
nodes = (
"67 0 LINE",
"67 745 LINE",
"55 745 LINE",
"55 0 LINE"
);
}
);
width = 652;
},
{
associatedMasterId = "30C2FD74-1A74-41AC-9C29-B288AE1DBDD7";
hints = (
{
horizontal = 1;
place = "{-12, 118}";
type = Align;
},
{
horizontal = 1;
place = "{710, 0}";
type = TTStem;
},
{
horizontal = 1;
place = "{0, 0}";
type = TTStem;
},
{
horizontal = 1;
place = "{253, -253}";
type = TTStem;
}
);
layerId = "EBFD6DD2-EEAD-4C31-B2AD-379FE4B98B96";
name = "Aug 12 19, 13:38";
paths = (
{
closed = 1;
nodes = (
"468 -13 OFFCURVE",
"577 104 OFFCURVE",
"577 265 CURVE SMOOTH",
"577 426 OFFCURVE",
"469 540 OFFCURVE",
"316 540 CURVE SMOOTH",
"164 540 OFFCURVE",
"57 426 OFFCURVE",
"57 265 CURVE SMOOTH",
"57 103 OFFCURVE",
"164 -13 OFFCURVE",
"316 -13 CURVE SMOOTH"
);
},
{
closed = 1;
nodes = (
"67 0 LINE",
"67 745 LINE",
"55 745 LINE",
"55 0 LINE"
);
},
{
closed = 1;
nodes = (
"169 -1 OFFCURVE",
"67 108 OFFCURVE",
"67 265 CURVE SMOOTH",
"67 421 OFFCURVE",
"168 528 OFFCURVE",
"316 528 CURVE SMOOTH",
"463 528 OFFCURVE",
"565 421 OFFCURVE",
"565 265 CURVE SMOOTH",
"565 108 OFFCURVE",
"463 -1 OFFCURVE",
"316 -1 CURVE SMOOTH"
);
}
);
width = 652;
},
{
associatedMasterId = "9398AC28-6BE1-4A79-9C94-3CBC2F226CE7";
hints = (
{
horizontal = 1;
place = "{710, 0}";
type = Align;
},
{
horizontal = 1;
place = "{525, 120}";
type = TTStem;
},
{
horizontal = 1;
place = "{-12, 120}";
type = TTStem;
},
{
horizontal = 1;
place = "{0, 27}";
type = TTStem;
}
);
layerId = "EC283497-1B46-475C-9261-EB256A5F0A0C";
name = "Aug 12 19, 13:38";
paths = (
{
closed = 1;
nodes = (
"528 -13 OFFCURVE",
"649 112 OFFCURVE",
"649 270 CURVE SMOOTH",
"649 429 OFFCURVE",
"522 550 OFFCURVE",
"376 550 CURVE SMOOTH",
"226 550 OFFCURVE",
"144 443 OFFCURVE",
"157 269 CURVE",
"141 94 OFFCURVE",
"224 -13 OFFCURVE",
"376 -13 CURVE SMOOTH"
);
},
{
closed = 1;
nodes = (
"223 1 LINE",
"223 745 LINE",
"73 745 LINE",
"73 1 LINE"
);
},
{
closed = 1;
nodes = (
"280 117 OFFCURVE",
"223 181 OFFCURVE",
"223 269 CURVE SMOOTH",
"223 356 OFFCURVE",
"280 420 OFFCURVE",
"357 420 CURVE SMOOTH",
"435 420 OFFCURVE",
"494 356 OFFCURVE",
"494 269 CURVE SMOOTH",
"494 181 OFFCURVE",
"435 117 OFFCURVE",
"357 117 CURVE SMOOTH"
);
}
);
width = 673;
}
);
leftKerningGroup = h;
rightKerningGroup = o;
unicode = 0062;
},
{
glyphname = c;
lastChange = "2020-01-19 20:05:40 +0000";
layers = (
{
hints = (
{
horizontal = 1;
place = "{515, 54}";
type = TTStem;
},
{
horizontal = 1;
place = "{-12, 54}";
type = TTStem;
}
);
layerId = "30C2FD74-1A74-41AC-9C29-B288AE1DBDD7";
paths = (
{
closed = 1;
nodes = (
"405 -12 OFFCURVE",
"492 49 OFFCURVE",
"526 123 CURVE",
"462 158 LINE",
"433 98 OFFCURVE",
"377 58 OFFCURVE",
"304 58 CURVE SMOOTH",
"195 58 OFFCURVE",
"113 149 OFFCURVE",
"113 269 CURVE SMOOTH",
"113 391 OFFCURVE",
"195 480 OFFCURVE",
"304 480 CURVE SMOOTH",
"377 480 OFFCURVE",
"433 440 OFFCURVE",
"462 380 CURVE",
"526 415 LINE",
"492 490 OFFCURVE",
"405 550 OFFCURVE",
"304 550 CURVE SMOOTH",
"151 550 OFFCURVE",
"38 432 OFFCURVE",
"38 270 CURVE SMOOTH",
"38 108 OFFCURVE",
"151 -12 OFFCURVE",
"304 -12 CURVE SMOOTH"
);
}
);
width = 549;
},
{
hints = (
{
horizontal = 1;
place = "{525, 120}";
type = TTStem;
},
{
horizontal = 1;
place = "{-12, 120}";
type = TTStem;
}
);
layerId = "9398AC28-6BE1-4A79-9C94-3CBC2F226CE7";
paths = (
{
closed = 1;
nodes = (
"411 -12 OFFCURVE",
"511 54 OFFCURVE",
"543 154 CURVE",
"415 216 LINE",
"399 159 OFFCURVE",
"352 123 OFFCURVE",
"292 123 CURVE SMOOTH",
"215 123 OFFCURVE",
"162 183 OFFCURVE",
"162 269 CURVE SMOOTH",
"162 355 OFFCURVE",
"215 415 OFFCURVE",
"292 415 CURVE SMOOTH",
"351 415 OFFCURVE",
"399 379 OFFCURVE",
"415 322 CURVE",
"543 384 LINE",
"511 484 OFFCURVE",
"412 550 OFFCURVE",
"292 550 CURVE SMOOTH",
"129 550 OFFCURVE",
"7 430 OFFCURVE",
"7 270 CURVE SMOOTH",
"7 109 OFFCURVE",
"130 -12 OFFCURVE",
"292 -12 CURVE SMOOTH"
);
}
);
width = 543;
},
{
anchors = (
{
name = bottom;
position = "{281, 0}";
},
{
name = top;
position = "{281, 503}";
}
);
associatedMasterId = "30C2FD74-1A74-41AC-9C29-B288AE1DBDD7";
layerId = "9451070C-CC01-4A5D-9C3D-A36172BE9774";
name = "Feb 20 18, 02:18";
paths = (
{
closed = 1;
nodes = (
"353 -12 OFFCURVE",
"423 21 OFFCURVE",
"471 75 CURVE",
"424 128 LINE",
"391 88 OFFCURVE",
"338 56 OFFCURVE",
"272 56 CURVE SMOOTH",
"160 56 OFFCURVE",
"84 136 OFFCURVE",
"84 251 CURVE SMOOTH",
"84 367 OFFCURVE",
"160 447 OFFCURVE",
"272 447 CURVE SMOOTH",
"338 447 OFFCURVE",
"391 415 OFFCURVE",
"424 375 CURVE",
"471 428 LINE",
"423 482 OFFCURVE",
"353 515 OFFCURVE",
"272 515 CURVE SMOOTH",
"121 515 OFFCURVE",
"10 401 OFFCURVE",
"10 251 CURVE SMOOTH",
"10 100 OFFCURVE",
"120 -12 OFFCURVE",
"272 -12 CURVE SMOOTH"
);
}
);
width = 502;
},
{
anchors = (
{
name = bottom;
position = "{304, 0}";
},
{
name = top;
position = "{304, 518}";
}
);
associatedMasterId = "9398AC28-6BE1-4A79-9C94-3CBC2F226CE7";
guideLines = (
{
angle = 227.9357;
position = "{495, 441}";
}
);
layerId = "B8C1F5CF-FCFF-4068-B288-CCCBA581F983";
name = "Feb 22 18, 18:12";
paths = (
{
closed = 1;
nodes = (
"305 108 LINE",
"225 108 OFFCURVE",
"161 172 OFFCURVE",
"161 257 CURVE SMOOTH",
"161 342 OFFCURVE",
"225 405 OFFCURVE",
"305 405 CURVE SMOOTH",
"351 405 OFFCURVE",
"392 384 OFFCURVE",
"418 356 CURVE",
"499 445 LINE",
"456 494 OFFCURVE",
"386 525 OFFCURVE",
"305 525 CURVE SMOOTH",
"148 525 OFFCURVE",
"31 409 OFFCURVE",
"31 257 CURVE SMOOTH",
"31 105 OFFCURVE",
"149 -12 OFFCURVE",
"305 -12 CURVE"
);
},
{
closed = 1;
nodes = (
"305 -12 LINE",
"386 -12 OFFCURVE",
"456 19 OFFCURVE",
"499 68 CURVE",
"418 157 LINE",
"392 129 OFFCURVE",
"351 108 OFFCURVE",
"305 108 CURVE"
);
}
);
width = 527;
}
);
leftKerningGroup = o;
rightKerningGroup = c;
unicode = 0063;
},
{
glyphname = d;
lastChange = "2020-01-19 20:05:40 +0000";
layers = (
{
hints = (
{
horizontal = 1;
place = "{515, 54}";
type = TTStem;
},
{
horizontal = 1;
place = "{-12, 54}";
type = TTStem;
},
{
horizontal = 1;
place = "{0, 38}";
type = TTStem;
},
{
horizontal = 1;
place = "{710, 0}";
type = Align;
}
);
layerId = "30C2FD74-1A74-41AC-9C29-B288AE1DBDD7";
paths = (
{
closed = 1;
nodes = (
"401 -12 OFFCURVE",
"481 30 OFFCURVE",
"518 98 CURVE",
"510 112 LINE",
"510 0 LINE",
"580 0 LINE",
"580 745 LINE",
"510 745 LINE",
"510 421 LINE",
"517 435 LINE",
"483 505 OFFCURVE",
"401 550 OFFCURVE",
"310 550 CURVE SMOOTH",
"153 550 OFFCURVE",
"37 431 OFFCURVE",
"37 270 CURVE SMOOTH",
"37 108 OFFCURVE",
"154 -12 OFFCURVE",
"310 -12 CURVE SMOOTH"
);
},
{
closed = 1;
nodes = (
"196 58 OFFCURVE",
"112 147 OFFCURVE",
"112 269 CURVE SMOOTH",
"112 390 OFFCURVE",
"196 480 OFFCURVE",
"310 480 CURVE SMOOTH",
"425 480 OFFCURVE",
"510 390 OFFCURVE",
"510 269 CURVE SMOOTH",
"510 147 OFFCURVE",
"425 58 OFFCURVE",
"310 58 CURVE SMOOTH"
);
}
);
width = 655;
},
{
hints = (
{
horizontal = 1;
place = "{710, 0}";
type = Align;
},
{
horizontal = 1;
place = "{0, 27}";
type = TTStem;
},
{
horizontal = 1;
place = "{-12, 120}";
type = TTStem;
},
{
horizontal = 1;
place = "{525, 120}";
type = TTStem;
}
);
layerId = "9398AC28-6BE1-4A79-9C94-3CBC2F226CE7";
paths = (
{
closed = 1;
nodes = (
"356 -12 OFFCURVE",
"421 17 OFFCURVE",
"457 68 CURVE",
"443 99 LINE",
"443 0 LINE",
"583 0 LINE",
"583 745 LINE",
"433 745 LINE",
"433 436 LINE",
"456 466 LINE",
"421 520 OFFCURVE",
"357 550 OFFCURVE",
"280 550 CURVE SMOOTH",
"127 550 OFFCURVE",
"7 427 OFFCURVE",
"7 270 CURVE SMOOTH",
"7 111 OFFCURVE",
"126 -12 OFFCURVE",
"280 -12 CURVE SMOOTH"
);
},
{
closed = 1;
nodes = (
"219 123 OFFCURVE",
"162 184 OFFCURVE",
"162 269 CURVE SMOOTH",
"162 354 OFFCURVE",
"219 415 OFFCURVE",
"299 415 CURVE SMOOTH",
"378 415 OFFCURVE",
"433 355 OFFCURVE",
"433 269 CURVE SMOOTH",
"433 183 OFFCURVE",
"378 123 OFFCURVE",
"299 123 CURVE SMOOTH"
);
}
);
width = 621;
},
{
anchors = (
{
name = center;
position = "{393, 626}";
}
);
associatedMasterId = "30C2FD74-1A74-41AC-9C29-B288AE1DBDD7";
layerId = "82155C4B-5BE5-422F-A466-AD8A2772D6BD";
name = "Feb 28 18, 01:41";
paths = (
{
closed = 1;
nodes = (
"367 -12 OFFCURVE",
"434 11 OFFCURVE",
"477 46 CURVE",
"477 110 LINE",
"437 69 OFFCURVE",
"370 42 OFFCURVE",
"308 42 CURVE SMOOTH",
"190 42 OFFCURVE",
"104 133 OFFCURVE",
"104 253 CURVE SMOOTH",
"104 373 OFFCURVE",
"190 461 OFFCURVE",
"308 461 CURVE SMOOTH",
"370 461 OFFCURVE",
"437 434 OFFCURVE",
"477 393 CURVE",
"477 457 LINE",
"434 492 OFFCURVE",
"367 515 OFFCURVE",
"308 515 CURVE SMOOTH",
"160 515 OFFCURVE",
"46 402 OFFCURVE",
"46 253 CURVE SMOOTH",
"46 104 OFFCURVE",
"160 -12 OFFCURVE",
"308 -12 CURVE SMOOTH"
);
},
{
closed = 1;
nodes = (
"524 0 LINE",
"524 740 LINE",
"467 740 LINE",
"467 0 LINE"
);
}
);
width = 606;
},
{
anchors = (
{
name = center;
position = "{508, 596}";
}
);
associatedMasterId = "9398AC28-6BE1-4A79-9C94-3CBC2F226CE7";
hints = (
{
horizontal = 1;
place = "{710, 0}";
type = Align;
},
{
horizontal = 1;
place = "{0, 27}";
type = TTStem;
},
{
horizontal = 1;
place = "{-12, 120}";
type = TTStem;
},
{
horizontal = 1;
place = "{525, 120}";
type = TTStem;
}
);
layerId = "A1ED58EF-11B7-4099-BF82-EB689A37B93F";
name = "Aug 7 19, 17:10";
paths = (
{
closed = 1;
nodes = (
"289 550 LINE",
"143 550 OFFCURVE",
"16 429 OFFCURVE",
"16 270 CURVE SMOOTH",
"16 112 OFFCURVE",
"137 -13 OFFCURVE",
"289 -13 CURVE",
"309 127 LINE",
"230 127 OFFCURVE",
"171 187 OFFCURVE",
"171 269 CURVE SMOOTH",
"171 350 OFFCURVE",
"230 410 OFFCURVE",
"308 410 CURVE"
);
},
{
closed = 1;
nodes = (
"442 1 LINE",
"592 1 LINE",
"592 745 LINE",
"442 745 LINE"
);
},
{
closed = 1;
nodes = (
"289 -13 LINE",
"441 -13 OFFCURVE",
"524 94 OFFCURVE",
"508 269 CURVE",
"442 269 LINE",
"442 187 OFFCURVE",
"385 127 OFFCURVE",
"308 127 CURVE"
);
},
{
closed = 1;
nodes = (
"385 410 OFFCURVE",
"442 350 OFFCURVE",
"442 268 CURVE",
"508 268 LINE",
"524 443 OFFCURVE",
"441 550 OFFCURVE",
"289 550 CURVE",
"308 410 LINE"
);
}
);
width = 636;
},
{
anchors = (
{
name = center;
position = "{516, 596}";
}
);
associatedMasterId = "9398AC28-6BE1-4A79-9C94-3CBC2F226CE7";
hints = (
{
horizontal = 1;
place = "{710, 0}";
type = Align;
},
{
horizontal = 1;
place = "{0, 27}";
type = TTStem;
},
{
horizontal = 1;
place = "{-12, 120}";
type = TTStem;
},
{
horizontal = 1;
place = "{525, 120}";
type = TTStem;
}
);
layerId = "B6809DF0-D41D-46E2-87C3-CAA6B3E4C8F4";
name = "Dec 6 19, 01:44";
paths = (
{
closed = 1;
nodes = (
"449 -13 OFFCURVE",
"532 94 OFFCURVE",
"516 269 CURVE",
"529 443 OFFCURVE",
"447 550 OFFCURVE",
"297 550 CURVE SMOOTH",
"151 550 OFFCURVE",
"24 429 OFFCURVE",
"24 270 CURVE SMOOTH",
"24 112 OFFCURVE",
"145 -13 OFFCURVE",
"297 -13 CURVE SMOOTH"
);
},
{
closed = 1;
nodes = (
"238 117 OFFCURVE",
"179 181 OFFCURVE",
"179 269 CURVE SMOOTH",
"179 356 OFFCURVE",
"238 420 OFFCURVE",
"316 420 CURVE SMOOTH",
"393 420 OFFCURVE",
"450 356 OFFCURVE",
"450 269 CURVE SMOOTH",
"450 181 OFFCURVE",
"393 117 OFFCURVE",
"316 117 CURVE SMOOTH"
);
},
{
closed = 1;
nodes = (
"600 1 LINE",
"600 745 LINE",
"450 745 LINE",
"450 1 LINE"
);
}
);
width = 673;
}
);
leftKerningGroup = o;
rightKerningGroup = d;
unicode = 0064;
},
{
glyphname = e;
lastChange = "2020-01-19 20:05:40 +0000";
layers = (
{
hints = (
{
horizontal = 1;
place = "{515, 54}";
type = TTStem;
options = 128;
},
{
horizontal = 1;
place = "{253, 52}";
type = TTStem;
options = 128;
},
{
horizontal = 1;
place = "{-12, 54}";
type = TTStem;
options = 128;
}
);
layerId = "30C2FD74-1A74-41AC-9C29-B288AE1DBDD7";
paths = (
{
closed = 1;
nodes = (
"416 -12 OFFCURVE",
"502 49 OFFCURVE",
"536 123 CURVE",
"472 158 LINE",
"442 98 OFFCURVE",
"387 58 OFFCURVE",
"304 58 CURVE SMOOTH",
"198 58 OFFCURVE",
"103 138 OFFCURVE",
"113 269 CURVE",
"103 400 OFFCURVE",
"193 480 OFFCURVE",
"297 480 CURVE SMOOTH",
"382 480 OFFCURVE",
"466 417 OFFCURVE",
"466 317 CURVE",
"78 317 LINE",
"78 247 LINE",
"541 247 LINE",
"544 264 OFFCURVE",
"545 281 OFFCURVE",
"545 295 CURVE SMOOTH",
"545 428 OFFCURVE",
"453 550 OFFCURVE",
"297 550 CURVE SMOOTH",
"149 550 OFFCURVE",
"38 433 OFFCURVE",
"38 270 CURVE SMOOTH",
"38 106 OFFCURVE",
"154 -12 OFFCURVE",
"304 -12 CURVE SMOOTH"
);
}
);
width = 583;
},
{
hints = (
{
horizontal = 1;
place = "{549, 125}";
type = TTStem;
options = 128;
},
{
horizontal = 1;
place = "{269, -2147483648}";
type = TTStem;
options = 128;
},
{
horizontal = 1;
place = "{-12, 281}";
type = TTStem;
options = 128;
}
);
layerId = "9398AC28-6BE1-4A79-9C94-3CBC2F226CE7";
paths = (
{
closed = 1;
nodes = (
"397 -12 OFFCURVE",
"487 37 OFFCURVE",
"521 119 CURVE",
"401 176 LINE",
"380 139 OFFCURVE",
"344 118 OFFCURVE",
"288 118 CURVE SMOOTH",
"214 118 OFFCURVE",
"154 174 OFFCURVE",
"163 269 CURVE",
"156 373 OFFCURVE",
"204 425 OFFCURVE",
"280 425 CURVE SMOOTH",
"340 425 OFFCURVE",
"382 393 OFFCURVE",
"388 337 CURVE",
"139 337 LINE",
"139 227 LINE",
"540 227 LINE",
"545 242 OFFCURVE",
"547 263 OFFCURVE",
"547 285 CURVE SMOOTH",
"547 434 OFFCURVE",
"431 550 OFFCURVE",
"280 550 CURVE SMOOTH",
"126 550 OFFCURVE",
"8 431 OFFCURVE",
"8 270 CURVE SMOOTH",
"8 106 OFFCURVE",
"127 -12 OFFCURVE",
"288 -12 CURVE SMOOTH"
);
}
);
width = 552;
},
{
anchors = (
{
name = bottom;
position = "{273, 0}";
},
{
name = top;
position = "{273, 503}";
}
);
associatedMasterId = "30C2FD74-1A74-41AC-9C29-B288AE1DBDD7";
layerId = "6CD82C0A-D315-479E-A866-BDCEE9BE3B35";
name = "Feb 20 18, 02:22";
paths = (
{
closed = 1;
nodes = (
"497 256 LINE",
"497 308 LINE",
"64 308 LINE",
"64 256 LINE"
);
},
{
closed = 1;
nodes = (
"353 -12 OFFCURVE",
"428 16 OFFCURVE",
"475 62 CURVE",
"438 103 LINE",
"402 65 OFFCURVE",
"340 42 OFFCURVE",
"280 42 CURVE SMOOTH",
"162 42 OFFCURVE",
"76 133 OFFCURVE",
"76 253 CURVE SMOOTH",
"76 373 OFFCURVE",
"152 461 OFFCURVE",
"270 461 CURVE",
"270 515 LINE",
"122 515 OFFCURVE",
"18 402 OFFCURVE",
"18 253 CURVE SMOOTH",
"18 104 OFFCURVE",
"132 -12 OFFCURVE",
"280 -12 CURVE SMOOTH"
);
},
{
closed = 1;
nodes = (
"498 270 LINE",
"498 409 OFFCURVE",
"405 514 OFFCURVE",
"270 514 CURVE",
"270 461 LINE",
"379 461 OFFCURVE",
"440 383 OFFCURVE",
"440 270 CURVE"
);
}
);
width = 542;
}
);
leftKerningGroup = o;
rightKerningGroup = e;
unicode = 0065;
},
{
glyphname = f;
lastChange = "2020-01-19 20:05:40 +0000";
layers = (
{
hints = (
{
horizontal = 1;
place = "{503, 0}";
type = Align;
},
{
horizontal = 1;
place = "{449, 0}";
type = Align;
},
{
horizontal = 1;
place = "{0, 0}";
type = Align;
},
{
horizontal = 1;
place = "{503, 54}";
type = TTStem;
},
{
horizontal = 1;
place = "{722, 54}";
type = TTStem;
}
);
layerId = "30C2FD74-1A74-41AC-9C29-B288AE1DBDD7";
paths = (
{
closed = 1;
nodes = (
"189 0 LINE",
"189 473 LINE",
"323 473 LINE",
"323 538 LINE",
"189 538 LINE",
"189 586 LINE SMOOTH",
"189 656 OFFCURVE",
"235 692 OFFCURVE",
"293 692 CURVE SMOOTH",
"308 692 OFFCURVE",
"329 691 OFFCURVE",
"342 689 CURVE",
"342 752 LINE",
"329 755 OFFCURVE",
"303 757 OFFCURVE",
"293 757 CURVE SMOOTH",
"199 757 OFFCURVE",
"119 698 OFFCURVE",
"119 586 CURVE SMOOTH",
"119 538 LINE",
"9 538 LINE",
"9 473 LINE",
"119 473 LINE",
"119 0 LINE"
);
}
);
width = 332;
},
{
hints = (
{
horizontal = 1;
origin = "{0, 5}";
target = "{0, 3}";
type = TTStem;
},
{
horizontal = 1;
origin = "{0, 4}";
target = "{0, 19}";
type = Align;
},
{
horizontal = 1;
origin = "{0, 1}";
target = "{0, 22}";
type = Align;
},
{
horizontal = 1;
origin = "{0, 19}";
target = "{0, 22}";
type = TTStem;
},
{
horizontal = 1;
origin = "{0, 0}";
target = "{0, 23}";
type = Align;
}
);
layerId = "9398AC28-6BE1-4A79-9C94-3CBC2F226CE7";
paths = (
{
closed = 1;
nodes = (
"239 0 LINE",
"239 408 LINE",
"353 408 LINE",
"353 538 LINE",
"239 538 LINE",
"239 556 LINE SMOOTH",
"239 603 OFFCURVE",
"267 627 OFFCURVE",
"322 627 CURVE SMOOTH",
"332 627 OFFCURVE",
"341 626 OFFCURVE",
"353 624 CURVE",
"353 752 LINE",
"339 755 OFFCURVE",
"319 757 OFFCURVE",
"301 757 CURVE SMOOTH",
"167 757 OFFCURVE",
"89 684 OFFCURVE",
"89 556 CURVE SMOOTH",
"89 538 LINE",
"-1 538 LINE",
"-1 408 LINE",
"89 408 LINE",
"89 0 LINE"
);
}
);
width = 352;
},
{
associatedMasterId = "30C2FD74-1A74-41AC-9C29-B288AE1DBDD7";
layerId = "7BCE4991-919B-4CF2-B780-7C7E2B1236F7";
name = "Feb 20 18, 02:05";
paths = (
{
closed = 1;
nodes = (
"25 503 LINE",
"25 437 LINE",
"323 437 LINE",
"323 503 LINE"
);
},
{
closed = 1;
nodes = (
"327 681 LINE",
"393 681 OFFCURVE",
"446 654 OFFCURVE",
"479 609 CURVE",
"526 662 LINE",
"478 716 OFFCURVE",
"408 749 OFFCURVE",
"327 749 CURVE"
);
},
{
closed = 1;
nodes = (
"206 749 OFFCURVE",
"125 671 OFFCURVE",
"125 555 CURVE SMOOTH",
"125 0 LINE",
"197 0 LINE",
"197 555 LINE SMOOTH",
"197 631 OFFCURVE",
"251 681 OFFCURVE",
"327 681 CURVE",
"327 749 LINE"
);
}
);
width = 347;
},
{
associatedMasterId = "30C2FD74-1A74-41AC-9C29-B288AE1DBDD7";
layerId = "6BAF96BF-7725-4BEF-ABB5-73FF5FF8BD67";
name = "Feb 20 18, 02:30";
paths = (
{
closed = 1;
nodes = (
"190 0 LINE",
"190 588 LINE SMOOTH",
"190 636 OFFCURVE",
"225 668 OFFCURVE",
"277 668 CURVE SMOOTH",
"303 668 OFFCURVE",
"323 661 OFFCURVE",
"340 648 CURVE",
"370 694 LINE",
"346 712 OFFCURVE",
"314 722 OFFCURVE",
"277 722 CURVE SMOOTH",
"191 722 OFFCURVE",
"133 668 OFFCURVE",
"133 588 CURVE SMOOTH",
"133 0 LINE"
);
},
{
closed = 1;
nodes = (
"363 449 LINE",
"363 503 LINE",
"15 503 LINE",
"15 449 LINE"
);
}
);
width = 347;
}
);
leftKerningGroup = f;
rightKerningGroup = f;
unicode = 0066;
},
{
color = 1;
glyphname = f.ss01;
lastChange = "2020-01-19 20:06:34 +0000";
layers = (
{
hints = (
{
horizontal = 1;
place = "{503, 0}";
type = Align;
},
{
horizontal = 1;
place = "{449, 0}";
type = Align;
},
{
horizontal = 1;
place = "{0, 0}";
type = Align;
},
{
horizontal = 1;
place = "{503, 54}";
type = TTStem;
},
{
horizontal = 1;
place = "{722, 54}";
type = TTStem;
}
);
layerId = "30C2FD74-1A74-41AC-9C29-B288AE1DBDD7";
paths = (
{
closed = 1;
nodes = (
"189 0 LINE",
"189 473 LINE",
"332 473 LINE",
"332 538 LINE",
"189 538 LINE",
"189 680 LINE",
"332 680 LINE",
"332 745 LINE",
"119 745 LINE",
"119 538 LINE",
"9 538 LINE",
"9 473 LINE",
"119 473 LINE",
"119 0 LINE"
);
}
);
width = 332;
},
{
hints = (
{
horizontal = 1;
origin = "{0, 7}";
target = "{0, 3}";
type = TTStem;
},
{
horizontal = 1;
origin = "{0, 4}";
target = "{0, 9}";
type = Align;
},
{
horizontal = 1;
origin = "{0, 1}";
target = "{0, 12}";
type = Align;
},
{
horizontal = 1;
origin = "{0, 9}";
target = "{0, 12}";
type = TTStem;
},
{
horizontal = 1;
origin = "{0, 0}";
target = "{0, 13}";
type = Align;
}
);
layerId = "9398AC28-6BE1-4A79-9C94-3CBC2F226CE7";
paths = (
{
closed = 1;
nodes = (
"238 0 LINE",
"238 418 LINE",
"352 418 LINE",
"352 538 LINE",
"238 538 LINE",
"238 625 LINE",
"352 625 LINE",
"352 745 LINE",
"88 745 LINE",
"88 538 LINE",
"-2 538 LINE",
"-2 418 LINE",
"88 418 LINE",
"88 0 LINE"
);
}
);
width = 350;
},
{
associatedMasterId = "30C2FD74-1A74-41AC-9C29-B288AE1DBDD7";
layerId = "7BCE4991-919B-4CF2-B780-7C7E2B1236F7";
name = "Feb 20 18, 02:05";
paths = (
{
closed = 1;
nodes = (
"25 503 LINE",
"25 437 LINE",
"323 437 LINE",
"323 503 LINE"
);
},
{
closed = 1;
nodes = (
"327 681 LINE",
"393 681 OFFCURVE",
"446 654 OFFCURVE",
"479 609 CURVE",
"526 662 LINE",
"478 716 OFFCURVE",
"408 749 OFFCURVE",
"327 749 CURVE"
);
},
{
closed = 1;
nodes = (
"206 749 OFFCURVE",
"125 671 OFFCURVE",
"125 555 CURVE SMOOTH",
"125 0 LINE",
"197 0 LINE",
"197 555 LINE SMOOTH",
"197 631 OFFCURVE",
"251 681 OFFCURVE",
"327 681 CURVE",
"327 749 LINE"
);
}
);
width = 347;
},
{
associatedMasterId = "30C2FD74-1A74-41AC-9C29-B288AE1DBDD7";
layerId = "6BAF96BF-7725-4BEF-ABB5-73FF5FF8BD67";
name = "Feb 20 18, 02:30";
paths = (
{
closed = 1;
nodes = (
"190 0 LINE",
"190 588 LINE SMOOTH",
"190 636 OFFCURVE",
"225 668 OFFCURVE",
"277 668 CURVE SMOOTH",
"303 668 OFFCURVE",
"323 661 OFFCURVE",
"340 648 CURVE",
"370 694 LINE",
"346 712 OFFCURVE",
"314 722 OFFCURVE",
"277 722 CURVE SMOOTH",
"191 722 OFFCURVE",
"133 668 OFFCURVE",
"133 588 CURVE SMOOTH",
"133 0 LINE"
);
},
{
closed = 1;
nodes = (
"363 449 LINE",
"363 503 LINE",
"15 503 LINE",
"15 449 LINE"
);
}
);
width = 347;
}
);
leftKerningGroup = f;
rightKerningGroup = f;
},
{
glyphname = g;
lastChange = "2020-01-19 20:05:40 +0000";
layers = (
{
hints = (
{
horizontal = 1;
place = "{0, -2147483648}";
type = Align;
},
{
horizontal = 1;
place = "{-232, 54}";
type = TTStem;
},
{
horizontal = 1;
place = "{0, 0}";
type = TTStem;
},
{
horizontal = 1;
place = "{515, -54}";
type = TTStem;
},
{
horizontal = 1;
place = "{503, -38}";
type = TTStem;
}
);
layerId = "30C2FD74-1A74-41AC-9C29-B288AE1DBDD7";
paths = (
{
closed = 1;
nodes = (
"439 -220 OFFCURVE",
"555 -121 OFFCURVE",
"555 26 CURVE SMOOTH",
"557 538 LINE",
"487 538 LINE",
"487 421 LINE",
"495 432 LINE",
"461 505 OFFCURVE",
"387 550 OFFCURVE",
"297 550 CURVE SMOOTH",
"148 550 OFFCURVE",
"34 437 OFFCURVE",
"34 290 CURVE SMOOTH",
"34 144 OFFCURVE",
"151 28 OFFCURVE",
"297 28 CURVE SMOOTH",
"383 28 OFFCURVE",
"458 70 OFFCURVE",
"496 139 CURVE",
"487 151 LINE",
"486 26 LINE SMOOTH",
"485 -86 OFFCURVE",
"395 -150 OFFCURVE",
"306 -150 CURVE SMOOTH",
"213 -150 OFFCURVE",
"161 -110 OFFCURVE",
"132 -50 CURVE",
"68 -85 LINE",
"102 -159 OFFCURVE",
"185 -220 OFFCURVE",
"306 -220 CURVE SMOOTH"
);
},
{
closed = 1;
nodes = (
"185 98 OFFCURVE",
"109 176 OFFCURVE",
"109 289 CURVE SMOOTH",
"109 402 OFFCURVE",
"186 480 OFFCURVE",
"297 480 CURVE SMOOTH",
"407 480 OFFCURVE",
"487 399 OFFCURVE",
"487 289 CURVE SMOOTH",
"487 177 OFFCURVE",
"408 98 OFFCURVE",
"297 98 CURVE SMOOTH"
);
}
);
width = 631;
},
{
hints = (
{
horizontal = 1;
place = "{525, 120}";
type = TTStem;
},
{
horizontal = 1;
place = "{0, -2147483648}";
type = TTStem;
},
{
horizontal = 1;
place = "{-232, 115}";
type = TTStem;
},
{
horizontal = 1;
place = "{513, 27}";
type = TTStem;
},
{
horizontal = 1;
place = "{0, 0}";
type = Align;
}
);
layerId = "9398AC28-6BE1-4A79-9C94-3CBC2F226CE7";
paths = (
{
closed = 1;
nodes = (
"454 -220 OFFCURVE",
"572 -116 OFFCURVE",
"572 29 CURVE SMOOTH",
"572 538 LINE",
"432 538 LINE",
"432 421 LINE",
"451 457 LINE",
"414 515 OFFCURVE",
"352 550 OFFCURVE",
"274 550 CURVE SMOOTH",
"128 550 OFFCURVE",
"6 448 OFFCURVE",
"6 289 CURVE SMOOTH",
"6 130 OFFCURVE",
"128 27 OFFCURVE",
"274 27 CURVE SMOOTH",
"352 27 OFFCURVE",
"415 57 OFFCURVE",
"451 116 CURVE",
"422 152 LINE",
"422 29 LINE SMOOTH",
"422 -41 OFFCURVE",
"369 -85 OFFCURVE",
"292 -85 CURVE SMOOTH",
"232 -85 OFFCURVE",
"185 -49 OFFCURVE",
"169 8 CURVE",
"41 -54 LINE",
"73 -154 OFFCURVE",
"173 -220 OFFCURVE",
"292 -220 CURVE SMOOTH"
);
},
{
closed = 1;
nodes = (
"220 162 OFFCURVE",
"161 212 OFFCURVE",
"161 288 CURVE SMOOTH",
"161 364 OFFCURVE",
"220 415 OFFCURVE",
"293 415 CURVE SMOOTH",
"366 415 OFFCURVE",
"422 364 OFFCURVE",
"422 288 CURVE SMOOTH",
"422 212 OFFCURVE",
"366 162 OFFCURVE",
"293 162 CURVE SMOOTH"
);
}
);
width = 610;
},
{
anchors = (
{
name = bottom;
position = "{260, -242}";
},
{
name = top;
position = "{298, 503}";
}
);
associatedMasterId = "30C2FD74-1A74-41AC-9C29-B288AE1DBDD7";
layerId = "6BBC7DAB-4563-4E1A-8847-88BB51FF8821";
name = "Feb 28 18, 01:47";
paths = (
{
closed = 1;
nodes = (
"367 -12 OFFCURVE",
"434 11 OFFCURVE",
"477 46 CURVE",
"477 110 LINE",
"437 69 OFFCURVE",
"370 42 OFFCURVE",
"308 42 CURVE SMOOTH",
"190 42 OFFCURVE",
"104 133 OFFCURVE",
"104 253 CURVE SMOOTH",
"104 373 OFFCURVE",
"190 461 OFFCURVE",
"308 461 CURVE SMOOTH",
"370 461 OFFCURVE",
"437 434 OFFCURVE",
"477 393 CURVE",
"477 457 LINE",
"434 492 OFFCURVE",
"367 515 OFFCURVE",
"308 515 CURVE SMOOTH",
"160 515 OFFCURVE",
"46 402 OFFCURVE",
"46 253 CURVE SMOOTH",
"46 104 OFFCURVE",
"160 -12 OFFCURVE",
"308 -12 CURVE SMOOTH"
);
},
{
closed = 1;
nodes = (
"467 0 LINE SMOOTH",
"467 -107 OFFCURVE",
"400 -178 OFFCURVE",
"288 -178 CURVE SMOOTH",
"222 -178 OFFCURVE",
"157 -153 OFFCURVE",
"124 -117 CURVE",
"87 -158 LINE",
"134 -204 OFFCURVE",
"210 -232 OFFCURVE",
"289 -232 CURVE SMOOTH",
"432 -232 OFFCURVE",
"524 -139 OFFCURVE",
"524 0 CURVE SMOOTH",
"524 503 LINE",
"467 503 LINE"
);
}
);
width = 606;
},
{
anchors = (
{
name = bottom;
position = "{235, -252}";
},
{
name = top;
position = "{272, 518}";
}
);
associatedMasterId = "9398AC28-6BE1-4A79-9C94-3CBC2F226CE7";
layerId = "4C792DAF-CEC1-49C4-AE58-4D97330974AD";
name = "Feb 28 18, 01:47";
paths = (
{
closed = 1;
nodes = (
"353 -12 OFFCURVE",
"420 15 OFFCURVE",
"463 56 CURVE",
"463 176 LINE",
"419 131 OFFCURVE",
"364 108 OFFCURVE",
"301 108 CURVE SMOOTH",
"219 108 OFFCURVE",
"156 171 OFFCURVE",
"156 256 CURVE SMOOTH",
"156 341 OFFCURVE",
"219 405 OFFCURVE",
"301 405 CURVE SMOOTH",
"364 405 OFFCURVE",
"419 382 OFFCURVE",
"463 337 CURVE",
"463 457 LINE",
"420 498 OFFCURVE",
"353 525 OFFCURVE",
"284 525 CURVE SMOOTH",
"142 525 OFFCURVE",
"26 408 OFFCURVE",
"26 256 CURVE SMOOTH",
"26 104 OFFCURVE",
"142 -12 OFFCURVE",
"284 -12 CURVE SMOOTH"
);
},
{
closed = 1;
nodes = (
"425 0 LINE SMOOTH",
"425 -70 OFFCURVE",
"363 -117 OFFCURVE",
"281 -117 CURVE SMOOTH",
"225 -117 OFFCURVE",
"184 -91 OFFCURVE",
"158 -63 CURVE",
"77 -152 LINE",
"120 -201 OFFCURVE",
"190 -232 OFFCURVE",
"281 -232 CURVE SMOOTH",
"441 -232 OFFCURVE",
"555 -139 OFFCURVE",
"555 0 CURVE SMOOTH",
"555 513 LINE",
"425 513 LINE"
);
}
);
width = 618;
}
);
leftKerningGroup = o;
rightKerningGroup = g;
unicode = 0067;
},
{
color = 6;
glyphname = g.ss03;
lastChange = "2020-01-19 20:13:16 +0000";
layers = (
{
hints = (
{
horizontal = 1;
place = "{0, -2147483648}";
type = Align;
},
{
horizontal = 1;
place = "{-232, 54}";
type = TTStem;
},
{
horizontal = 1;
place = "{0, 0}";
type = TTStem;
},
{
horizontal = 1;
place = "{515, -54}";
type = TTStem;
},
{
horizontal = 1;
place = "{503, -38}";
type = TTStem;
}
);
layerId = "30C2FD74-1A74-41AC-9C29-B288AE1DBDD7";
paths = (
{
closed = 1;
nodes = (
"307 -205 LINE SMOOTH",
"455 -205 OFFCURVE",
"554 -116 OFFCURVE",
"555 16 CURVE SMOOTH",
"557 538 LINE",
"487 538 LINE",
"487 421 LINE",
"495 432 LINE",
"461 505 OFFCURVE",
"387 550 OFFCURVE",
"297 550 CURVE SMOOTH",
"148 550 OFFCURVE",
"34 437 OFFCURVE",
"34 290 CURVE SMOOTH",
"34 144 OFFCURVE",
"151 28 OFFCURVE",
"297 28 CURVE SMOOTH",
"383 28 OFFCURVE",
"458 70 OFFCURVE",
"496 139 CURVE",
"487 151 LINE",
"485 16 LINE SMOOTH",
"485 -74 OFFCURVE",
"414 -135 OFFCURVE",
"307 -135 CURVE SMOOTH",
"134 -135 LINE",
"134 -205 LINE"
);
},
{
closed = 1;
nodes = (
"185 98 OFFCURVE",
"109 176 OFFCURVE",
"109 289 CURVE SMOOTH",
"109 402 OFFCURVE",
"186 480 OFFCURVE",
"297 480 CURVE SMOOTH",
"407 480 OFFCURVE",
"487 399 OFFCURVE",
"487 289 CURVE SMOOTH",
"487 177 OFFCURVE",
"408 98 OFFCURVE",
"297 98 CURVE SMOOTH"
);
}
);
width = 631;
},
{
hints = (
{
horizontal = 1;
place = "{525, 120}";
type = TTStem;
},
{
horizontal = 1;
place = "{0, -2147483648}";
type = TTStem;
},
{
horizontal = 1;
place = "{-232, 115}";
type = TTStem;
},
{
horizontal = 1;
place = "{513, 27}";
type = TTStem;
},
{
horizontal = 1;
place = "{0, 0}";
type = Align;
}
);
layerId = "9398AC28-6BE1-4A79-9C94-3CBC2F226CE7";
paths = (
{
closed = 1;
nodes = (
"304 -220 LINE SMOOTH",
"461 -220 OFFCURVE",
"572 -119 OFFCURVE",
"572 14 CURVE SMOOTH",
"572 538 LINE",
"432 538 LINE",
"432 421 LINE",
"451 457 LINE",
"414 515 OFFCURVE",
"352 550 OFFCURVE",
"274 550 CURVE SMOOTH",
"128 550 OFFCURVE",
"6 448 OFFCURVE",
"6 289 CURVE SMOOTH",
"6 130 OFFCURVE",
"128 27 OFFCURVE",
"274 27 CURVE SMOOTH",
"352 27 OFFCURVE",
"415 57 OFFCURVE",
"451 116 CURVE",
"422 152 LINE",
"422 14 LINE SMOOTH",
"422 -51 OFFCURVE",
"370 -90 OFFCURVE",
"304 -90 CURVE SMOOTH",
"106 -90 LINE",
"106 -220 LINE"
);
},
{
closed = 1;
nodes = (
"220 162 OFFCURVE",
"161 212 OFFCURVE",
"161 288 CURVE SMOOTH",
"161 364 OFFCURVE",
"220 415 OFFCURVE",
"293 415 CURVE SMOOTH",
"366 415 OFFCURVE",
"422 364 OFFCURVE",
"422 288 CURVE SMOOTH",
"422 212 OFFCURVE",
"366 162 OFFCURVE",
"293 162 CURVE SMOOTH"
);
}
);
width = 610;
},
{
anchors = (
{
name = bottom;
position = "{260, -242}";
},
{
name = top;
position = "{298, 503}";
}
);
associatedMasterId = "30C2FD74-1A74-41AC-9C29-B288AE1DBDD7";
layerId = "6BBC7DAB-4563-4E1A-8847-88BB51FF8821";
name = "Feb 28 18, 01:47";
paths = (
{
closed = 1;
nodes = (
"367 -12 OFFCURVE",
"434 11 OFFCURVE",
"477 46 CURVE",
"477 110 LINE",
"437 69 OFFCURVE",
"370 42 OFFCURVE",
"308 42 CURVE SMOOTH",
"190 42 OFFCURVE",
"104 133 OFFCURVE",
"104 253 CURVE SMOOTH",
"104 373 OFFCURVE",
"190 461 OFFCURVE",
"308 461 CURVE SMOOTH",
"370 461 OFFCURVE",
"437 434 OFFCURVE",
"477 393 CURVE",
"477 457 LINE",
"434 492 OFFCURVE",
"367 515 OFFCURVE",
"308 515 CURVE SMOOTH",
"160 515 OFFCURVE",
"46 402 OFFCURVE",
"46 253 CURVE SMOOTH",
"46 104 OFFCURVE",
"160 -12 OFFCURVE",
"308 -12 CURVE SMOOTH"
);
},
{
closed = 1;
nodes = (
"467 0 LINE SMOOTH",
"467 -107 OFFCURVE",
"400 -178 OFFCURVE",
"288 -178 CURVE SMOOTH",
"222 -178 OFFCURVE",
"157 -153 OFFCURVE",
"124 -117 CURVE",
"87 -158 LINE",
"134 -204 OFFCURVE",
"210 -232 OFFCURVE",
"289 -232 CURVE SMOOTH",
"432 -232 OFFCURVE",
"524 -139 OFFCURVE",
"524 0 CURVE SMOOTH",
"524 503 LINE",
"467 503 LINE"
);
}
);
width = 606;
},
{
anchors = (
{
name = bottom;
position = "{235, -252}";
},
{
name = top;
position = "{272, 518}";
}
);
associatedMasterId = "9398AC28-6BE1-4A79-9C94-3CBC2F226CE7";
layerId = "4C792DAF-CEC1-49C4-AE58-4D97330974AD";
name = "Feb 28 18, 01:47";
paths = (
{
closed = 1;
nodes = (
"353 -12 OFFCURVE",
"420 15 OFFCURVE",
"463 56 CURVE",
"463 176 LINE",
"419 131 OFFCURVE",
"364 108 OFFCURVE",
"301 108 CURVE SMOOTH",
"219 108 OFFCURVE",
"156 171 OFFCURVE",
"156 256 CURVE SMOOTH",
"156 341 OFFCURVE",
"219 405 OFFCURVE",
"301 405 CURVE SMOOTH",
"364 405 OFFCURVE",
"419 382 OFFCURVE",
"463 337 CURVE",
"463 457 LINE",
"420 498 OFFCURVE",
"353 525 OFFCURVE",
"284 525 CURVE SMOOTH",
"142 525 OFFCURVE",
"26 408 OFFCURVE",
"26 256 CURVE SMOOTH",
"26 104 OFFCURVE",
"142 -12 OFFCURVE",
"284 -12 CURVE SMOOTH"
);
},
{
closed = 1;
nodes = (
"425 0 LINE SMOOTH",
"425 -70 OFFCURVE",
"363 -117 OFFCURVE",
"281 -117 CURVE SMOOTH",
"225 -117 OFFCURVE",
"184 -91 OFFCURVE",
"158 -63 CURVE",
"77 -152 LINE",
"120 -201 OFFCURVE",
"190 -232 OFFCURVE",
"281 -232 CURVE SMOOTH",
"441 -232 OFFCURVE",
"555 -139 OFFCURVE",
"555 0 CURVE SMOOTH",
"555 513 LINE",
"425 513 LINE"
);
}
);
width = 618;
}
);
leftKerningGroup = o;
rightKerningGroup = g;
},
{
glyphname = h;
lastChange = "2020-01-19 20:05:40 +0000";
layers = (
{
hints = (
{
horizontal = 1;
place = "{710, 0}";
type = Align;
},
{
horizontal = 1;
place = "{515, -54}";
type = TTStem;
},
{
horizontal = 1;
place = "{0, 0}";
type = Align;
},
{
horizontal = 1;
place = "{0, 0}";
type = Align;
}
);
layerId = "30C2FD74-1A74-41AC-9C29-B288AE1DBDD7";
paths = (
{
closed = 1;
nodes = (
"145 0 LINE",
"145 329 LINE SMOOTH",
"145 420 OFFCURVE",
"203 480 OFFCURVE",
"291 480 CURVE SMOOTH",
"380 480 OFFCURVE",
"436 421 OFFCURVE",
"436 329 CURVE SMOOTH",
"436 0 LINE",
"506 0 LINE",
"506 356 LINE SMOOTH",
"506 467 OFFCURVE",
"420 550 OFFCURVE",
"304 550 CURVE SMOOTH",
"223 550 OFFCURVE",
"153 509 OFFCURVE",
"127 446 CURVE",
"145 432 LINE",
"145 745 LINE",
"75 745 LINE",
"75 0 LINE"
);
}
);
width = 571;
},
{
hints = (
{
horizontal = 1;
place = "{710, 0}";
type = Align;
},
{
horizontal = 1;
place = "{525, 120}";
type = TTStem;
},
{
horizontal = 1;
place = "{0, 0}";
type = Align;
},
{
horizontal = 1;
place = "{0, 0}";
type = Align;
}
);
layerId = "9398AC28-6BE1-4A79-9C94-3CBC2F226CE7";
paths = (
{
closed = 1;
nodes = (
"188 0 LINE",
"188 314 LINE SMOOTH",
"188 375 OFFCURVE",
"227 415 OFFCURVE",
"284 415 CURVE SMOOTH",
"341 415 OFFCURVE",
"380 375 OFFCURVE",
"380 314 CURVE SMOOTH",
"380 0 LINE",
"530 0 LINE",
"530 346 LINE SMOOTH",
"530 469 OFFCURVE",
"448 550 OFFCURVE",
"327 550 CURVE SMOOTH",
"253 550 OFFCURVE",
"195 520 OFFCURVE",
"170 456 CURVE",
"188 432 LINE",
"188 745 LINE",
"38 745 LINE",
"38 0 LINE"
);
}
);
width = 559;
},
{
anchors = (
{
name = center;
position = "{120, 621}";
}
);
associatedMasterId = "30C2FD74-1A74-41AC-9C29-B288AE1DBDD7";
layerId = "BC59801F-7168-41F1-A4D0-4B82BFD0F21E";
name = "Feb 28 18, 01:48";
paths = (
{
closed = 1;
nodes = (
"139 0 LINE",
"139 710 LINE",
"82 710 LINE",
"82 0 LINE"
);
},
{
closed = 1;
nodes = (
"239 515 OFFCURVE",
"172 492 OFFCURVE",
"129 457 CURVE",
"129 393 LINE",
"169 434 OFFCURVE",
"234 461 OFFCURVE",
"291 461 CURVE SMOOTH",
"377 461 OFFCURVE",
"434 405 OFFCURVE",
"434 321 CURVE SMOOTH",
"434 0 LINE",
"491 0 LINE",
"491 321 LINE SMOOTH",
"491 437 OFFCURVE",
"414 515 OFFCURVE",
"298 515 CURVE SMOOTH"
);
}
);
width = 563;
},
{
anchors = (
{
name = center;
position = "{157, 621}";
}
);
associatedMasterId = "9398AC28-6BE1-4A79-9C94-3CBC2F226CE7";
layerId = "76309190-1B71-4919-A4F2-454551BEEDFF";
name = "Feb 28 18, 01:48";
paths = (
{
closed = 1;
nodes = (
"193 0 LINE",
"193 710 LINE",
"63 710 LINE",
"63 0 LINE"
);
},
{
closed = 1;
nodes = (
"265 525 OFFCURVE",
"198 498 OFFCURVE",
"155 457 CURVE",
"155 337 LINE",
"199 382 OFFCURVE",
"254 405 OFFCURVE",
"317 405 CURVE SMOOTH",
"371 405 OFFCURVE",
"407 371 OFFCURVE",
"407 321 CURVE SMOOTH",
"407 0 LINE",
"537 0 LINE",
"537 321 LINE SMOOTH",
"537 443 OFFCURVE",
"456 525 OFFCURVE",
"334 525 CURVE SMOOTH"
);
}
);
width = 589;
}
);
leftKerningGroup = h;
rightKerningGroup = n;
unicode = 0068;
},
{
color = 1;
glyphname = h.ss01;
lastChange = "2020-01-19 20:06:34 +0000";
layers = (
{
hints = (
{
horizontal = 1;
place = "{710, 0}";
type = Align;
},
{
horizontal = 1;
place = "{515, -54}";
type = TTStem;
},
{
horizontal = 1;
place = "{0, 0}";
type = Align;
},
{
horizontal = 1;
place = "{0, 0}";
type = Align;
}
);
layerId = "30C2FD74-1A74-41AC-9C29-B288AE1DBDD7";
paths = (
{
closed = 1;
nodes = (
"145 0 LINE",
"145 473 LINE",
"419 473 LINE",
"419 0 LINE",
"489 0 LINE",
"489 538 LINE",
"145 538 LINE",
"145 745 LINE",
"75 745 LINE",
"75 0 LINE"
);
}
);
width = 564;
},
{
hints = (
{
horizontal = 1;
place = "{710, 0}";
type = Align;
},
{
horizontal = 1;
place = "{525, 120}";
type = TTStem;
},
{
horizontal = 1;
place = "{0, 0}";
type = Align;
},
{
horizontal = 1;
place = "{0, 0}";
type = Align;
}
);
layerId = "9398AC28-6BE1-4A79-9C94-3CBC2F226CE7";
paths = (
{
closed = 1;
nodes = (
"188 0 LINE",
"188 418 LINE",
"362 418 LINE",
"362 0 LINE",
"512 0 LINE",
"512 538 LINE",
"188 538 LINE",
"188 745 LINE",
"38 745 LINE",
"38 0 LINE"
);
}
);
width = 550;
},
{
anchors = (
{
name = center;
position = "{120, 621}";
}
);
associatedMasterId = "30C2FD74-1A74-41AC-9C29-B288AE1DBDD7";
layerId = "BC59801F-7168-41F1-A4D0-4B82BFD0F21E";
name = "Feb 28 18, 01:48";
paths = (
{
closed = 1;
nodes = (
"139 0 LINE",
"139 710 LINE",
"82 710 LINE",
"82 0 LINE"
);
},
{
closed = 1;
nodes = (
"239 515 OFFCURVE",
"172 492 OFFCURVE",
"129 457 CURVE",
"129 393 LINE",
"169 434 OFFCURVE",
"234 461 OFFCURVE",
"291 461 CURVE SMOOTH",
"377 461 OFFCURVE",
"434 405 OFFCURVE",
"434 321 CURVE SMOOTH",
"434 0 LINE",
"491 0 LINE",
"491 321 LINE SMOOTH",
"491 437 OFFCURVE",
"414 515 OFFCURVE",
"298 515 CURVE SMOOTH"
);
}
);
width = 563;
},
{
anchors = (
{
name = center;
position = "{157, 621}";
}
);
associatedMasterId = "9398AC28-6BE1-4A79-9C94-3CBC2F226CE7";
layerId = "76309190-1B71-4919-A4F2-454551BEEDFF";
name = "Feb 28 18, 01:48";
paths = (
{
closed = 1;
nodes = (
"193 0 LINE",
"193 710 LINE",
"63 710 LINE",
"63 0 LINE"
);
},
{
closed = 1;
nodes = (
"265 525 OFFCURVE",
"198 498 OFFCURVE",
"155 457 CURVE",
"155 337 LINE",
"199 382 OFFCURVE",
"254 405 OFFCURVE",
"317 405 CURVE SMOOTH",
"371 405 OFFCURVE",
"407 371 OFFCURVE",
"407 321 CURVE SMOOTH",
"407 0 LINE",
"537 0 LINE",
"537 321 LINE SMOOTH",
"537 443 OFFCURVE",
"456 525 OFFCURVE",
"334 525 CURVE SMOOTH"
);
}
);
width = 589;
}
);
leftKerningGroup = h;
rightKerningGroup = n;
},
{
glyphname = i;
lastChange = "2020-01-19 20:05:40 +0000";
layers = (
{
hints = (
{
horizontal = 1;
origin = "{0, 2}";
type = Anchor;
},
{
horizontal = 1;
origin = "{0, 1}";
target = "{0, 2}";
type = Align;
},
{
horizontal = 1;
origin = "{0, 0}";
target = "{0, 3}";
type = Align;
}
);
layerId = "30C2FD74-1A74-41AC-9C29-B288AE1DBDD7";
paths = (
{
closed = 1;
nodes = (
"145 0 LINE",
"145 538 LINE",
"75 538 LINE",
"75 0 LINE"
);
},
{
closed = 1;
nodes = (
"145 635 LINE",
"145 745 LINE",
"75 745 LINE",
"75 635 LINE"
);
}
);
width = 220;
},
{
hints = (
{
horizontal = 1;
origin = "{0, 1}";
target = "{0, 2}";
type = Align;
},
{
horizontal = 1;
origin = "{0, 0}";
target = "{0, 3}";
type = Align;
},
{
horizontal = 1;
origin = "{0, 1}";
type = Anchor;
}
);
layerId = "9398AC28-6BE1-4A79-9C94-3CBC2F226CE7";
paths = (
{
closed = 1;
nodes = (
"188 0 LINE",
"188 538 LINE",
"38 538 LINE",
"38 0 LINE"
);
},
{
closed = 1;
nodes = (
"188 595 LINE",
"188 745 LINE",
"38 745 LINE",
"38 595 LINE"
);
}
);
width = 226;
}
);
leftKerningGroup = i;
rightKerningGroup = i;
unicode = 0069;
},
{
color = 0;
glyphname = i.ss02;
lastChange = "2020-01-19 20:10:19 +0000";
layers = (
{
hints = (
{
horizontal = 1;
origin = "{0, 1}";
type = Anchor;
},
{
horizontal = 1;
origin = "{0, 1}";
target = "{0, 1}";
type = Align;
},
{
horizontal = 1;
origin = "{0, 0}";
target = "{0, 5}";
type = Align;
}
);
layerId = "30C2FD74-1A74-41AC-9C29-B288AE1DBDD7";
paths = (
{
closed = 1;
nodes = (
"158 0 LINE",
"158 538 LINE",
"18 538 LINE",
"18 468 LINE",
"88 468 LINE",
"88 0 LINE"
);
},
{
closed = 1;
nodes = (
"158 635 LINE",
"158 745 LINE",
"88 745 LINE",
"88 635 LINE"
);
}
);
width = 233;
},
{
hints = (
{
horizontal = 1;
origin = "{0, 1}";
target = "{0, 2}";
type = Align;
},
{
horizontal = 1;
origin = "{0, 0}";
target = "{0, 5}";
type = Align;
},
{
horizontal = 1;
origin = "{0, 1}";
type = Anchor;
}
);
layerId = "9398AC28-6BE1-4A79-9C94-3CBC2F226CE7";
paths = (
{
closed = 1;
nodes = (
"235 0 LINE",
"235 538 LINE",
"-1 538 LINE",
"-1 408 LINE",
"85 408 LINE",
"85 0 LINE"
);
},
{
closed = 1;
nodes = (
"235 595 LINE",
"235 745 LINE",
"85 745 LINE",
"85 595 LINE"
);
}
);
width = 273;
}
);
leftKerningGroup = i;
rightKerningGroup = i;
},
{
glyphname = j;
lastChange = "2020-01-19 20:05:40 +0000";
layers = (
{
hints = (
{
horizontal = 1;
place = "{-219, 54}";
type = TTStem;
},
{
horizontal = 1;
place = "{503, 0}";
type = Align;
},
{
horizontal = 1;
place = "{586, -2147483648}";
type = Anchor;
}
);
layerId = "30C2FD74-1A74-41AC-9C29-B288AE1DBDD7";
paths = (
{
closed = 1;
nodes = (
"65 -220 OFFCURVE",
"145 -161 OFFCURVE",
"145 -49 CURVE SMOOTH",
"145 538 LINE",
"75 538 LINE",
"75 -49 LINE SMOOTH",
"75 -119 OFFCURVE",
"29 -155 OFFCURVE",
"-29 -155 CURVE SMOOTH",
"-44 -155 OFFCURVE",
"-65 -154 OFFCURVE",
"-78 -152 CURVE",
"-78 -215 LINE",
"-65 -218 OFFCURVE",
"-39 -220 OFFCURVE",
"-29 -220 CURVE SMOOTH"
);
},
{
closed = 1;
nodes = (
"145 635 LINE",
"145 745 LINE",
"75 745 LINE",
"75 635 LINE"
);
}
);
width = 220;
},
{
hints = (
{
horizontal = 1;
origin = "{1, 3}";
type = Anchor;
},
{
horizontal = 1;
origin = "{1, 3}";
target = "{1, 3}";
type = Align;
},
{
horizontal = 1;
place = "{-232, 115}";
type = TTStem;
}
);
layerId = "9398AC28-6BE1-4A79-9C94-3CBC2F226CE7";
paths = (
{
closed = 1;
nodes = (
"110 -220 OFFCURVE",
"188 -147 OFFCURVE",
"188 -19 CURVE SMOOTH",
"188 537 LINE",
"38 537 LINE",
"38 -19 LINE SMOOTH",
"38 -66 OFFCURVE",
"10 -90 OFFCURVE",
"-45 -90 CURVE SMOOTH",
"-55 -90 OFFCURVE",
"-64 -89 OFFCURVE",
"-76 -87 CURVE",
"-76 -215 LINE",
"-62 -218 OFFCURVE",
"-42 -220 OFFCURVE",
"-24 -220 CURVE SMOOTH"
);
},
{
closed = 1;
nodes = (
"188 595 LINE",
"188 745 LINE",
"38 745 LINE",
"38 595 LINE"
);
}
);
width = 226;
}
);
leftKerningGroup = j;
rightKerningGroup = j;
unicode = 006A;
},
{
color = 1;
glyphname = j.ss01;
lastChange = "2020-01-19 20:06:34 +0000";
layers = (
{
hints = (
{
horizontal = 1;
place = "{-219, 54}";
type = TTStem;
},
{
horizontal = 1;
place = "{503, 0}";
type = Align;
},
{
horizontal = 1;
place = "{586, -2147483648}";
type = Anchor;
}
);
layerId = "30C2FD74-1A74-41AC-9C29-B288AE1DBDD7";
paths = (
{
closed = 1;
nodes = (
"145 -220 LINE",
"145 538 LINE",
"75 538 LINE",
"75 -155 LINE",
"-68 -155 LINE",
"-68 -220 LINE"
);
},
{
closed = 1;
nodes = (
"145 635 LINE",
"145 745 LINE",
"75 745 LINE",
"75 635 LINE"
);
}
);
width = 220;
},
{
hints = (
{
horizontal = 1;
origin = "{0, 2}";
type = Anchor;
},
{
horizontal = 1;
origin = "{0, 2}";
target = "{0, 2}";
type = Align;
},
{
horizontal = 1;
place = "{-232, 115}";
type = TTStem;
}
);
layerId = "9398AC28-6BE1-4A79-9C94-3CBC2F226CE7";
paths = (
{
closed = 1;
nodes = (
"188 -220 LINE",
"188 538 LINE",
"38 538 LINE",
"38 -90 LINE",
"-86 -90 LINE",
"-86 -220 LINE"
);
},
{
closed = 1;
nodes = (
"188 595 LINE",
"188 745 LINE",
"38 745 LINE",
"38 595 LINE"
);
}
);
width = 226;
}
);
leftKerningGroup = j;
rightKerningGroup = j;
},
{
glyphname = k;
lastChange = "2020-01-19 20:05:40 +0000";
layers = (
{
hints = (
{
horizontal = 1;
place = "{710, 0}";
type = TTStem;
},
{
horizontal = 1;
place = "{243, 124}";
type = TTStem;
},
{
horizontal = 1;
place = "{503, 0}";
type = Align;
},
{
horizontal = 1;
place = "{0, 0}";
type = Align;
},
{
horizontal = 1;
place = "{0, 0}";
type = Align;
},
{
horizontal = 1;
place = "{367, 0}";
type = Align;
options = 4;
}
);
layerId = "30C2FD74-1A74-41AC-9C29-B288AE1DBDD7";
paths = (
{
closed = 1;
nodes = (
"145 0 LINE",
"145 160 LINE",
"247 268 LINE",
"415 0 LINE",
"498 0 LINE",
"296 321 LINE",
"498 538 LINE",
"413 538 LINE",
"145 260 LINE",
"145 745 LINE",
"75 745 LINE",
"75 0 LINE"
);
}
);
width = 508;
},
{
hints = (
{
horizontal = 1;
place = "{710, 0}";
type = Align;
},
{
horizontal = 1;
place = "{0, 0}";
type = Align;
},
{
horizontal = 1;
place = "{0, 0}";
type = Align;
},
{
horizontal = 1;
place = "{170, 172}";
type = TTStem;
},
{
horizontal = 1;
place = "{170, 88}";
type = Align;
options = 4;
},
{
horizontal = 1;
place = "{513, 0}";
type = TTStem;
}
);
layerId = "9398AC28-6BE1-4A79-9C94-3CBC2F226CE7";
paths = (
{
closed = 1;
nodes = (
"188 0 LINE",
"188 135 LINE",
"261 216 LINE",
"388 0 LINE",
"551 0 LINE",
"358 323 LINE",
"551 538 LINE",
"376 538 LINE",
"188 337 LINE",
"188 745 LINE",
"38 745 LINE",
"38 0 LINE"
);
}
);
width = 542;
},
{
anchors = (
{
name = bottom;
position = "{269, 0}";
},
{
name = top;
position = "{269, 518}";
}
);
associatedMasterId = "9398AC28-6BE1-4A79-9C94-3CBC2F226CE7";
layerId = "0F600798-BE82-4294-82ED-4AD4D313560C";
name = "Feb 28 18, 01:51";
paths = (
{
closed = 1;
nodes = (
"535 0 LINE",
"352 405 LINE",
"248 314 LINE",
"392 0 LINE"
);
},
{
closed = 1;
nodes = (
"193 0 LINE",
"193 710 LINE",
"63 710 LINE",
"63 0 LINE"
);
},
{
closed = 1;
nodes = (
"509 513 LINE",
"359 513 LINE",
"183 332 LINE",
"184 160 LINE"
);
}
);
width = 537;
},
{
anchors = (
{
name = bottom;
position = "{227, 0}";
},
{
name = top;
position = "{227, 503}";
}
);
associatedMasterId = "30C2FD74-1A74-41AC-9C29-B288AE1DBDD7";
layerId = "D7D45792-4988-490F-BCBA-325F95ABB047";
name = "Feb 28 18, 01:51";
paths = (
{
closed = 1;
nodes = (
"491 0 LINE",
"291 369 LINE",
"226 369 LINE",
"426 0 LINE"
);
},
{
closed = 1;
nodes = (
"139 0 LINE",
"139 740 LINE",
"82 740 LINE",
"82 0 LINE"
);
},
{
closed = 1;
nodes = (
"461 503 LINE",
"386 503 LINE",
"134 304 LINE",
"134 239 LINE"
);
}
);
width = 510;
},
{
anchors = (
{
name = bottom;
position = "{299, 0}";
},
{
name = top;
position = "{299, 513}";
}
);
associatedMasterId = "9398AC28-6BE1-4A79-9C94-3CBC2F226CE7";
hints = (
{
horizontal = 1;
place = "{710, 0}";
type = Align;
},
{
horizontal = 1;
place = "{0, 0}";
type = Align;
},
{
horizontal = 1;
place = "{0, 0}";
type = Align;
},
{
horizontal = 1;
place = "{170, 172}";
type = TTStem;
},
{
horizontal = 1;
place = "{170, 88}";
type = Align;
options = 4;
},
{
horizontal = 1;
place = "{513, 0}";
type = TTStem;
}
);
layerId = "6C62EE49-61A2-47E1-A6AC-2AB59FC83C2E";
name = "Dec 6 19, 02:06";
paths = (
{
closed = 1;
nodes = (
"582 0 LINE",
"363 284 LINE",
"560 537 LINE",
"393 537 LINE",
"219 326 LINE",
"219 230 LINE",
"402 0 LINE"
);
},
{
closed = 1;
nodes = (
"223 0 LINE",
"223 745 LINE",
"73 745 LINE",
"73 0 LINE"
);
}
);
width = 585;
}
);
leftKerningGroup = h;
rightKerningGroup = k;
unicode = 006B;
},
{
color = 1;
glyphname = k.ss01;
lastChange = "2020-01-19 20:06:34 +0000";
layers = (
{
hints = (
{
horizontal = 1;
place = "{710, 0}";
type = TTStem;
},
{
horizontal = 1;
place = "{243, 124}";
type = TTStem;
},
{
horizontal = 1;
place = "{503, 0}";
type = Align;
},
{
horizontal = 1;
place = "{0, 0}";
type = Align;
},
{
horizontal = 1;
place = "{0, 0}";
type = Align;
},
{
horizontal = 1;
place = "{367, 0}";
type = Align;
options = 4;
}
);
layerId = "30C2FD74-1A74-41AC-9C29-B288AE1DBDD7";
paths = (
{
closed = 1;
nodes = (
"145 0 LINE",
"145 289 LINE",
"235 289 LINE",
"415 0 LINE",
"498 0 LINE",
"296 321 LINE",
"498 538 LINE",
"413 538 LINE",
"237 354 LINE",
"145 354 LINE",
"145 745 LINE",
"75 745 LINE",
"75 0 LINE"
);
}
);
width = 508;
},
{
hints = (
{
horizontal = 1;
place = "{710, 0}";
type = Align;
},
{
horizontal = 1;
place = "{0, 0}";
type = Align;
},
{
horizontal = 1;
place = "{0, 0}";
type = Align;
},
{
horizontal = 1;
place = "{170, 172}";
type = TTStem;
},
{
horizontal = 1;
place = "{170, 88}";
type = Align;
options = 4;
},
{
horizontal = 1;
place = "{513, 0}";
type = TTStem;
}
);
layerId = "9398AC28-6BE1-4A79-9C94-3CBC2F226CE7";
paths = (
{
closed = 1;
nodes = (
"188 0 LINE",
"188 246 LINE",
"230 246 LINE",
"378 0 LINE",
"551 0 LINE",
"358 303 LINE",
"551 538 LINE",
"371 538 LINE",
"234 376 LINE",
"188 376 LINE",
"188 745 LINE",
"38 745 LINE",
"38 0 LINE"
);
}
);
width = 542;
},
{
anchors = (
{
name = bottom;
position = "{269, 0}";
},
{
name = top;
position = "{269, 518}";
}
);
associatedMasterId = "9398AC28-6BE1-4A79-9C94-3CBC2F226CE7";
layerId = "0F600798-BE82-4294-82ED-4AD4D313560C";
name = "Feb 28 18, 01:51";
paths = (
{
closed = 1;
nodes = (
"535 0 LINE",
"352 405 LINE",
"248 314 LINE",
"392 0 LINE"
);
},
{
closed = 1;
nodes = (
"193 0 LINE",
"193 710 LINE",
"63 710 LINE",
"63 0 LINE"
);
},
{
closed = 1;
nodes = (
"509 513 LINE",
"359 513 LINE",
"183 332 LINE",
"184 160 LINE"
);
}
);
width = 537;
},
{
anchors = (
{
name = bottom;
position = "{227, 0}";
},
{
name = top;
position = "{227, 503}";
}
);
associatedMasterId = "30C2FD74-1A74-41AC-9C29-B288AE1DBDD7";
layerId = "D7D45792-4988-490F-BCBA-325F95ABB047";
name = "Feb 28 18, 01:51";
paths = (
{
closed = 1;
nodes = (
"491 0 LINE",
"291 369 LINE",
"226 369 LINE",
"426 0 LINE"
);
},
{
closed = 1;
nodes = (
"139 0 LINE",
"139 740 LINE",
"82 740 LINE",
"82 0 LINE"
);
},
{
closed = 1;
nodes = (
"461 503 LINE",
"386 503 LINE",
"134 304 LINE",
"134 239 LINE"
);
}
);
width = 510;
},
{
anchors = (
{
name = bottom;
position = "{299, 0}";
},
{
name = top;
position = "{299, 513}";
}
);
associatedMasterId = "9398AC28-6BE1-4A79-9C94-3CBC2F226CE7";
hints = (
{
horizontal = 1;
place = "{710, 0}";
type = Align;
},
{
horizontal = 1;
place = "{0, 0}";
type = Align;
},
{
horizontal = 1;
place = "{0, 0}";
type = Align;
},
{
horizontal = 1;
place = "{170, 172}";
type = TTStem;
},
{
horizontal = 1;
place = "{170, 88}";
type = Align;
options = 4;
},
{
horizontal = 1;
place = "{513, 0}";
type = TTStem;
}
);
layerId = "6C62EE49-61A2-47E1-A6AC-2AB59FC83C2E";
name = "Dec 6 19, 02:06";
paths = (
{
closed = 1;
nodes = (
"582 0 LINE",
"363 284 LINE",
"560 537 LINE",
"393 537 LINE",
"219 326 LINE",
"219 230 LINE",
"402 0 LINE"
);
},
{
closed = 1;
nodes = (
"223 0 LINE",
"223 745 LINE",
"73 745 LINE",
"73 0 LINE"
);
}
);
width = 585;
},
{
associatedMasterId = "30C2FD74-1A74-41AC-9C29-B288AE1DBDD7";
hints = (
{
horizontal = 1;
place = "{710, 0}";
type = TTStem;
},
{
horizontal = 1;
place = "{243, 124}";
type = TTStem;
},
{
horizontal = 1;
place = "{503, 0}";
type = Align;
},
{
horizontal = 1;
place = "{0, 0}";
type = Align;
},
{
horizontal = 1;
place = "{0, 0}";
type = Align;
},
{
horizontal = 1;
place = "{367, 0}";
type = Align;
options = 4;
}
);
layerId = "EDA67168-7084-4185-BFCD-CCB600A9C429";
name = "Jan 18 20, 22:13";
paths = (
{
closed = 1;
nodes = (
"498 0 LINE",
"296 321 LINE",
"498 538 LINE",
"413 538 LINE",
"211 327 LINE",
"415 0 LINE"
);
},
{
closed = 1;
nodes = (
"145 0 LINE",
"145 745 LINE",
"75 745 LINE",
"75 0 LINE"
);
},
{
closed = 1;
nodes = (
"283 286 LINE",
"283 356 LINE",
"117 356 LINE",
"117 286 LINE"
);
}
);
width = 508;
}
);
leftKerningGroup = h;
rightKerningGroup = k;
},
